<svg xmlns="http://www.w3.org/2000/svg" width="40" height="40" fill="none" viewBox="0 0 40 40"><g clip-path="url(#a)"><path fill="#8E33FF" d="M23.172 0a2 2 0 0 1 1.414.585l11.828 11.82A2 2 0 0 1 37 13.818v21.514C37 37.911 34.869 40 32.24 40H7.76C5.131 40 3 37.91 3 35.333V4.667C3 2.089 5.131 0 7.76 0z"/><g filter="url(#b)"><path fill="#fff" fill-opacity="0.24" d="M35.155 12.138a.5.5 0 0 1-.355.852H29c-2.577 0-4.902-2.267-4.902-4.78V2.204a.5.5 0 0 1 .855-.352z" shape-rendering="crispEdges"/></g><path fill="#fff" d="M22.923 16.798v9.423q0 .42-.286.749-.286.328-.723.509-.438.18-.871.269-.434.088-.812.088t-.812-.088a5 5 0 0 1-.87-.27 1.9 1.9 0 0 1-.724-.508 1.1 1.1 0 0 1-.286-.749q0-.42.286-.749.286-.328.723-.509.438-.18.871-.27.434-.087.812-.087.883 0 1.615.328v-4.518l-6.461 1.994v5.965q0 .42-.286.749a1.9 1.9 0 0 1-.724.509q-.438.18-.87.269-.434.088-.813.088t-.812-.088a5 5 0 0 1-.87-.27 1.9 1.9 0 0 1-.724-.508 1.1 1.1 0 0 1-.286-.75q0-.42.286-.748a1.9 1.9 0 0 1 .724-.509q.437-.18.87-.27.435-.087.812-.088.885 0 1.616.329v-8.136q0-.261.16-.476a.83.83 0 0 1 .412-.298l7-2.154a.8.8 0 0 1 .236-.034q.336 0 .572.236a.78.78 0 0 1 .235.572"/></g><defs><clipPath id="a"><path fill="#fff" d="M0 0h40v40H0z"/></clipPath><filter id="b" width="15.2031" height="15.2869" x="22.0977" y="1.70337" color-interpolation-filters="sRGB" filterUnits="userSpaceOnUse"><feFlood flood-opacity="0" result="BackgroundImageFix"/><feColorMatrix in="SourceAlpha" result="hardAlpha" values="0 0 0 0 0 0 0 0 0 0 0 0 0 0 0 0 0 0 127 0"/><feOffset dy="2"/><feGaussianBlur stdDeviation="1"/><feComposite in2="hardAlpha" operator="out"/><feColorMatrix values="0 0 0 0 0 0 0 0 0 0 0 0 0 0 0 0 0 0 0.04 0"/><feBlend in2="BackgroundImageFix" result="effect1_dropShadow_1255_158073"/><feBlend in="SourceGraphic" in2="effect1_dropShadow_1255_158073" result="shape"/></filter></defs></svg>