<svg xmlns="http://www.w3.org/2000/svg" width="24" height="25" fill="none" viewBox="0 0 24 25"><g clip-path="url(#a)"><path fill="#FFD666" fill-rule="evenodd" d="M6.145.01h8.032l6.797 7.095v13.778a3.12 3.12 0 0 1-3.118 3.127H6.145a3.127 3.127 0 0 1-3.119-3.127V3.128A3.125 3.125 0 0 1 6.145.01" clip-rule="evenodd"/><path fill="#fff" fill-rule="evenodd" d="M14.168.01v7.033h6.806z" clip-rule="evenodd" opacity="0.4"/><path fill="#B76E00" d="M8.772 16.31q.145.027.29.027c.402 0 .604-.193.604-.57V12.51h1.174v3.329q0 .774-.395 1.182c-.254.263-.613.403-1.068.403-.184 0-.386-.017-.605-.061zm4.555 1.13a2 2 0 0 1-1.296-.446c-.368-.307-.57-.675-.596-1.121l1.069-.307a.94.94 0 0 0 .289.596.85.85 0 0 0 .587.236.74.74 0 0 0 .438-.122.35.35 0 0 0 .166-.307.34.34 0 0 0-.131-.272.9.9 0 0 0-.342-.183c-.14-.044-.298-.097-.473-.14a3 3 0 0 1-.525-.185 2.2 2.2 0 0 1-.465-.262 1.16 1.16 0 0 1-.35-.43 1.5 1.5 0 0 1-.131-.639c0-.403.175-.736.516-.998.342-.272.754-.403 1.235-.403.473 0 .894.113 1.253.35q.526.344.657.91l-1.112.465a.94.94 0 0 0-.28-.5.76.76 0 0 0-.518-.183.7.7 0 0 0-.376.096.3.3 0 0 0-.132.254c0 .105.062.184.184.254.114.062.263.114.447.14.175.027.368.08.578.15s.403.157.587.253c.175.105.324.272.447.49.122.22.175.483.175.798 0 .447-.175.815-.526 1.095-.35.271-.805.412-1.375.412"/></g><defs><clipPath id="a"><path fill="#fff" d="M0 .01h24v24H0z"/></clipPath></defs></svg>