<svg xmlns="http://www.w3.org/2000/svg" width="40" height="40" fill="none" viewBox="0 0 40 40"><g clip-path="url(#a)"><path fill="#002542" d="M23.172 0a2 2 0 0 1 1.414.585l11.828 11.82A2 2 0 0 1 37 13.818v21.514C37 37.911 34.869 40 32.24 40H7.76C5.131 40 3 37.91 3 35.333V4.667C3 2.089 5.131 0 7.76 0z"/><g filter="url(#b)"><path fill="#fff" fill-opacity="0.24" d="M35.155 12.138a.5.5 0 0 1-.355.852H29c-2.577 0-4.902-2.267-4.902-4.78V2.204a.5.5 0 0 1 .855-.352z" shape-rendering="crispEdges"/></g><path fill="#31A8FF" d="M12 31v-8.676h3.432q.96 0 1.728.342.774.342 1.224 1.002.45.654.45 1.596 0 .858-.378 1.476-.378.612-1.074.942t-1.65.33h-1.398V31zm2.31-4.728h1.35a.92.92 0 0 0 .738-.354q.294-.354.294-.774 0-.45-.324-.768-.318-.324-.708-.324h-1.35zm9.17 4.848a5.4 5.4 0 0 1-1.332-.168 4.3 4.3 0 0 1-1.206-.51 3 3 0 0 1-.9-.858 2.5 2.5 0 0 1-.408-1.224h2.376q.066.306.258.522t.498.336q.306.114.702.114.36 0 .678-.072.324-.072.522-.24a.6.6 0 0 0 .204-.48.47.47 0 0 0-.21-.408 1.5 1.5 0 0 0-.534-.222 10 10 0 0 0-.684-.138l-1.326-.228q-.996-.162-1.608-.804-.606-.648-.63-1.752-.012-.876.468-1.494a3.03 3.03 0 0 1 1.296-.948 4.8 4.8 0 0 1 1.8-.33q1.188 0 2.01.348t1.248.966q.432.618.45 1.422h-2.316a1 1 0 0 0-.204-.54.9.9 0 0 0-.456-.3 2.1 2.1 0 0 0-.684-.096q-.336 0-.564.066-.222.06-.354.162a.6.6 0 0 0-.192.216.6.6 0 0 0-.054.24.63.63 0 0 0 .186.474q.186.18.744.282l1.332.228q.93.162 1.458.504.528.336.774.762.252.426.318.846t.066.744q0 .738-.492 1.326-.486.582-1.326.918t-1.908.336"/></g><defs><clipPath id="a"><path fill="#fff" d="M0 0h40v40H0z"/></clipPath><filter id="b" width="15.2031" height="15.2869" x="22.0977" y="1.70337" color-interpolation-filters="sRGB" filterUnits="userSpaceOnUse"><feFlood flood-opacity="0" result="BackgroundImageFix"/><feColorMatrix in="SourceAlpha" result="hardAlpha" values="0 0 0 0 0 0 0 0 0 0 0 0 0 0 0 0 0 0 127 0"/><feOffset dy="2"/><feGaussianBlur stdDeviation="1"/><feComposite in2="hardAlpha" operator="out"/><feColorMatrix values="0 0 0 0 0 0 0 0 0 0 0 0 0 0 0 0 0 0 0.04 0"/><feBlend in2="BackgroundImageFix" result="effect1_dropShadow_1255_158101"/><feBlend in="SourceGraphic" in2="effect1_dropShadow_1255_158101" result="shape"/></filter></defs></svg>