<svg xmlns="http://www.w3.org/2000/svg" width="40" height="40" fill="none" viewBox="0 0 40 40"><g clip-path="url(#a)"><path fill="#454F5B" d="M23.172 0a2 2 0 0 1 1.414.585l11.828 11.82A2 2 0 0 1 37 13.818v21.514C37 37.911 34.869 40 32.24 40H7.76C5.131 40 3 37.91 3 35.333V4.667C3 2.089 5.131 0 7.76 0z"/><g filter="url(#b)"><path fill="#fff" fill-opacity="0.24" d="M35.155 12.138a.5.5 0 0 1-.355.852H29c-2.577 0-4.902-2.267-4.902-4.78V2.204a.5.5 0 0 1 .855-.352z" shape-rendering="crispEdges"/></g><path fill="#fff" d="M8 24.376v-2.052h7.284v2.052H12.8V31h-2.34v-6.624zM24.372 31h-2.916l-1.596-2.724L18.3 31h-2.484l2.832-4.38-2.76-4.296h2.892l1.344 2.352 1.332-2.352h2.448l-2.592 3.96zm.479-6.624v-2.052h7.284v2.052h-2.484V31h-2.34v-6.624z"/></g><defs><clipPath id="a"><path fill="#fff" d="M0 0h40v40H0z"/></clipPath><filter id="b" width="15.2031" height="15.2869" x="22.0977" y="1.70337" color-interpolation-filters="sRGB" filterUnits="userSpaceOnUse"><feFlood flood-opacity="0" result="BackgroundImageFix"/><feColorMatrix in="SourceAlpha" result="hardAlpha" values="0 0 0 0 0 0 0 0 0 0 0 0 0 0 0 0 0 0 127 0"/><feOffset dy="2"/><feGaussianBlur stdDeviation="1"/><feComposite in2="hardAlpha" operator="out"/><feColorMatrix values="0 0 0 0 0 0 0 0 0 0 0 0 0 0 0 0 0 0 0.04 0"/><feBlend in2="BackgroundImageFix" result="effect1_dropShadow_1255_158096"/><feBlend in="SourceGraphic" in2="effect1_dropShadow_1255_158096" result="shape"/></filter></defs></svg>