<svg xmlns="http://www.w3.org/2000/svg" width="40" height="40" fill="none" viewBox="0 0 40 40"><path fill="#4586F9" d="M23.172 0a2 2 0 0 1 1.414.585l11.828 11.82A2 2 0 0 1 37 13.818v21.514C37 37.911 34.869 40 32.24 40H7.76C5.131 40 3 37.91 3 35.333V4.667C3 2.089 5.131 0 7.76 0z"/><g filter="url(#a)"><path fill="#fff" fill-opacity="0.24" d="M35.155 12.138a.5.5 0 0 1-.355.852H29c-2.577 0-4.902-2.267-4.902-4.78V2.204a.5.5 0 0 1 .855-.352z" shape-rendering="crispEdges"/></g><path fill="#fff" fill-rule="evenodd" d="M10 16.99h14v1.75H10zm0 3.5h14v1.75H10zm0 3.5h14v1.75H10zm0 3.5h7v1.75h-7z" clip-rule="evenodd"/><defs><filter id="a" width="15.2031" height="15.2869" x="22.0977" y="1.70337" color-interpolation-filters="sRGB" filterUnits="userSpaceOnUse"><feFlood flood-opacity="0" result="BackgroundImageFix"/><feColorMatrix in="SourceAlpha" result="hardAlpha" values="0 0 0 0 0 0 0 0 0 0 0 0 0 0 0 0 0 0 127 0"/><feOffset dy="2"/><feGaussianBlur stdDeviation="1"/><feComposite in2="hardAlpha" operator="out"/><feColorMatrix values="0 0 0 0 0 0 0 0 0 0 0 0 0 0 0 0 0 0 0.04 0"/><feBlend in2="BackgroundImageFix" result="effect1_dropShadow_1255_158049"/><feBlend in="SourceGraphic" in2="effect1_dropShadow_1255_158049" result="shape"/></filter></defs></svg>