<svg xmlns="http://www.w3.org/2000/svg" width="24" height="24" fill="none" viewBox="0 0 24 24"><path fill="#1877F2" d="M12 10.75c4.704 0 7.477-.102 8.868-.175A1.2 1.2 0 0 0 22 9.363V8.194c0-.45-.145-.89-.463-1.208-1.869-1.862-6.162-4.263-9.072-4.898a2.2 2.2 0 0 0-.93 0c-2.91.635-7.203 3.036-9.072 4.898C2.145 7.303 2 7.745 2 8.194v1.17a1.2 1.2 0 0 0 1.132 1.21c1.39.074 4.164.176 8.868.176m-9.821 7.979c.13-.377.507-.55.906-.572C4.119 18.1 6.652 18 12 18s7.88.099 8.915.157c.399.023.776.195.906.572.097.28.179.689.179 1.271s-.082.992-.179 1.271c-.13.378-.507.55-.906.572C19.881 21.9 17.348 22 12 22s-7.88-.099-8.915-.157c-.399-.023-.776-.194-.906-.572C2.082 20.991 2 20.582 2 20s.082-.992.179-1.271" opacity="0.32"/><path fill="#1877F2" d="M12 9a2 2 0 1 0 0-4 2 2 0 0 0 0 4m1.947 1.744a296 296 0 0 1-3.894 0A100 100 0 0 0 10 14.5c0 1.72.022 2.822.044 3.505a395 395 0 0 1 3.912 0c.022-.683.044-1.785.044-3.505 0-1.949-.028-3.105-.053-3.756m2.107-.023A99 99 0 0 0 16 14.5c0 1.734.022 2.84.045 3.522 1.802.022 3.057.057 3.907.09.024-.672.048-1.8.048-3.612 0-2.081-.032-3.259-.058-3.882-.93.038-2.205.078-3.888.103m-11.996-.103c.93.038 2.205.078 3.888.103.026.647.054 1.807.054 3.779 0 1.734-.022 2.84-.045 3.522a150 150 0 0 0-3.907.09A105 105 0 0 1 4 14.5c0-2.081.032-3.259.058-3.882"/></svg>