<svg xmlns="http://www.w3.org/2000/svg" width="24" height="24" fill="none" viewBox="0 0 24 24"><path fill="#1877F2" d="M2.625 20.25a1.125 1.125 0 1 0 0 2.25h18.75a1.125 1.125 0 1 0 0-2.25z"/><path fill="#1877F2" d="M12.453 6.225q.192-.293.435-.612l.024-.033a8.5 8.5 0 0 1 1.365-1.43c.59-.48 1.304-.89 2.123-1.065q.41-.087.855-.085c2.026.013 3.558 1.395 4.497 2.556q.176.218.324.421l.041.059q.15.208.24.427l.012.029c.396 1.008-.142 2.097-1.069 2.557a2 2 0 0 1-.22.096l-3.348 1.228-4.66 6.72c-1.406 2.029-4.58.642-4.045-1.77l.468-2.111-4.657 1.313A2.626 2.626 0 0 1 1.5 12V7.74c0-1.815 2.457-2.38 3.249-.746l.908 1.874 5.148-1.356c.648-.17 1.223-.642 1.65-1.287zm-5.937.634.15.192 3.758-.99c.197-.05.496-.237.778-.663q.225-.341.471-.669L9.762 3.42A2.4 2.4 0 0 0 8.408 3C6.42 3 5.297 5.287 6.516 6.86" opacity="0.32"/></svg>