<svg xmlns="http://www.w3.org/2000/svg" width="24" height="24" fill="none" viewBox="0 0 24 24"><path fill="#1877F2" fill-rule="evenodd" d="M2.124 8h19.752c.07 1.201.124 2.827.124 5 0 3.484-.137 5.56-.264 6.737-.094.872-.684 1.544-1.546 1.707-1.34.254-3.847.556-8.19.556s-6.85-.302-8.19-.556c-.862-.163-1.452-.835-1.546-1.707C2.137 18.561 2 16.484 2 13c0-2.173.053-3.799.124-5M6.5 12.682c0-.601.433-1.074 1.034-1.095.78-.028 2.133-.06 4.466-.08 2.507-.022 3.883.013 4.631.053.524.028.869.435.869.96v.39c0 .563-.384 1-.946 1.024-.764.034-2.13.066-4.554.066s-3.79-.033-4.554-.066c-.562-.025-.946-.461-.946-1.023zm0 4.407c0-.561.384-1.01.945-1.039C7.973 16.023 8.78 16 10 16s2.027.023 2.555.05c.56.03.945.478.945 1.04v.321c0 .562-.384 1.01-.945 1.039-.528.027-1.335.05-2.555.05s-2.027-.023-2.555-.05c-.56-.03-.945-.477-.945-1.039z" clip-rule="evenodd" opacity="0.32"/><path fill="#1877F2" d="M17.915 2.031a.584.584 0 0 1 .549.568c.02.287.036.73.036 1.401l-.001.306c.7.08 1.257.168 1.691.25.862.163 1.452.835 1.546 1.707.048.442.097 1.013.14 1.737H2.124c.043-.724.092-1.295.14-1.737.094-.872.684-1.544 1.546-1.707.434-.082.99-.17 1.691-.25L5.5 4c0-.67.017-1.114.036-1.401a.584.584 0 0 1 .549-.568C6.298 2.014 6.594 2 7 2s.702.014.915.031a.584.584 0 0 1 .549.568c.02.287.036.73.036 1.401v.075A76 76 0 0 1 12 4c1.333 0 2.493.028 3.5.075V4c0-.67.017-1.114.036-1.401a.584.584 0 0 1 .549-.568C16.298 2.014 16.594 2 17 2s.702.014.915.031"/><path fill="#1877F2" fill-rule="evenodd" d="M7.534 11.587c-.6.021-1.034.494-1.034 1.095v.229c0 .562.384.998.946 1.023.764.033 2.13.066 4.554.066s3.79-.033 4.554-.066c.562-.025.946-.461.946-1.023v-.391c0-.525-.345-.932-.869-.96-.748-.04-2.124-.075-4.631-.053-2.333.02-3.686.052-4.466.08m-.089 4.463c-.56.03-.945.477-.945 1.039v.322c0 .561.384 1.01.945 1.039.528.027 1.335.05 2.555.05s2.027-.023 2.555-.05c.56-.03.945-.477.945-1.039v-.322c0-.561-.384-1.01-.945-1.039A51 51 0 0 0 10 16c-1.22 0-2.027.023-2.555.05" clip-rule="evenodd"/></svg>