<svg xmlns="http://www.w3.org/2000/svg" width="24" height="24" fill="none" viewBox="0 0 24 24"><path fill="#1877F2" fill-rule="evenodd" d="M4.123 2.244C5.318 2.12 7.305 2 10.5 2s5.182.12 6.377.244c1.02.105 1.763.861 1.88 1.88C18.88 5.188 19 6.794 19 9s-.12 3.812-.243 4.876c-.117 1.019-.86 1.775-1.88 1.88-1.055.109-2.728.216-5.306.24-.4.003-.784.163-1.064.448l-1.691 1.714c-.734.745-2.004.313-2.13-.725L6.55 16.34a.505.505 0 0 0-.475-.44 38 38 0 0 1-1.952-.145c-1.02-.104-1.764-.861-1.881-1.88C2.12 12.812 2 11.206 2 9s.12-3.812.243-4.876c.117-1.019.86-1.775 1.88-1.88M7 6a1 1 0 1 0 0 2h7a1 1 0 1 0 0-2zm0 4.5a1 1 0 1 0 0 2h4a1 1 0 1 0 0-2z" clip-rule="evenodd" opacity="0.32"/><path fill="#1877F2" d="M6 7a1 1 0 0 1 1-1h7a1 1 0 1 1 0 2H7a1 1 0 0 1-1-1m0 4.5a1 1 0 0 1 1-1h4a1 1 0 1 1 0 2H7a1 1 0 0 1-1-1m4.026 5.43.48-.486c.28-.285.665-.445 1.064-.449 2.578-.023 4.251-.13 5.306-.239 1.02-.105 1.763-.861 1.88-1.88.08-.695.16-1.621.205-2.795.507.03.906.065 1.217.1.625.07 1.084.522 1.162 1.147.08.653.16 1.672.16 3.172s-.08 2.52-.16 3.172a1.29 1.29 0 0 1-1.163 1.147c-.418.047-.996.095-1.78.13a.505.505 0 0 0-.474.404l-.171.866a.75.75 0 0 1-1.232.417l-1.449-1.277a1.52 1.52 0 0 0-.97-.377c-1.316-.032-2.2-.098-2.779-.163a1.29 1.29 0 0 1-1.163-1.147c-.052-.42-.103-.99-.133-1.741"/></svg>