<svg xmlns="http://www.w3.org/2000/svg" width="24" height="24" fill="none" viewBox="0 0 24 24"><path fill="#1877F2" d="M21.18 16.97c-.283.656-.957 1.03-1.671 1.03h-4.694q.047-.128.082-.263a3.09 3.09 0 0 0-.676-2.84c.244-1.988.397-4.024.49-5.632.046-.798-.931-1.064-1.284-.35a90 90 0 0 0-2.343 5.126 3.03 3.03 0 0 0-1.981 2.117A3.1 3.1 0 0 0 9.185 18H4.49c-.714 0-1.388-.375-1.672-1.03A10 10 0 0 1 2 13C2 7.477 6.477 3 12 3s10 4.477 10 10c0 1.41-.292 2.753-.82 3.97" opacity="0.32"/><path fill="#1877F2" d="M14.71 9.265c.047-.798-.93-1.064-1.283-.35a90 90 0 0 0-2.343 5.126 3.03 3.03 0 0 0-1.981 2.117c-.429 1.628.52 3.301 2.12 3.737s3.245-.53 3.674-2.158a3.09 3.09 0 0 0-.676-2.84c.244-1.988.397-4.024.49-5.632"/></svg>