<svg xmlns="http://www.w3.org/2000/svg" width="24" height="24" fill="none" viewBox="0 0 24 24"><path fill="#1877F2" d="M4.33 6a1 1 0 0 0-.981.817C1.983 14.272 1.75 18 1.75 18h20.5s-.233-3.728-1.599-11.183A1 1 0 0 0 19.67 6z" opacity="0.32"/><path fill="#1877F2" fill-rule="evenodd" d="M22.25 18H1.75s0 .695.051 1.675c.072 1.37 1.155 2.411 2.527 2.463 1.527.058 3.95.112 7.672.112s6.145-.054 7.672-.112c1.372-.052 2.455-1.092 2.527-2.463.051-.98.051-1.675.051-1.675" clip-rule="evenodd"/><path fill="#1877F2" d="M12 1a5 5 0 0 0-5 5h2a3 3 0 0 1 6 0h2a5 5 0 0 0-5-5"/></svg>