<svg xmlns="http://www.w3.org/2000/svg" width="24" height="24" fill="none" viewBox="0 0 24 24"><path fill="#1877F2" d="M9.43 3.53a2.9 2.9 0 0 0-2.418-1.021c-1.47.117-2.508.276-3.217.42-.853.172-1.43.854-1.522 1.727C2.143 5.892 2 8.119 2 11.916c0 3.798.143 6.025.273 7.262.091.873.668 1.554 1.521 1.727 1.337.271 3.846.595 8.206.595.93 0 1.774-.015 2.542-.04-.007-.52-.014-1.17-.02-1.975q-.354-.013-.585-.03a.47.47 0 0 1-.437-.477v-.456c0-.25.186-.46.437-.478q.227-.015.575-.029l-.008-2.03a18 18 0 0 1-.567-.03.47.47 0 0 1-.437-.477v-.456c0-.25.186-.46.437-.478q.224-.015.564-.028L14.5 13v-.515a18 18 0 0 1-.563-.03.47.47 0 0 1-.437-.477v-.456c0-.25.186-.46.437-.478q.225-.015.565-.028l.005-2.031q-.345-.013-.57-.03a.47.47 0 0 1-.437-.477v-.456c0-.25.186-.46.437-.478q.228-.015.578-.029c.005-.849.01-1.562.017-2.155h1.436c.006.592.012 1.301.017 2.147.275.006.48.018.633.03.226.017.382.205.382.432v.562c0 .227-.156.415-.382.433-.15.011-.354.023-.625.03l.005 2.013c.268.007.47.018.62.03.226.017.382.205.382.432v.562c0 .227-.156.415-.382.433-.15.011-.35.022-.618.03v2.013c.267.007.468.018.618.03.226.017.382.205.382.432v.562c0 .227-.156.415-.382.433-.15.011-.353.022-.622.03l-.008 2.013c.273.006.478.018.63.03.226.017.382.205.382.432v.562c0 .227-.156.415-.382.433a12 12 0 0 1-.64.03c-.006.767-.012 1.395-.019 1.901 2.028-.117 3.382-.315 4.247-.49.853-.173 1.43-.854 1.521-1.727.13-1.237.273-3.464.273-7.261 0-1.488-.022-2.735-.056-3.775C21.89 6.568 20.59 5.36 19.03 5.36h-7.116c-.58 0-1.132-.255-1.512-.697z" opacity="0.32"/><path fill="#1877F2" d="M15.96 21.395q-.661.04-1.418.065c-.007-.52-.014-1.17-.02-1.975q-.354-.013-.585-.03a.47.47 0 0 1-.437-.477v-.456c0-.25.186-.46.437-.478q.227-.015.575-.029l-.008-2.03a18 18 0 0 1-.567-.03.47.47 0 0 1-.437-.477v-.456c0-.25.186-.46.437-.478q.224-.015.564-.028L14.5 13v-.515a18 18 0 0 1-.563-.03.47.47 0 0 1-.437-.477v-.456c0-.25.186-.46.437-.478q.225-.015.565-.028l.005-2.031q-.345-.013-.57-.03a.47.47 0 0 1-.437-.477v-.456c0-.25.186-.46.437-.478q.228-.015.578-.029c.005-.849.01-1.562.017-2.155h1.436c.006.592.012 1.301.017 2.147.275.006.48.018.633.03.226.017.382.205.382.432v.562c0 .227-.156.415-.382.433-.15.011-.354.023-.625.03l.005 2.013c.269.007.47.018.62.03.226.017.382.205.382.432v.562c0 .227-.156.415-.382.433-.15.011-.35.022-.618.03v2.013c.267.007.468.018.618.03.226.017.382.205.382.432v.562c0 .227-.156.415-.382.433-.15.011-.353.022-.622.03l-.008 2.013c.273.006.478.018.63.03.226.017.382.205.382.432v.562c0 .227-.156.415-.382.433a12 12 0 0 1-.64.03c-.006.767-.012 1.395-.019 1.901"/></svg>