<svg xmlns="http://www.w3.org/2000/svg" width="24" height="24" fill="none" viewBox="0 0 24 24"><path fill="#1877F2" d="M2.162 8.5C2 9.603 2 11.05 2 13c0 3.771 0 5.657 1.172 6.828S6.229 21 10 21h4c3.771 0 5.657 0 6.828-1.172S22 16.771 22 13c0-1.95 0-3.397-.162-4.5-2.277 1.48-3.736 2.423-5.088 3.005V12a.75.75 0 1 1-1.5.016 12.75 12.75 0 0 1-6.5 0A.75.75 0 0 1 7.25 12v-.496C5.898 10.924 4.44 9.98 2.162 8.5" opacity="0.32"/><path fill="#1877F2" fill-rule="evenodd" d="M10.581 2.25h-.02c-.114 0-.202 0-.286.005a2.75 2.75 0 0 0-2.385 1.72 8 8 0 0 0-.12.343l-.004.012a1.63 1.63 0 0 1-.505.695q-.34.011-.652.03c-1.644.096-2.687.366-3.438 1.117-.244.244-.438.52-.59.838a.8.8 0 0 1 .166.081c2.1 1.365 3.42 2.22 4.516 2.767A.75.75 0 0 1 8.75 10v.458c2.12.64 4.38.64 6.5 0V10a.75.75 0 0 1 1.486-.142c1.097-.548 2.417-1.402 4.517-2.767a.8.8 0 0 1 .167-.081 3 3 0 0 0-.592-.838c-.75-.75-1.793-1.02-3.437-1.118q-.295-.016-.618-.028a1.9 1.9 0 0 1-.564-.774l-.004-.009c-.036-.107-.064-.191-.095-.269a2.75 2.75 0 0 0-2.671-1.724zm4.237 2.566-.005-.011-.005-.012-.005-.012-.003-.01-.002-.005-.004-.012-.004-.012-.002-.006-.003-.008-.002-.007-.002-.006q-.03-.09-.063-.181a1.25 1.25 0 0 0-1.084-.782 4 4 0 0 0-.215-.002h-2.838c-.143 0-.183 0-.215.002a1.25 1.25 0 0 0-1.084.782l-.003.007-.008.021a6 6 0 0 0-.078.23l-.001.006-.003.007-.002.008-.002.006-.004.012-.005.012-.001.005-.004.01-.005.012-.004.012-.005.01-.044.109L10 5h4.896a3 3 0 0 1-.078-.184" clip-rule="evenodd"/></svg>