<svg xmlns="http://www.w3.org/2000/svg" width="24" height="24" fill="none" viewBox="0 0 24 24"><path fill="#1877F2" d="M22 10.5c0 2.706-.073 4.826-.14 6.202-.046.936-.953 1.609-1.883 1.484-1.524-.206-4.098-.436-7.977-.436s-6.453.23-7.977.436c-.93.125-1.837-.547-1.883-1.484C2.073 15.326 2 13.206 2 10.5s.073-4.826.14-6.202c.046-.936.953-1.609 1.883-1.484C5.547 3.02 8.12 3.25 12 3.25s6.453-.23 7.977-.436c.93-.125 1.837.548 1.883 1.484.067 1.376.14 3.496.14 6.202" opacity="0.32"/><path fill="#1877F2" d="M5.591 18.01c-.307.732-.645 1.6-.934 2.49-.088.271.076.558.36.585.464.045.96.024 1.339-.008a1.33 1.33 0 0 0 1-.62A70 70 0 0 0 8.98 17.8c-1.348.047-2.47.124-3.388.209m9.43-.209a70 70 0 0 0 1.622 2.657c.225.348.588.584 1.001.62.38.032.875.053 1.339.008.284-.027.448-.314.36-.585-.29-.89-.627-1.758-.934-2.49a60 60 0 0 0-3.388-.21"/></svg>