<svg xmlns="http://www.w3.org/2000/svg" width="24" height="24" fill="none" viewBox="0 0 24 24"><path fill="#1877F2" d="M2.327 4.287c.095-.824.595-1.504 1.405-1.683C4.995 2.324 7.442 2 12 2c4.557 0 7.005.325 8.268.604.81.179 1.31.859 1.405 1.683C21.818 5.532 22 7.584 22 10c0 4.514-2.383 8.738-6.396 10.804C14.263 21.494 12.954 22 12 22s-2.263-.506-3.604-1.196C4.382 18.738 2 14.514 2 10c0-2.416.182-4.468.327-5.713" opacity="0.32"/><path fill="#1877F2" fill-rule="evenodd" d="M9.121 7.754a2.882 2.882 0 0 1 5.758 0l.06 1.343.069.006c.802.069 1.369.627 1.43 1.43.036.473.062 1.111.062 1.967s-.026 1.494-.062 1.967c-.061.803-.628 1.361-1.43 1.43C14.36 15.953 13.4 16 12 16s-2.36-.047-3.008-.103c-.802-.069-1.369-.627-1.43-1.43A26 26 0 0 1 7.5 12.5c0-.781.019-1.382.046-1.84.05-.87.65-1.487 1.515-1.564zm3.76.089.052 1.165a55 55 0 0 0-1.866 0l.052-1.165a.882.882 0 0 1 1.762 0M13 12a1 1 0 0 1-.597.915l.07.627c.018.154-.008.323-.147.392A.7.7 0 0 1 12 14a.7.7 0 0 1-.326-.066c-.14-.069-.165-.238-.147-.393l.07-.626A1 1 0 1 1 13 12" clip-rule="evenodd"/></svg>