<svg xmlns="http://www.w3.org/2000/svg" width="24" height="24" fill="none" viewBox="0 0 24 24"><path fill="#1877F2" d="M4 9.955V5a3 3 0 0 1 3-3h10a3 3 0 0 1 3 3v4.955c0 .655-.318 1.267-.866 1.626C17.442 12.69 13.71 15 12 15s-5.442-2.31-7.134-3.42A1.93 1.93 0 0 1 4 9.956" opacity="0.32"/><path fill="#1877F2" d="M3.999 6.251c-.51.378-.96.724-1.321 1.007a2.67 2.67 0 0 0-1.03 1.927c-.07 1.038-.149 2.78-.149 5.315 0 2.398.142 4.086.275 5.14.109.869.69 1.558 1.548 1.735C4.698 21.659 7.324 22 12 22s7.301-.341 8.677-.625c.857-.177 1.44-.866 1.548-1.735.133-1.054.275-2.742.275-5.14 0-2.536-.08-4.277-.149-5.315a2.67 2.67 0 0 0-1.03-1.927A67 67 0 0 0 20 6.25v3.704c0 .655-.318 1.267-.866 1.626C17.441 12.69 13.71 15 12 15s-5.442-2.31-7.134-3.42A1.93 1.93 0 0 1 4 9.955z"/><path fill="#1877F2" d="M6.999 5.75a.75.75 0 0 1 .75-.75h4.5a.75.75 0 0 1 0 1.5h-4.5a.75.75 0 0 1-.75-.75m0 3.5a.75.75 0 0 1 .75-.75h7.5a.75.75 0 0 1 0 1.5h-7.5a.75.75 0 0 1-.75-.75"/></svg>