<svg xmlns="http://www.w3.org/2000/svg" width="24" height="24" fill="none" viewBox="0 0 24 24"><path fill="#1877F2" d="M15.28 4.5H4.72C3.772 4.5 3 5.06 3 5.75S3.772 7 4.72 7h10.56C16.228 7 17 6.44 17 5.75s-.772-1.25-1.72-1.25" opacity="0.32"/><path fill="#1877F2" d="M19.28 10.75H8.72C7.772 10.75 7 11.31 7 12s.772 1.25 1.72 1.25h10.56c.948 0 1.72-.56 1.72-1.25s-.772-1.25-1.72-1.25m-4 6.25H4.72C3.772 17 3 17.56 3 18.25s.772 1.25 1.72 1.25h10.56c.948 0 1.72-.56 1.72-1.25S16.228 17 15.28 17"/></svg>