<svg xmlns="http://www.w3.org/2000/svg" width="24" height="24" fill="none" viewBox="0 0 24 24"><path fill="#1877F2" d="M3.41 2a1.25 1.25 0 0 0 0 2.5h.843a.5.5 0 0 1 .49.398c.223 1.07.855 4.061 1.362 6.102.626 2.524 1.194 4.342 1.552 5.403a3 3 0 0 1 4.312 1.543c.749.033 1.622.054 2.636.054.857 0 1.6-.015 2.24-.04a3 3 0 0 1 4.334-1.548c.353-.89.828-2.379 1.231-4.662.29-1.638.467-2.867.576-3.76C23.12 6.894 22.265 6 21.16 6H7.66l-.62-2.485A2 2 0 0 0 5.099 2z" opacity="0.32"/><path fill="#1877F2" d="M17.55 10.594a.995.995 0 1 0-1.98-.198l-.3 3.01a.995.995 0 1 0 1.98.198zm-4.8-.198a.995.995 0 1 0-1.98.198l.3 3.01a.995.995 0 1 0 1.98-.198zM16.66 19a3 3 0 1 0 6 0 3 3 0 0 0-6 0m-10.5 0a3 3 0 1 0 6 0 3 3 0 0 0-6 0"/></svg>