<svg xmlns="http://www.w3.org/2000/svg" width="36" height="36" fill="none" viewBox="0 0 36 36"><path fill="url(#a)" d="M24.623 26.961a6 6 0 0 1-1.602 2.517c-1.096 1.027-2.788 1.48-6.17 2.386s-5.075 1.361-6.538 1.019a6 6 0 0 1-3.016-1.742c-1.028-1.096-1.482-2.788-2.388-6.17l-.776-2.898c-.907-3.383-1.36-5.075-1.02-6.537a6 6 0 0 1 1.743-3.017c1.097-1.027 2.789-1.48 6.171-2.388q.958-.258 1.748-.464l-.366 1.36-.776 2.898c-.907 3.382-1.36 5.072-1.02 6.537a6 6 0 0 0 1.743 3.016c1.097 1.027 2.789 1.48 6.171 2.388 3.048.816 4.724 1.265 6.096 1.095" opacity="0.5"/><path fill="url(#b)" fill-rule="evenodd" d="m31.245 16.073-.777 2.898c-.907 3.382-1.36 5.074-2.388 6.17a6 6 0 0 1-3.015 1.742q-.218.052-.443.078c-1.372.17-3.047-.279-6.096-1.095-3.382-.907-5.074-1.36-6.17-2.388a6 6 0 0 1-1.742-3.017c-.342-1.463.111-3.154 1.018-6.536l.776-2.899.366-1.357c.683-2.499 1.142-3.875 2.022-4.815a6 6 0 0 1 3.015-1.74c1.464-.342 3.156.111 6.54 1.018 3.381.906 5.073 1.36 6.17 2.385a6 6 0 0 1 1.741 3.018c.342 1.464-.111 3.155-1.017 6.538m-14.667-1.366a1.125 1.125 0 0 1 1.378-.795l7.246 1.943a1.125 1.125 0 1 1-.584 2.172l-7.245-1.941a1.125 1.125 0 0 1-.795-1.378m-1.164 4.348a1.125 1.125 0 0 1 1.377-.796l4.347 1.166a1.125 1.125 0 1 1-.582 2.172l-4.347-1.164a1.125 1.125 0 0 1-.795-1.378" clip-rule="evenodd"/><defs><linearGradient id="a" x1="3" x2="26.2622" y1="9.66748" y2="31.2285" gradientUnits="userSpaceOnUse"><stop stop-color="#FFAB00"/><stop offset="1" stop-color="#B76E00"/></linearGradient><linearGradient id="b" x1="10.5" x2="34.3942" y1="3" y2="24.7825" gradientUnits="userSpaceOnUse"><stop stop-color="#FFAB00"/><stop offset="1" stop-color="#B76E00"/></linearGradient></defs></svg>