<svg xmlns="http://www.w3.org/2000/svg" width="36" height="36" fill="none" viewBox="0 0 36 36"><path fill="url(#a)" d="M33 21v-3.303c0-3.948 0-5.923-1.155-7.206a5 5 0 0 0-.336-.338C30.227 9 28.251 9 24.303 9h-.561c-1.73 0-2.595 0-3.402-.23a6 6 0 0 1-1.272-.527C18.336 7.836 17.724 7.223 16.5 6l-.825-.825c-.411-.411-.615-.615-.831-.795a6 6 0 0 0-3.27-1.354C11.295 3 11.004 3 10.425 3 9.1 3 8.439 3 7.887 3.105a6 6 0 0 0-4.782 4.78C3 8.44 3 9.103 3 10.426V21c0 5.657 0 8.485 1.758 10.242C6.515 33 9.344 33 15 33h6c5.657 0 8.485 0 10.242-1.758C33 29.485 33 26.657 33 21" opacity="0.5"/><path fill="url(#b)" d="M21.747 17.16a1.125 1.125 0 0 1 .095 1.587l-4 4.5a1.122 1.122 0 0 1-1.682 0l-2.001-2.25a1.125 1.125 0 0 1 1.683-1.494L17 20.808l3.16-3.555a1.125 1.125 0 0 1 1.587-.093"/><defs><linearGradient id="a" x1="3" x2="33" y1="3" y2="33" gradientUnits="userSpaceOnUse"><stop stop-color="#22C55E"/><stop offset="1" stop-color="#118D57"/></linearGradient><linearGradient id="b" x1="13.875" x2="20.4903" y1="16.8754" y2="24.9616" gradientUnits="userSpaceOnUse"><stop stop-color="#22C55E"/><stop offset="1" stop-color="#118D57"/></linearGradient></defs></svg>