<svg xmlns="http://www.w3.org/2000/svg" width="36" height="36" fill="none" viewBox="0 0 36 36"><path fill="url(#a)" d="M3 12v6c0 4.242 0 6.365 1.319 7.682.713.715 1.665 1.042 3.06 1.192.112-.15.217-.268.292-.351.174-.192.394-.41.609-.621l2.24-2.208.826-.837a6.751 6.751 0 0 1 13.308 0l.826.837 2.24 2.208c.215.211.435.429.609.621.075.082.18.201.291.351 1.396-.15 2.348-.477 3.061-1.192C33 24.365 33 22.242 33 18v-6c0-4.242 0-6.364-1.319-7.681C30.365 3 28.243 3 24 3H12C7.758 3 5.636 3 4.319 4.319 3 5.636 3 7.758 3 12" opacity="0.5"/><path fill="url(#b)" d="M10.499 13.125a1.125 1.125 0 1 0 0 2.25h15a1.125 1.125 0 0 0 0-2.25zM12.374 9a1.125 1.125 0 0 1 1.125-1.125h9a1.125 1.125 0 0 1 0 2.25h-9A1.125 1.125 0 0 1 12.374 9m1.127 14.875-.002.125a4.5 4.5 0 1 0 .002-.125m-1.988 2-1.62 1.598c-.488.48-.73.72-.815.92a.965.965 0 0 0 .39 1.22c.183.107.513.14 1.175.207.372.038.56.055.715.113a1.26 1.26 0 0 1 .75.74c.059.155.079.338.116.706.067.652.102.977.21 1.159a.99.99 0 0 0 1.236.384c.206-.084.45-.322.934-.802l1.62-1.605a6.76 6.76 0 0 1-4.711-4.64m8.259 4.64 1.62 1.605c.488.48.73.72.936.802.47.189.99.027 1.236-.384.108-.18.142-.507.21-1.158.037-.369.057-.552.116-.705a1.26 1.26 0 0 1 .75-.742c.157-.058.343-.075.715-.113.66-.067.991-.1 1.174-.207a.965.965 0 0 0 .39-1.22c-.084-.202-.326-.442-.812-.92l-1.62-1.6a6.77 6.77 0 0 1-4.715 4.642"/><defs><linearGradient id="a" x1="3" x2="26.2645" y1="3" y2="32.2341" gradientUnits="userSpaceOnUse"><stop stop-color="#8E33FF"/><stop offset="1" stop-color="#5119B7"/></linearGradient><linearGradient id="b" x1="8.99609" x2="32.7907" y1="7.875" y2="24.9248" gradientUnits="userSpaceOnUse"><stop stop-color="#8E33FF"/><stop offset="1" stop-color="#5119B7"/></linearGradient></defs></svg>