<svg xmlns="http://www.w3.org/2000/svg" width="59" height="41" fill="none" viewBox="0 0 59 41"><path fill="#fff" d="M22.143 20.924c0 .357-.172.7-.465.9-1.15.807-2.392-.007-2.392-1.1V9.296h-8.572V23.58c0 3.936 3.207 7.143 7.143 7.143 1.7 0 3.35-.607 4.643-1.714-.136 1.057-.714 1.928-1.686 2.535-.907.572-2.093.872-3.421.872a9.4 9.4 0 0 1-4.029-.929s-.228-.107-.514-.271v7.614c1.907.772 4 1.179 6.021 1.179 3.2 0 6.122-1 8.229-2.822 2.364-2.035 3.614-5.014 3.614-8.607V9.296h-8.571zM8.57 23.581V.724H0v21.429c0 5.885 3.886 8.571 7.5 8.571 1.079 0 2.157-.25 3.121-.7a4 4 0 0 0 .372-.207l-.307-.329c-1.372-1.564-2.115-3.593-2.115-5.907m50-5.714V9.296h-3.057C54.236 2.56 47.157-1.87 40.043.796c-3.965 1.478-7.186 6.214-7.186 10.45v19.478h.371a8.52 8.52 0 0 0 5.808-2.628 8.53 8.53 0 0 0 2.392-5.936H45v-8.58h-3.572v-2.357c0-.914.486-1.771 1.286-2.214 2.193-1.222 4.429.35 4.429 2.428v7.858c0 3.107 1.171 5.992 3.3 8.128 2.035 2.036 4.793 3.207 7.757 3.3h.364v-8.571a2.856 2.856 0 0 1-2.857-2.857v-1.43z"/></svg>