<svg xmlns="http://www.w3.org/2000/svg" width="134" height="41" fill="none" viewBox="0 0 134 41"><path fill="#fff" d="M20.571.01c-11.046 0-20 8.954-20 20s8.954 20 20 20 20-8.954 20-20-8.954-19.999-20-20m9.173 28.845a1.246 1.246 0 0 1-1.715.414c-4.695-2.87-10.607-3.518-17.569-1.928a1.245 1.245 0 0 1-1.493-.937 1.244 1.244 0 0 1 .938-1.494c7.618-1.74 14.153-.99 19.425 2.23.587.362.774 1.128.414 1.715m2.447-5.444a1.56 1.56 0 0 1-2.146.513c-5.374-3.304-13.57-4.26-19.929-2.331a1.56 1.56 0 0 1-1.946-1.039 1.56 1.56 0 0 1 1.04-1.944c7.263-2.204 16.293-1.137 22.466 2.657.734.451.966 1.41.515 2.144m.21-5.672c-6.447-3.828-17.081-4.18-23.236-2.313a1.87 1.87 0 1 1-1.085-3.58c7.065-2.144 18.809-1.73 26.23 2.675a1.87 1.87 0 0 1-1.91 3.218m22.583.734c-3.453-.823-4.068-1.401-4.068-2.616 0-1.148 1.08-1.919 2.687-1.919 1.557 0 3.1.587 4.72 1.793.05.037.111.05.171.041a.22.22 0 0 0 .149-.092l1.685-2.378a.226.226 0 0 0-.042-.307c-1.927-1.546-4.096-2.298-6.632-2.298-3.729 0-6.333 2.238-6.333 5.438 0 3.434 2.247 4.649 6.13 5.587 3.303.762 3.861 1.4 3.861 2.539 0 1.264-1.127 2.048-2.942 2.048-2.016 0-3.66-.68-5.498-2.272a.227.227 0 0 0-.322.024l-1.89 2.251a.225.225 0 0 0 .021.314c2.14 1.91 4.771 2.92 7.613 2.92 4.017 0 6.613-2.197 6.613-5.594.007-2.868-1.71-4.457-5.916-5.479zm15.013-3.405c-1.741 0-3.17.687-4.348 2.09v-1.58a.226.226 0 0 0-.226-.227H62.33a.227.227 0 0 0-.226.226v17.578c0 .125.1.226.226.226h3.093a.23.23 0 0 0 .226-.226v-5.55c1.178 1.323 2.607 1.969 4.348 1.969 3.236 0 6.511-2.49 6.511-7.252.006-4.763-3.272-7.255-6.508-7.255zm2.917 7.254c0 2.425-1.493 4.117-3.633 4.117-2.114 0-3.71-1.769-3.71-4.117s1.596-4.118 3.71-4.118c2.104 0 3.633 1.732 3.633 4.118m11.99-7.254c-4.168 0-7.432 3.209-7.432 7.307 0 4.053 3.243 7.227 7.38 7.227 4.182 0 7.457-3.197 7.457-7.279.002-4.068-3.252-7.255-7.405-7.255m0 11.394c-2.216 0-3.888-1.78-3.888-4.142 0-2.372 1.613-4.091 3.836-4.091 2.232 0 3.913 1.78 3.913 4.143.001 2.37-1.623 4.09-3.86 4.09m16.306-11.111h-3.402v-3.48a.227.227 0 0 0-.225-.226h-3.091a.227.227 0 0 0-.227.227v3.479h-1.486a.227.227 0 0 0-.225.226v2.657c0 .124.1.227.225.227h1.486v6.875c0 2.779 1.382 4.187 4.11 4.187 1.11 0 2.03-.229 2.896-.72a.23.23 0 0 0 .115-.197v-2.53a.227.227 0 0 0-.328-.203c-.595.3-1.17.438-1.815.438-.992 0-1.434-.45-1.434-1.46v-6.39h3.402a.226.226 0 0 0 .226-.227v-2.657a.22.22 0 0 0-.223-.226zm11.855.013v-.427c0-1.257.482-1.818 1.563-1.818.644 0 1.163.129 1.743.322a.224.224 0 0 0 .296-.216V10.62c0-.1-.064-.188-.16-.217a8.5 8.5 0 0 0-2.57-.37c-2.856 0-4.365 1.608-4.365 4.65v.654h-1.487a.227.227 0 0 0-.226.226v2.67c0 .125.102.227.226.227h1.487v10.607c0 .126.101.227.225.227h3.092a.227.227 0 0 0 .227-.227V18.461h2.886l4.422 10.604c-.502 1.113-.996 1.336-1.669 1.336-.545 0-1.119-.163-1.705-.483a.227.227 0 0 0-.314.105l-1.048 2.3a.224.224 0 0 0 .097.291c1.095.593 2.081.845 3.303.845 2.283 0 3.545-1.063 4.658-3.925l5.364-13.861a.226.226 0 0 0-.21-.308h-3.219a.23.23 0 0 0-.214.15l-3.298 9.42-3.612-9.425a.23.23 0 0 0-.212-.146zm-6.874-.013h-3.092a.227.227 0 0 0-.227.226v13.49c0 .126.103.227.227.227h3.092a.23.23 0 0 0 .227-.227V15.58a.23.23 0 0 0-.227-.228q.001 0 0 0m-1.528-6.143a2.217 2.217 0 1 0-.004 4.434 2.217 2.217 0 0 0 .004-4.434m27.088 10.48a2.166 2.166 0 0 1-2.175-2.177c0-1.194.965-2.188 2.187-2.188 1.225 0 2.176.983 2.176 2.176a2.19 2.19 0 0 1-2.188 2.189m.011-4.148c-1.115 0-1.958.886-1.958 1.971s.838 1.958 1.946 1.958c1.115 0 1.958-.885 1.958-1.97.001-1.084-.836-1.959-1.946-1.959m.483 2.183.616.86h-.519l-.554-.79h-.476v.79h-.434V16.3h1.018c.531 0 .88.272.88.729.003.374-.216.603-.528.693zm-.368-1.03h-.567v.721h.567c.282 0 .451-.138.451-.362 0-.234-.169-.36-.451-.36"/></svg>