<svg xmlns="http://www.w3.org/2000/svg" width="98" height="41" fill="none" viewBox="0 0 98 41"><path fill="#fff" d="M17.767.424H28.57V39.55H17.767V25.067H10.87V39.55H.065V.424H10.87v14.758h6.897zm79.31 19.586c0 11.034-8.966 20-20 20-8.483 0-15.747-5.31-18.644-12.759.023.253.023.529.023.805 0 11.954-10.345 11.494-10.345 11.494H30.87V.424h16.552c2.988 0 11.494 1.632 11.494 10 0 .46-.023.896-.046 1.31C62.02 4.814 69.008.01 77.077.01c11.034 0 20 8.965 20 20M48.57 27.136c0-2.758-2.299-2.758-2.299-2.758h-5.747v5.977h5.747s2.3-.23 2.3-3.219m0-14.368c0-2.827-2.299-2.804-2.299-2.804h-5.747v5.908h5.747s2.3-.276 2.3-3.104m8.759 10.368a20 20 0 0 1-.253-3.126c0-1.058.092-2.07.23-3.08-1.15 1.723-2.759 2.436-4.138 2.689s2.23.138 4.16 3.517m29.632-3.126c0-5.449-4.437-9.885-9.885-9.885s-9.885 4.437-9.885 9.885 4.437 9.885 9.885 9.885 9.885-4.437 9.885-9.885m-9.885-8.046c-4.437 0-8.046 3.609-8.046 8.046s3.61 8.046 8.046 8.046c4.437 0 8.046-3.61 8.046-8.046 0-4.437-3.61-8.046-8.046-8.046"/></svg>