<svg xmlns="http://www.w3.org/2000/svg" width="133" height="41" fill="none" viewBox="0 0 133 41"><path fill="#fff" fill-rule="evenodd" d="M76.948 1.379v3.032c0 .39.39.684.782.782h7.041l-8.117 11.638c-.489.783-.489 1.565-.489 2.054v3.032c0 .489.49.88.978.684 4.597-2.444 10.171-2.151 14.279 0 .489.294.978-.195.978-.684v-3.228c0-.39-.196-.88-.685-1.173-2.347-1.37-5.085-1.663-7.726-1.663l7.042-9.975.22-.366c.463-.763.758-1.25.758-1.59V1.379c0-.391-.391-.782-.783-.782H77.73c-.489 0-.782.293-.782.782m-53.399 21.81h4.108c.39 0 .782-.294.586-.685V11.018c-.003-2.507-.006-5.63 2.837-5.63 2.634 0 2.588 2.838 2.55 5.117q-.007.391-.008.752v11.247c0 .39.392.782.783.782h4.107c.392 0 .783-.391.783-.782V11.257c0-1.272 0-3.032.39-4.108.392-1.076 1.468-1.76 2.446-1.76 1.271 0 2.151.489 2.445 1.858.154.692.126 2.228.107 3.282-.005.288-.01.54-.01.728v11.247c0 .39.392.782.783.782h4.108c.39 0 .782-.391.782-.782V9.105q.002-.555.015-1.12c.039-2.008.078-4.047-.993-5.53C48.194.792 46.336.108 44.576.108c-2.445 0-4.694 1.271-5.672 3.912C37.828 1.379 36.165.108 33.622.108c-2.445 0-4.4 1.271-5.379 3.912h-.097V1.28c-.098-.391-.392-.684-.783-.684H23.55c-.391 0-.782.39-.782.782v21.125c.097.39.39.684.782.684M94.454 11.94C94.356 5.291 97.68.205 103.647.205c6.161 0 9.486 5.184 9.389 11.932 0 6.455-3.619 11.54-9.389 11.54-5.966 0-9.193-5.183-9.193-11.736m6.063-.458c-.003 2.715-.008 7.891 3.13 7.891 3.129 0 3.325-4.499 3.423-7.237 0-1.76-.098-3.912-.587-5.575-.489-1.467-1.467-2.053-2.738-2.053-3.032 0-3.228 4.205-3.228 6.748zm16.333 11.705h4.107c.489 0 .881-.293.881-.684V11.06c0-1.467.097-2.738.684-4.01.391-.978 1.369-1.662 2.347-1.662 2.599 0 2.57 2.79 2.547 5.063l-.004.61v11.442c.098.39.391.684.782.684h4.01c.391 0 .783-.293.783-.684v-13.3c0-2.054 0-4.89-1.076-6.553-1.174-1.76-2.934-2.445-4.792-2.445-2.836 0-4.401 1.272-5.575 4.206h-.098V1.183c-.097-.293-.391-.586-.782-.586h-3.814c-.391 0-.783.293-.783.684v21.125c0 .391.392.782.783.782m-43.53-4.093.205.28c.293.39.293.88-.098.977-.44.342-1.027.856-1.614 1.37-.587.513-1.174 1.026-1.614 1.368-.293.196-.684.294-.978.098-1.048-.823-1.408-1.36-1.87-2.05a21 21 0 0 0-.477-.688c-2.25 2.347-3.814 3.032-6.748 3.032-3.423 0-6.161-2.152-6.161-6.357 0-3.423 1.858-5.673 4.4-6.748 1.86-.809 4.32-1.083 6.443-1.319.445-.05.876-.098 1.284-.148v-.49l.003-.368c.01-.894.023-1.891-.492-2.663-.49-.783-1.37-1.076-2.25-1.076-1.564 0-3.031.782-3.325 2.445-.098.391-.293.782-.684.782l-4.01-.39c-.294-.099-.685-.392-.587-.881.978-4.792 5.281-6.26 9.193-6.26 2.054 0 4.695.49 6.162 2.055 1.888 1.798 1.875 4.009 1.86 6.481l-.002.658v6.357c0 1.695.651 2.577 1.36 3.535m-10.749.28c1.174 0 2.152-.686 2.836-1.86.783-1.466.783-2.835.783-4.4v-.88c-3.032 0-6.162.587-6.162 4.107 0 1.859.978 3.032 2.543 3.032m-43.237-.28.205.28c.294.39.391.88 0 .977-.44.342-1.027.856-1.613 1.37-.587.513-1.174 1.026-1.614 1.368-.294.196-.685.294-.978.098-1.048-.823-1.409-1.36-1.871-2.05a21 21 0 0 0-.476-.688c-2.25 2.347-3.815 3.032-6.748 3.032-3.423 0-6.162-2.152-6.162-6.357 0-3.423 1.858-5.673 4.401-6.748 1.86-.809 4.32-1.083 6.442-1.319.446-.05.877-.098 1.284-.148v-.49l.003-.368c.011-.894.023-1.891-.492-2.663-.489-.783-1.369-1.076-2.25-1.076-1.564 0-3.03.782-3.324 2.445-.098.391-.294.782-.685.782l-4.01-.39c-.39-.099-.684-.294-.586-.881.978-4.792 5.28-6.26 9.193-6.26 1.956 0 4.596.49 6.063 2.055 1.888 1.798 1.875 4.009 1.861 6.482l-.003.657v6.357c0 1.695.652 2.577 1.36 3.535m-10.65.28c1.173 0 2.151-.686 2.836-1.86.782-1.466.782-2.835.782-4.4v-.88c-3.032 0-6.161.587-6.161 4.107 0 1.859.978 3.032 2.543 3.032m45.38 20.635c9.682 0 20.832-3.032 28.558-8.704 1.271-.88.195-2.348-1.174-1.859-8.606 3.717-18.093 5.477-26.601 5.477-12.714 0-25.037-3.423-34.915-9.193-.88-.587-1.467.293-.782.978 9.29 8.313 21.418 13.3 34.914 13.3m22.869-12.724c2.484-.298 7.949-.954 8.916.303.914 1.28-.906 5.891-1.866 8.325l-.188.477c-.293.685.294.978.978.49 4.206-3.424 5.282-10.759 4.401-11.737-.88-.978-8.117-1.956-12.518 1.174-.685.391-.587 1.076.196.978z" clip-rule="evenodd"/></svg>