<svg xmlns="http://www.w3.org/2000/svg" width="149" height="41" fill="none" viewBox="0 0 149 41"><path fill="#fff" d="M126.571 37.366c2.069.23 4.138.46 6.092.69l4.482-11.15 4.253 12.184c2.184.23 4.368.575 6.552.92l-7.471-21.38L148.065.01h-6.322l-.115.115-4.023 10L134.042.01h-6.322l6.437 18.39zm-4.828-.46V.01h-6.322v36.437c2.184.114 4.253.344 6.322.46m-47.241-2.069h5.057V21.39h7.586v-5.747H79.56V5.757h8.736V.01H73.352v34.827zm-19.426.345c2.07-.115 4.138-.115 6.322-.23V5.757h5.862V.01H49.214v5.747h5.862zM6.916 39.09V17.136l7.47 21.15 6.897-.69V.01h-5.977v22.758L7.26.01H.938v39.885c2.07-.23 4.023-.46 5.977-.805M43.121 5.757V.01H28.065v36.896c4.942-.46 10-.804 14.942-1.034v-5.747c-2.873.115-5.747.345-8.735.574v-9.31h7.586v-5.747h-7.586V5.757zm57.702 24.023V.01h-6.322v35.287c5.057.23 10 .46 15.057.805v-5.747c-2.988-.345-5.862-.46-8.735-.575"/></svg>