<svg xmlns="http://www.w3.org/2000/svg" width="100" height="41" fill="none" viewBox="0 0 100 41"><path fill="#fff" d="M0 .01v2.727h19.432V.01zm22.273 0v2.727H50S47.16.01 43.41.01zm33.182 0v2.727h16.818L71.136.01zm28.75 0-1.023 2.727h16.59V.01zM0 5.35v2.728h19.432V5.35zm22.273 0v2.728h30.909s-.341-2.16-1.023-2.727zm33.182 0v2.728H74.09l-.91-2.727zm26.818 0-.91 2.728h18.523V5.35zM5.568 10.693v2.727h8.41v-2.727zm22.273 0v2.727h8.409v-2.727zm16.59 0v2.727h8.41s.568-1.477.568-2.727zm16.592 0v2.727h15L75 10.692zm19.318 0-1.023 2.727h15v-2.727zm-74.773 5.34v2.728h8.41v-2.728zm22.273 0v2.728h21.477s1.818-1.364 2.387-2.728zm33.182 0v2.728h8.409v-1.478L70 18.76h15.454l.569-1.478v1.478h8.409v-2.728H78.636l-.795 2.273-.796-2.273zM5.568 21.26v2.727h8.41V21.26zm22.273 0v2.727h23.864c-.569-1.364-2.387-2.727-2.387-2.727zm33.182 0v2.727h8.409V21.26zm9.886 0 1.023 2.727h11.59l1.023-2.727zm15.114 0v2.727h8.409V21.26zM5.568 26.6v2.728h8.41V26.6zm22.273 0v2.728h8.409V26.6zm16.59 0v2.728h8.978c0-1.25-.568-2.727-.568-2.727zm16.592 0v2.728h8.409V26.6zm11.818 0 1.023 2.728h7.727l1.023-2.727zm13.182 0v2.728h8.409V26.6zM.113 31.943v2.727h19.433v-2.727zm22.16 0v2.727h30c.681-.682 1.022-2.727 1.022-2.727zm33.295 0v2.727h13.864v-2.727zm19.205 0 1.022 2.727h3.978l.909-2.727zm11.25 0v2.727H100v-2.727zm-85.91 5.34v2.728h19.433v-2.727zm22.16 0v2.728h21.136c3.75 0 6.591-2.727 6.591-2.727zm33.295 0v2.728h13.864v-2.727zm21.136 0 1.023 2.728h.114l1.023-2.727zm9.319 0v2.728H100v-2.727z"/></svg>