<svg xmlns="http://www.w3.org/2000/svg" width="48" height="49" fill="none" viewBox="0 0 48 49"><path fill="#00B8D9" d="M9.047 27.41V13.309c0-4.744 3.836-8.59 8.57-8.59h-5.219a8.594 8.594 0 0 0-8.593 8.593v14.094A8.594 8.594 0 0 0 12.398 36h5.218c-4.732 0-8.57-3.846-8.57-8.59" opacity="0.48"/><path fill="#003768" d="M32.25 44.594h-16.5c-2.278-.085-2.276-3.354 0-3.438h16.5c2.278.085 2.276 3.354 0 3.438m3.438-6.875H12.31C6.625 37.719 2 33.093 2 27.409V13.312C2 7.626 6.626 3 12.313 3h23.374C41.375 3 46 7.626 46 13.313v14.093c0 5.687-4.626 10.313-10.312 10.313M12.311 6.438a6.883 6.883 0 0 0-6.874 6.875v14.095a6.88 6.88 0 0 0 6.873 6.873h23.377a6.883 6.883 0 0 0 6.874-6.875V13.313a6.883 6.883 0 0 0-6.874-6.876z"/><path fill="#00B8D9" d="M22.11 29.04a1.72 1.72 0 0 1-1.652-2.195l3.953-13.75a1.72 1.72 0 0 1 3.304.95l-3.953 13.75a1.72 1.72 0 0 1-1.651 1.244m10.312-1.72a1.719 1.719 0 0 1-1.206-2.944l3.366-3.311c.334-.361.334-.835-.003-1.197l-3.37-3.362a1.719 1.719 0 1 1 2.427-2.434l3.37 3.363c1.67 1.596 1.67 4.47 0 6.067l-.008.008-3.37 3.317c-.335.329-.77.493-1.206.493m-16.672 0c-.435 0-.87-.164-1.205-.493l-3.37-3.317-.008-.008c-1.67-1.597-1.67-4.472 0-6.068l3.37-3.362a1.719 1.719 0 0 1 2.427 2.434l-3.37 3.362c-.337.361-.338.835-.003 1.197l3.365 3.311a1.719 1.719 0 0 1-1.206 2.944"/></svg>