<svg xmlns="http://www.w3.org/2000/svg" width="48" height="49" fill="none" viewBox="0 0 48 49"><path fill="#00AB55" d="M34.348 38.342a10.7 10.7 0 0 1-2.93-5.474l-1.286-7.01c-.162-.04-5.359-1.085-5.359-1.085l.974 4.87a10.7 10.7 0 0 0 2.93 5.474l7.829 7.83 1.224-1.223z" opacity="0.48"/><path fill="#00AB55" d="M36.333 27.46a12.4 12.4 0 0 0-6.353-3.399l-4.87-.973a1.718 1.718 0 0 0-2.022 2.022l.973 4.87a12.4 12.4 0 0 0 3.4 6.353l7.83 7.83A6.23 6.23 0 0 0 39.727 46a6.23 6.23 0 0 0 4.436-1.838A6.23 6.23 0 0 0 46 39.727a6.23 6.23 0 0 0-1.837-4.436zm5.399 14.272a2.82 2.82 0 0 1-2.005.83 2.82 2.82 0 0 1-2.006-.83l-7.83-7.83a8.96 8.96 0 0 1-2.459-4.596l-.468-2.342 2.342.468a8.96 8.96 0 0 1 4.596 2.46l7.83 7.83c.535.535.83 1.247.83 2.005s-.294 1.47-.83 2.005"/><path fill="#005249" d="M17.21 5.438h-5.193c-.71-2-2.62-3.438-4.86-3.438A5.16 5.16 0 0 0 2 7.156a5.165 5.165 0 0 0 3.438 4.86v5.109a1.719 1.719 0 1 0 3.437 0v-5.108a5.18 5.18 0 0 0 3.142-3.142h5.194a1.719 1.719 0 1 0 0-3.437M7.157 8.875a1.72 1.72 0 0 1-1.718-1.719 1.72 1.72 0 0 1 1.718-1.718 1.72 1.72 0 0 1 1.719 1.718 1.72 1.72 0 0 1-1.719 1.719m23.547 0h5.28a5.18 5.18 0 0 0 3.142 3.142v5.108a1.719 1.719 0 1 0 3.438 0v-5.108c2-.71 3.437-2.62 3.437-4.86A5.16 5.16 0 0 0 40.844 2a5.165 5.165 0 0 0-4.86 3.438h-5.28a1.719 1.719 0 0 0 0 3.437m10.14-3.437a1.72 1.72 0 0 1 1.72 1.718 1.72 1.72 0 0 1-1.72 1.719 1.72 1.72 0 0 1-1.718-1.719 1.72 1.72 0 0 1 1.719-1.718M17.212 39.125h-5.194a5.18 5.18 0 0 0-3.142-3.142V30.79a1.719 1.719 0 1 0-3.437 0v5.194c-2 .71-3.438 2.62-3.438 4.86A5.16 5.16 0 0 0 7.156 46a5.165 5.165 0 0 0 4.86-3.437h5.195a1.719 1.719 0 1 0 0-3.438M7.156 42.563a1.72 1.72 0 0 1-1.718-1.72 1.72 1.72 0 0 1 1.718-1.718 1.72 1.72 0 0 1 1.719 1.719 1.72 1.72 0 0 1-1.719 1.718"/><path fill="#00AB55" d="M26.063 7.156a2.148 2.148 0 1 1-4.297 0 2.148 2.148 0 0 1 4.297 0m-2.149 31.54a2.148 2.148 0 1 0 0 4.296 2.148 2.148 0 0 0 0-4.297m16.93-16.673a2.148 2.148 0 1 0 0 4.297 2.148 2.148 0 0 0 0-4.297m-33.688 0a2.148 2.148 0 1 0 0 4.297 2.148 2.148 0 0 0 0-4.297"/></svg>