<svg xmlns="http://www.w3.org/2000/svg" width="48" height="49" fill="none" viewBox="0 0 48 49"><path fill="#FFAB00" d="m17.298 43.838-.263.432s-11.684.602-11.684-7.13c0-7.905 10.234-11.367 13.402-12.458.692-.239 1.927-.586 3.433-1.066q.338.715.657 1.438c-3.935 1.408-12.337 4.923-12.337 12.086 0 4.286 3.591 6.011 6.792 6.698m11.804-.612 1.622-7.346a10.7 10.7 0 0 1 2.928-5.474l3.042-3.041a4.54 4.54 0 0 0-3.634 1.314l-5.25 5.25a10.7 10.7 0 0 0-2.929 5.473l-.973 4.868s5.086-1.019 5.194-1.044" opacity="0.48"/><path fill="#FFAB00" d="M44.151 24.027a6.23 6.23 0 0 0-4.435-1.837 6.23 6.23 0 0 0-4.435 1.837l-8.686 8.687a12.4 12.4 0 0 0-3.4 6.351l-.972 4.868a1.718 1.718 0 0 0 2.022 2.022l4.868-.973a12.4 12.4 0 0 0 6.351-3.399l8.687-8.686a6.23 6.23 0 0 0 1.837-4.435 6.23 6.23 0 0 0-1.837-4.435m-2.43 6.44-8.687 8.686a8.96 8.96 0 0 1-4.595 2.459l-2.341.468.468-2.341a8.96 8.96 0 0 1 2.459-4.595l8.686-8.687a2.82 2.82 0 0 1 2.005-.83c.757 0 1.47.295 2.005.83s.83 1.247.83 2.005-.294 1.47-.83 2.005"/><path fill="#7A4100" d="M20.545 25.91c-.501.158-1.01.32-1.307.422-3.01 1.037-12.169 4.19-12.169 10.807 0 1.28.414 2.295 1.265 3.106 2.236 2.13 6.979 2.389 8.616 2.31a1.718 1.718 0 0 1 .174 3.431c-.05.003-.29.014-.672.014-1.903 0-7.34-.276-10.48-3.259-1.552-1.474-2.34-3.359-2.34-5.602 0-2.168.65-4.21 1.929-6.068 1.021-1.483 2.457-2.86 4.269-4.09 3.114-2.116 6.685-3.346 8.364-3.924.341-.117.795-.26 1.32-.425 2.347-.738 6.274-1.973 9.643-3.849 3.7-2.06 5.577-4.25 5.577-6.505 0-2.574-1.22-4.2-2.243-5.11-1.181-1.052-2.796-1.731-4.115-1.731a1.718 1.718 0 1 1 0-3.437c2.178 0 4.57.972 6.4 2.6 2.189 1.948 3.395 4.675 3.395 7.678 0 8.09-12.352 11.973-17.626 13.632M11.45 12.654c-3.618 0-5.83-1.537-7.048-2.826C2.876 8.212 2 5.985 2 3.718a1.718 1.718 0 1 1 3.437 0c0 2.649 1.882 5.499 6.014 5.499 2.968 0 4.843-1.474 7.013-3.18.673-.53 1.368-1.077 2.114-1.59a1.718 1.718 0 0 1 1.95 2.83c-.657.452-1.28.942-1.94 1.46-2.334 1.836-4.979 3.916-9.137 3.916"/></svg>