<svg xmlns="http://www.w3.org/2000/svg" width="120" height="120" fill="none" viewBox="0 0 120 120"><g opacity="0.48"><path fill="#919EAB" fill-rule="evenodd" d="m21.19 86.066 1.456 1.456 1.46-1.46.624.624-1.46 1.46 1.456 1.455-.625.626-1.457-1.456-1.46 1.46-.623-.624 1.46-1.46-1.457-1.456zm66.048-73.298 1.456 1.455 1.46-1.46.624.624-1.46 1.46 1.456 1.455-.626.626-1.456-1.456-1.46 1.46-.624-.624 1.46-1.459-1.456-1.456z" clip-rule="evenodd" opacity="0.48"/><path fill="#919EAB" d="M61.478 104.835a1.46 1.46 0 0 1 2.064 0l1.039 1.039a1.46 1.46 0 0 1 0 2.068l-1.04 1.04a1.46 1.46 0 0 1-2.063 0l-1.039-1.039a1.46 1.46 0 0 1-.318-1.595c.073-.177.181-.338.317-.473z" opacity="0.72"/><path fill="#919EAB" fill-rule="evenodd" d="m96.698 39.04-1.04 1.04-.438-.44.437.441a.22.22 0 0 0-.047.237q.016.04.047.071l.002.001 1.039 1.04a.22.22 0 0 0 .31 0l1.04-1.041a.22.22 0 0 0 0-.308v-.001l-1.04-1.04a.22.22 0 0 0-.31 0m-1.917.161 1.04-1.04a1.46 1.46 0 0 1 2.064 0v.001l1.039 1.038v.001a1.457 1.457 0 0 1 0 2.068l-1.04 1.04a1.46 1.46 0 0 1-2.063 0l-1.039-1.04a1.46 1.46 0 0 1 0-2.068" clip-rule="evenodd"/><path fill="#919EAB" fill-rule="evenodd" d="M104.552 66.317a.93.93 0 0 1 1.133 1.133l-.576 3.091c-.047.243-.2.592-.587.711-.387.12-.71-.084-.884-.259l-2.629-2.628c-.178-.176-.381-.5-.261-.888.12-.387.471-.54.716-.585h.001zm-.104 1.237-2.157.401 1.755 1.755z" clip-rule="evenodd" opacity="0.48"/><path fill="#637381" fill-rule="evenodd" d="M102.46 94.266a.93.93 0 0 1 1.132 1.132l-.576 3.092c-.046.242-.199.592-.586.71-.388.12-.71-.084-.885-.258l-2.628-2.628c-.178-.177-.381-.5-.261-.888s.47-.54.716-.585h.001zm-.104 1.236-2.157.402 1.755 1.755zM12.5 72.473a.92.92 0 1 0 0 1.84.92.92 0 0 0 0-1.84m-1.389-1.16a2.5 2.5 0 1 1 2.779 4.159 2.5 2.5 0 0 1-2.779-4.159m43.431-52.911a.919.919 0 1 0 0 1.838.919.919 0 0 0 0-1.838m-1.389-1.16a2.501 2.501 0 0 1 3.468 3.468 2.5 2.5 0 1 1-3.468-3.468" clip-rule="evenodd" opacity="0.8"/></g><g opacity="0.48"><g filter="url(#a)"><path fill="#DFE3E8" d="M28.308 51.009c.418-1.869 2.227-2.728 4.14-2.823 3.814-.189 11.929-.451 27.552-.451s23.738.262 27.552.451c1.912.095 3.722.954 4.14 2.823.181.806.308 1.833.308 3.126s-.127 2.32-.308 3.125c-.418 1.869-2.227 2.728-4.14 2.823-3.814.189-11.929.452-27.552.452s-23.738-.263-27.552-.452c-1.913-.095-3.722-.954-4.14-2.823-.181-.806-.308-1.832-.308-3.125s.127-2.32.308-3.126"/></g><path fill="#C4CDD5" d="M62.96 68.775c-.047-.622-.3-1.225-.873-1.47-.454-.195-1.129-.37-2.087-.37-.946 0-1.615.17-2.07.361-.584.247-.84.862-.886 1.495-.153 2.17-.453 7.608-.02 12.33.056.606.309 1.19.865 1.434.455.199 1.136.38 2.11.38.959 0 1.634-.175 2.088-.37.573-.245.829-.85.88-1.47.44-5.224.15-10.276-.006-12.32m14.559.592c.07-1.009-.456-1.992-1.436-2.24-1.336-.339-2.579-.174-3.476.068-.924.25-1.508 1.087-1.665 2.03-.883 5.326-1.185 9.227-1.29 11.276-.05 1.01.482 1.993 1.463 2.242 1.309.331 2.528.18 3.421-.054.957-.252 1.55-1.132 1.69-2.111.842-5.888 1.168-9.386 1.294-11.21m-35.042-.001c-.07-1.009.456-1.992 1.437-2.24 1.336-.339 2.578-.174 3.476.068.924.25 1.507 1.087 1.664 2.03.883 5.326 1.186 9.227 1.29 11.276.05 1.01-.482 1.993-1.462 2.242-1.31.331-2.53.18-3.422-.054-.957-.252-1.549-1.132-1.69-2.111-.842-5.888-1.167-9.386-1.293-11.21" opacity="0.48"/><g filter="url(#b)"><path fill="#919EAB" fill-rule="evenodd" d="M31.832 60.025c.693 5.678 2.01 14.69 4.198 23.54a8.61 8.61 0 0 0 7.498 6.522c4.025.415 9.816.848 16.472.848s12.447-.433 16.473-.848a8.61 8.61 0 0 0 7.497-6.522c2.189-8.85 3.505-17.862 4.199-23.54q-.306.043-.617.058c-3.814.189-11.929.452-27.552.452s-23.738-.263-27.552-.452a7 7 0 0 1-.617-.058m30.255 7.28c.573.245.827.848.874 1.47.156 2.044.446 7.096.007 12.32-.052.62-.308 1.225-.88 1.47-.455.195-1.13.37-2.088.37-.974 0-1.656-.181-2.11-.38-.557-.243-.81-.828-.865-1.433-.433-4.723-.134-10.16.02-12.33.045-.634.3-1.249.886-1.496.454-.191 1.124-.361 2.07-.361.957 0 1.632.175 2.087.37m13.997-.178c.98.248 1.507 1.231 1.437 2.24-.126 1.825-.451 5.323-1.294 11.211-.14.98-.732 1.86-1.69 2.11-.892.235-2.112.386-3.42.055-.982-.249-1.514-1.231-1.463-2.242.104-2.049.407-5.95 1.29-11.275.156-.944.74-1.781 1.664-2.03.897-.243 2.14-.408 3.476-.07m-33.605 2.24c-.07-1.009.456-1.992 1.437-2.24 1.336-.339 2.579-.174 3.476.068.924.25 1.508 1.087 1.664 2.031.884 5.325 1.186 9.226 1.29 11.275.051 1.01-.481 1.993-1.462 2.242-1.31.332-2.529.18-3.422-.054-.956-.251-1.548-1.132-1.689-2.111-.843-5.888-1.168-9.386-1.294-11.21" clip-rule="evenodd"/></g><g fill="#919EAB" filter="url(#c)" opacity="0.48"><path d="M40.35 47.92c4.04-.091 9.448-.165 16.598-.182-.431-1.055-1.122-2.05-1.995-2.885-3.587-3.427-9.177-8.622-14.95-13.421-2.045-1.7-5.045-2.005-7.06-.268a7 7 0 0 0-.371.341 7 7 0 0 0-.342.371c-1.736 2.015-1.432 5.015.268 7.061a267 267 0 0 0 7.852 8.984m39.3-.001a266 266 0 0 0 7.852-8.983c1.7-2.045 2.005-5.046.268-7.06a7 7 0 0 0-.341-.372 7 7 0 0 0-.371-.341c-2.016-1.737-5.016-1.433-7.061.268-5.772 4.799-11.363 9.994-14.95 13.42-.873.835-1.564 1.831-1.995 2.886 7.15.017 12.558.09 16.598.182"/></g></g><defs><filter id="a" width="96" height="44.8" x="20" y="39.7346" color-interpolation-filters="sRGB" filterUnits="userSpaceOnUse"><feFlood flood-opacity="0" result="BackgroundImageFix"/><feColorMatrix in="SourceAlpha" result="hardAlpha" values="0 0 0 0 0 0 0 0 0 0 0 0 0 0 0 0 0 0 127 0"/><feOffset dx="8" dy="8"/><feGaussianBlur stdDeviation="8"/><feColorMatrix values="0 0 0 0 0.270588 0 0 0 0 0.309804 0 0 0 0 0.356863 0 0 0 0.16 0"/><feBlend in2="BackgroundImageFix" result="effect1_dropShadow_2575_2853367"/><feBlend in="SourceGraphic" in2="effect1_dropShadow_2575_2853367" result="shape"/><feColorMatrix in="SourceAlpha" result="hardAlpha" values="0 0 0 0 0 0 0 0 0 0 0 0 0 0 0 0 0 0 127 0"/><feOffset dx="-2"/><feGaussianBlur stdDeviation="2"/><feComposite in2="hardAlpha" k2="-1" k3="1" operator="arithmetic"/><feColorMatrix values="0 0 0 0 0.270588 0 0 0 0 0.309804 0 0 0 0 0.356863 0 0 0 0.48 0"/><feBlend in2="shape" result="effect2_innerShadow_2575_2853367"/></filter><filter id="b" width="88.3372" height="62.9097" x="23.8315" y="52.0251" color-interpolation-filters="sRGB" filterUnits="userSpaceOnUse"><feFlood flood-opacity="0" result="BackgroundImageFix"/><feColorMatrix in="SourceAlpha" result="hardAlpha" values="0 0 0 0 0 0 0 0 0 0 0 0 0 0 0 0 0 0 127 0"/><feOffset dx="8" dy="8"/><feGaussianBlur stdDeviation="8"/><feColorMatrix values="0 0 0 0 0.270588 0 0 0 0 0.309804 0 0 0 0 0.356863 0 0 0 0.16 0"/><feBlend in2="BackgroundImageFix" result="effect1_dropShadow_2575_2853367"/><feBlend in="SourceGraphic" in2="effect1_dropShadow_2575_2853367" result="shape"/><feColorMatrix in="SourceAlpha" result="hardAlpha" values="0 0 0 0 0 0 0 0 0 0 0 0 0 0 0 0 0 0 127 0"/><feOffset dx="-2" dy="-2"/><feGaussianBlur stdDeviation="2"/><feComposite in2="hardAlpha" k2="-1" k3="1" operator="arithmetic"/><feColorMatrix values="0 0 0 0 0.270588 0 0 0 0 0.309804 0 0 0 0 0.356863 0 0 0 0.48 0"/><feBlend in2="shape" result="effect2_innerShadow_2575_2853367"/></filter><filter id="c" width="89.8674" height="49.9205" x="23.0664" y="22" color-interpolation-filters="sRGB" filterUnits="userSpaceOnUse"><feFlood flood-opacity="0" result="BackgroundImageFix"/><feColorMatrix in="SourceAlpha" result="hardAlpha" values="0 0 0 0 0 0 0 0 0 0 0 0 0 0 0 0 0 0 127 0"/><feOffset dx="8" dy="8"/><feGaussianBlur stdDeviation="8"/><feColorMatrix values="0 0 0 0 0.270588 0 0 0 0 0.309804 0 0 0 0 0.356863 0 0 0 0.16 0"/><feBlend in2="BackgroundImageFix" result="effect1_dropShadow_2575_2853367"/><feBlend in="SourceGraphic" in2="effect1_dropShadow_2575_2853367" result="shape"/><feColorMatrix in="SourceAlpha" result="hardAlpha" values="0 0 0 0 0 0 0 0 0 0 0 0 0 0 0 0 0 0 127 0"/><feOffset dx="-2" dy="-2"/><feGaussianBlur stdDeviation="2"/><feComposite in2="hardAlpha" k2="-1" k3="1" operator="arithmetic"/><feColorMatrix values="0 0 0 0 0.270588 0 0 0 0 0.309804 0 0 0 0 0.356863 0 0 0 0.48 0"/><feBlend in2="shape" result="effect2_innerShadow_2575_2853367"/></filter></defs></svg>