<svg xmlns="http://www.w3.org/2000/svg" width="120" height="120" fill="none" viewBox="0 0 120 120"><g opacity="0.48"><path fill="#919EAB" fill-rule="evenodd" d="m21.19 86.066 1.456 1.456 1.46-1.46.624.624-1.46 1.46 1.456 1.455-.625.626-1.457-1.456-1.46 1.46-.623-.624 1.46-1.46-1.457-1.456zm66.048-73.298 1.456 1.455 1.46-1.46.624.624-1.46 1.46 1.456 1.455-.626.626-1.456-1.456-1.46 1.46-.624-.624 1.46-1.459-1.456-1.456z" clip-rule="evenodd" opacity="0.48"/><path fill="#919EAB" d="M61.478 104.835a1.46 1.46 0 0 1 2.064 0l1.039 1.039a1.46 1.46 0 0 1 0 2.068l-1.04 1.04a1.46 1.46 0 0 1-2.063 0l-1.039-1.039a1.46 1.46 0 0 1-.318-1.595c.073-.177.181-.338.317-.473z" opacity="0.72"/><path fill="#919EAB" fill-rule="evenodd" d="m96.698 39.04-1.04 1.04-.438-.44.437.441a.22.22 0 0 0-.047.237q.016.04.047.071l.002.001 1.039 1.04a.22.22 0 0 0 .31 0l1.04-1.041a.22.22 0 0 0 0-.308v-.001l-1.04-1.04a.22.22 0 0 0-.31 0m-1.917.161 1.04-1.04a1.46 1.46 0 0 1 2.064 0v.001l1.039 1.038v.001a1.457 1.457 0 0 1 0 2.068l-1.04 1.04a1.46 1.46 0 0 1-2.063 0l-1.039-1.04a1.46 1.46 0 0 1 0-2.068" clip-rule="evenodd"/><path fill="#919EAB" fill-rule="evenodd" d="M104.552 66.317a.93.93 0 0 1 1.133 1.133l-.576 3.091c-.047.243-.2.592-.587.711-.387.12-.71-.084-.884-.259l-2.629-2.628c-.178-.176-.381-.5-.261-.888.12-.387.471-.54.716-.585h.001zm-.104 1.237-2.157.401 1.755 1.755z" clip-rule="evenodd" opacity="0.48"/><path fill="#637381" fill-rule="evenodd" d="M102.46 94.266a.93.93 0 0 1 1.132 1.132l-.576 3.092c-.046.242-.199.592-.586.71-.388.12-.71-.084-.885-.258l-2.628-2.628c-.178-.177-.381-.5-.261-.888s.47-.54.716-.585h.001zm-.104 1.236-2.157.402 1.755 1.755zM12.5 72.473a.92.92 0 1 0 0 1.84.92.92 0 0 0 0-1.84m-1.389-1.16a2.5 2.5 0 1 1 2.779 4.159 2.5 2.5 0 0 1-2.779-4.159m43.431-52.911a.919.919 0 1 0 0 1.838.919.919 0 0 0 0-1.838m-1.389-1.16a2.501 2.501 0 0 1 3.468 3.468 2.5 2.5 0 1 1-3.468-3.468" clip-rule="evenodd" opacity="0.8"/></g><g opacity="0.48"><g filter="url(#a)"><path fill="#DFE3E8" d="M28 49.238h64V78.19a7.62 7.62 0 0 1-7.62 7.62H35.62A7.62 7.62 0 0 1 28 78.19z"/></g><path fill="#C4CDD5" fill-rule="evenodd" d="M37.904 39.333a2.263 2.263 0 0 0-2.285 2.286 2.263 2.263 0 0 0 2.285 2.286 2.264 2.264 0 0 0 2.286-2.286 2.263 2.263 0 0 0-2.286-2.286m7.238 0a2.263 2.263 0 0 0-2.285 2.286 2.264 2.264 0 0 0 2.285 2.286 2.263 2.263 0 0 0 2.286-2.286 2.263 2.263 0 0 0-2.286-2.286m7.238 0a2.263 2.263 0 0 0-2.285 2.286 2.264 2.264 0 0 0 2.285 2.286 2.263 2.263 0 0 0 2.286-2.286 2.263 2.263 0 0 0-2.285-2.286" clip-rule="evenodd"/><g filter="url(#b)"><path fill="#919EAB" fill-rule="evenodd" d="M92 40.095v9.143H28v-9.142A6.096 6.096 0 0 1 34.096 34h51.808A6.095 6.095 0 0 1 92 40.095m-54.095-.762a2.263 2.263 0 0 0-2.286 2.286 2.263 2.263 0 0 0 2.285 2.286 2.263 2.263 0 0 0 2.286-2.286 2.263 2.263 0 0 0-2.285-2.286m7.238 0a2.263 2.263 0 0 0-2.286 2.286 2.263 2.263 0 0 0 2.286 2.286 2.263 2.263 0 0 0 2.285-2.286 2.263 2.263 0 0 0-2.285-2.286m4.952 2.286a2.263 2.263 0 0 1 2.286-2.286 2.263 2.263 0 0 1 2.285 2.286 2.264 2.264 0 0 1-2.285 2.286 2.263 2.263 0 0 1-2.286-2.286" clip-rule="evenodd"/></g><path fill="#637381" fill-rule="evenodd" d="M82.326 54.06H63.72c-1.028 0-1.86.83-1.86 1.857v22.29c0 1.026.832 1.857 1.86 1.857h18.605c1.028 0 1.86-.831 1.86-1.858V55.917a1.86 1.86 0 0 0-1.86-1.857" clip-rule="evenodd" opacity="0.48"/><path fill="#637381" fill-rule="evenodd" d="M37.674 57.775h7.442a1.858 1.858 0 1 0 0-3.715h-7.442a1.858 1.858 0 1 0 0 3.715m-1.86 5.572c0-1.027.832-1.857 1.86-1.857H56.28a1.858 1.858 0 1 1 0 3.714H37.674c-1.028 0-1.86-.83-1.86-1.857m1.86 5.572a1.858 1.858 0 1 0 0 3.715H56.28a1.858 1.858 0 1 0 0-3.715zm-1.86 9.287c0-1.026.832-1.857 1.86-1.857H56.28a1.858 1.858 0 1 1 0 3.715H37.674a1.86 1.86 0 0 1-1.86-1.858" clip-rule="evenodd" opacity="0.24"/></g><defs><filter id="a" width="95.9999" height="68.5713" x="19.9998" y="41.238" color-interpolation-filters="sRGB" filterUnits="userSpaceOnUse"><feFlood flood-opacity="0" result="BackgroundImageFix"/><feColorMatrix in="SourceAlpha" result="hardAlpha" values="0 0 0 0 0 0 0 0 0 0 0 0 0 0 0 0 0 0 127 0"/><feOffset dx="8" dy="8"/><feGaussianBlur stdDeviation="8"/><feColorMatrix values="0 0 0 0 0.270588 0 0 0 0 0.309804 0 0 0 0 0.356863 0 0 0 0.16 0"/><feBlend in2="BackgroundImageFix" result="effect1_dropShadow_2575_2852044"/><feBlend in="SourceGraphic" in2="effect1_dropShadow_2575_2852044" result="shape"/><feColorMatrix in="SourceAlpha" result="hardAlpha" values="0 0 0 0 0 0 0 0 0 0 0 0 0 0 0 0 0 0 127 0"/><feOffset dx="-2" dy="-2"/><feGaussianBlur stdDeviation="2"/><feComposite in2="hardAlpha" k2="-1" k3="1" operator="arithmetic"/><feColorMatrix values="0 0 0 0 0.270588 0 0 0 0 0.309804 0 0 0 0 0.356863 0 0 0 0.48 0"/><feBlend in2="shape" result="effect2_innerShadow_2575_2852044"/></filter><filter id="b" width="95.9999" height="47.238" x="19.9998" y="26" color-interpolation-filters="sRGB" filterUnits="userSpaceOnUse"><feFlood flood-opacity="0" result="BackgroundImageFix"/><feColorMatrix in="SourceAlpha" result="hardAlpha" values="0 0 0 0 0 0 0 0 0 0 0 0 0 0 0 0 0 0 127 0"/><feOffset dx="8" dy="8"/><feGaussianBlur stdDeviation="8"/><feColorMatrix values="0 0 0 0 0.270588 0 0 0 0 0.309804 0 0 0 0 0.356863 0 0 0 0.16 0"/><feBlend in2="BackgroundImageFix" result="effect1_dropShadow_2575_2852044"/><feBlend in="SourceGraphic" in2="effect1_dropShadow_2575_2852044" result="shape"/><feColorMatrix in="SourceAlpha" result="hardAlpha" values="0 0 0 0 0 0 0 0 0 0 0 0 0 0 0 0 0 0 127 0"/><feOffset dx="-2"/><feGaussianBlur stdDeviation="2"/><feComposite in2="hardAlpha" k2="-1" k3="1" operator="arithmetic"/><feColorMatrix values="0 0 0 0 0.270588 0 0 0 0 0.309804 0 0 0 0 0.356863 0 0 0 0.48 0"/><feBlend in2="shape" result="effect2_innerShadow_2575_2852044"/></filter></defs></svg>