<svg xmlns="http://www.w3.org/2000/svg" width="120" height="120" fill="none" viewBox="0 0 120 120"><mask id="a" width="50" height="44" x="53" y="19" maskUnits="userSpaceOnUse" style="mask-type:alpha"><path fill="#000" d="M100.622 33.793 68.528 19.504a3.7 3.7 0 0 0-4.882 1.874l-9.777 21.959a3.7 3.7 0 0 0 1.875 4.882l32.093 14.29a3.7 3.7 0 0 0 4.882-1.875l9.777-21.959a3.697 3.697 0 0 0-1.874-4.882"/></mask><g mask="url(#a)"><path fill="#F4F6F8" d="M100.622 33.793 68.528 19.504a3.7 3.7 0 0 0-4.882 1.874l-9.777 21.959a3.7 3.7 0 0 0 1.875 4.882l32.093 14.29a3.7 3.7 0 0 0 4.882-1.875l9.777-21.959a3.697 3.697 0 0 0-1.874-4.882"/><g filter="url(#b)" opacity="0.24"><path fill="#919EAB" d="M100.622 33.793 68.528 19.504c-1.263-.562-2.663-.345-3.7.423l10.328 21.946a3.68 3.68 0 0 0 4.408 1.962l23.219-7.01a3.68 3.68 0 0 0-2.161-3.032"/></g><path fill="#F4F6F8" d="M100.622 33.793 68.528 19.504c-1.263-.562-2.663-.345-3.7.423l10.328 21.946a3.68 3.68 0 0 0 4.408 1.962l23.219-7.01a3.68 3.68 0 0 0-2.161-3.032"/></g><mask id="c" width="64" height="52" x="16" y="50" maskUnits="userSpaceOnUse" style="mask-type:alpha"><path fill="#000" d="m66.893 50.38-46.046 9.787a4.955 4.955 0 0 0-3.817 5.878l6.697 31.505a4.955 4.955 0 0 0 5.877 3.817l46.046-9.788a4.955 4.955 0 0 0 3.817-5.877L72.77 54.197a4.955 4.955 0 0 0-5.877-3.817"/></mask><g mask="url(#c)"><path fill="#F4F6F8" d="m66.893 50.38-46.046 9.787a4.955 4.955 0 0 0-3.817 5.878l6.697 31.505a4.955 4.955 0 0 0 5.877 3.817l46.046-9.788a4.955 4.955 0 0 0 3.817-5.877L72.77 54.197a4.955 4.955 0 0 0-5.877-3.817"/><g filter="url(#d)" opacity="0.24"><path fill="#919EAB" d="m66.894 50.38-46.047 9.787c-1.812.386-3.16 1.724-3.677 3.373l28.48 15.657a4.93 4.93 0 0 0 6.325-1.345l19.65-25.887c-1.144-1.296-2.92-1.97-4.731-1.585"/></g><path fill="#F4F6F8" d="m66.894 50.38-46.047 9.787c-1.812.386-3.16 1.724-3.677 3.373l28.48 15.657a4.93 4.93 0 0 0 6.325-1.345l19.65-25.887c-1.144-1.296-2.92-1.97-4.731-1.585"/></g><g opacity="0.48"><path fill="#919EAB" fill-rule="evenodd" d="m21.19 86.066 1.456 1.456 1.46-1.46.624.624-1.46 1.46 1.456 1.455-.625.626-1.457-1.456-1.46 1.46-.623-.624 1.46-1.46-1.457-1.456zm66.048-73.298 1.456 1.455 1.46-1.46.624.624-1.46 1.46 1.456 1.455-.626.626-1.456-1.456-1.46 1.46-.624-.624 1.46-1.459-1.456-1.456z" clip-rule="evenodd" opacity="0.48"/><path fill="#919EAB" d="M61.478 104.835a1.46 1.46 0 0 1 2.064 0l1.039 1.039a1.46 1.46 0 0 1 0 2.068l-1.04 1.04a1.46 1.46 0 0 1-2.063 0l-1.039-1.039a1.46 1.46 0 0 1-.318-1.595c.073-.177.181-.338.317-.473z" opacity="0.72"/><path fill="#919EAB" fill-rule="evenodd" d="m96.698 39.04-1.04 1.04-.438-.44.437.441a.22.22 0 0 0-.047.237q.016.04.047.071l.002.001 1.039 1.04a.22.22 0 0 0 .31 0l1.04-1.041a.22.22 0 0 0 0-.308v-.001l-1.04-1.04a.22.22 0 0 0-.31 0m-1.917.161 1.04-1.04a1.46 1.46 0 0 1 2.064 0v.001l1.039 1.038v.001a1.457 1.457 0 0 1 0 2.068l-1.04 1.04a1.46 1.46 0 0 1-2.063 0l-1.039-1.04a1.46 1.46 0 0 1 0-2.068" clip-rule="evenodd"/><path fill="#919EAB" fill-rule="evenodd" d="M104.552 66.317a.93.93 0 0 1 1.133 1.133l-.576 3.091c-.047.243-.2.592-.587.711-.387.12-.71-.084-.884-.259l-2.629-2.628c-.178-.176-.381-.5-.261-.888.12-.387.471-.54.716-.585h.001zm-.104 1.237-2.157.401 1.755 1.755z" clip-rule="evenodd" opacity="0.48"/><path fill="#637381" fill-rule="evenodd" d="M102.46 94.266a.93.93 0 0 1 1.132 1.132l-.576 3.092c-.046.242-.199.592-.586.71-.388.12-.71-.084-.885-.258l-2.628-2.628c-.178-.177-.381-.5-.261-.888s.47-.54.716-.585h.001zm-.104 1.236-2.157.402 1.755 1.755zM12.5 72.473a.92.92 0 1 0 0 1.84.92.92 0 0 0 0-1.84m-1.389-1.16a2.5 2.5 0 1 1 2.779 4.159 2.5 2.5 0 0 1-2.779-4.159m43.431-52.911a.919.919 0 1 0 0 1.838.919.919 0 0 0 0-1.838m-1.389-1.16a2.501 2.501 0 0 1 3.468 3.468 2.5 2.5 0 1 1-3.468-3.468" clip-rule="evenodd" opacity="0.8"/></g><defs><filter id="b" width="61.9546" height="48.8077" x="52.8286" y="7.18811" color-interpolation-filters="sRGB" filterUnits="userSpaceOnUse"><feFlood flood-opacity="0" result="BackgroundImageFix"/><feBlend in="SourceGraphic" in2="BackgroundImageFix" result="shape"/><feGaussianBlur result="effect1_foregroundBlur_2733_150756" stdDeviation="6"/></filter><filter id="d" width="102.456" height="77.5419" x="-6.83057" y="26.2721" color-interpolation-filters="sRGB" filterUnits="userSpaceOnUse"><feFlood flood-opacity="0" result="BackgroundImageFix"/><feBlend in="SourceGraphic" in2="BackgroundImageFix" result="shape"/><feGaussianBlur result="effect1_foregroundBlur_2733_150756" stdDeviation="12"/></filter></defs></svg>