<svg xmlns="http://www.w3.org/2000/svg" width="120" height="120" fill="none" viewBox="0 0 120 120"><path fill="#C4CDD5" d="M60 78.949c-.081 14.376-.245 36.375 0 36.418a3.8 3.8 0 0 0 1.078-.158l33.75-10.125a3.745 3.745 0 0 0 2.672-3.592v-34.71z" opacity="0.48"/><path fill="#DFE3E8" d="M59.922 78.923 22.5 66.782v34.71a3.75 3.75 0 0 0 2.672 3.592l33.75 10.125c.351.105.715.158 1.078.158-.245-.022-.16-22.06-.078-36.444" opacity="0.48"/><path fill="url(#a)" d="M60 78.949 22.5 66.782l-9.516 14.107a1.876 1.876 0 0 0 .975 2.834L47.7 94.683a1.875 1.875 0 0 0 2.132-.73z" opacity="0.8"/><path fill="url(#b)" d="M97.5 66.782 60 78.949l10.168 15.004a1.875 1.875 0 0 0 2.132.73l33.741-10.96a1.875 1.875 0 0 0 .975-2.834z" opacity="0.8"/><path fill="url(#c)" d="M50.92 41.82a1.88 1.88 0 0 0-2.13-.728L15.048 52.055a1.872 1.872 0 0 0-.976 2.831l8.425 12.492 37.5-12.208z" opacity="0.64"/><path fill="url(#d)" d="M105.924 54.29a1.87 1.87 0 0 0-.24-2.385 1.9 1.9 0 0 0-.735-.446L71.207 40.496a1.875 1.875 0 0 0-2.13.728L60 54.574l37.5 12.208z" opacity="0.64"/><path fill="#C4CDD5" d="M97.5 66.782 60 54.574 22.5 66.782 60 78.949z" opacity="0.48"/><path fill="#C4CDD5" d="M60 66.676V55L22.5 67.208 60 79.375z" opacity="0.48"/><path fill="#919EAB" fill-opacity="0.12" d="M58 12.808c2.028-11.488 19.61-10.746 9.374 0zm0 2.91c2.028 11.486 19.61 10.746 9.374 0z"/><path fill="#919EAB" fill-opacity="0.24" d="M52.466 59.959a16.4 16.4 0 0 1-2.107-1.628 1.876 1.876 0 0 0-2.535 2.762 20 20 0 0 0 2.591 2.004 1.875 1.875 0 0 0 2.051-3.138m-5.842-5.76a16.3 16.3 0 0 1-1.414-2.275 1.875 1.875 0 1 0-3.343 1.701c.476.934 1.054 1.87 1.738 2.797a1.875 1.875 0 0 0 3.019-2.223m-2.741-7.652q.028-1.136.331-2.192a1.875 1.875 0 1 0-3.605-1.033c-.29 1.02-.45 2.072-.476 3.131a1.876 1.876 0 1 0 3.75.094m2.883-6.263a11 11 0 0 1 1.613-1.231 1.876 1.876 0 0 0-2-3.173 14.7 14.7 0 0 0-2.16 1.654 1.875 1.875 0 0 0 2.547 2.75m6.974-3.234q1.486-.27 2.996-.33a1.877 1.877 0 0 0-.16-3.748 25 25 0 0 0-3.519.39 1.875 1.875 0 0 0 .682 3.688m9.772-.11a45 45 0 0 0 4.47-.16 1.875 1.875 0 0 0-.332-3.735 41 41 0 0 1-4.095.144 1.875 1.875 0 1 0-.043 3.75m10.633-1.31c1.856-.568 3.424-1.295 4.736-2.13a1.874 1.874 0 0 0 .068-3.117 1.88 1.88 0 0 0-2.083-.046 15.6 15.6 0 0 1-3.818 1.707 1.875 1.875 0 0 0 1.097 3.587m9.544-7.378a11.64 11.64 0 0 0 1.138-5.63 1.875 1.875 0 1 0-3.746.174 7.9 7.9 0 0 1-.769 3.825 1.877 1.877 0 0 0 3.377 1.632m-1.194-12.26c-1.367-1.847-3.222-3.133-5.243-3.548a1.877 1.877 0 0 0-.754 3.675c1.166.239 2.194 1.04 2.983 2.106a1.874 1.874 0 1 0 3.014-2.233m-24.664.164h12.556a1.875 1.875 0 0 0 0-3.75H57.83a1.877 1.877 0 0 0 0 3.75"/><defs><linearGradient id="a" x1="22.7494" x2="27.9905" y1="66.7669" y2="101.442" gradientUnits="userSpaceOnUse"><stop stop-color="#F4F6F8"/><stop offset="1" stop-color="#C4CDD5"/></linearGradient><linearGradient id="b" x1="60.1519" x2="99.6838" y1="78.8212" y2="101.557" gradientUnits="userSpaceOnUse"><stop stop-color="#F4F6F8"/><stop offset="1" stop-color="#C4CDD5"/></linearGradient><linearGradient id="c" x1="17.5881" x2="23.245" y1="60.1008" y2="33.434" gradientUnits="userSpaceOnUse"><stop stop-color="#F4F6F8"/><stop offset="1" stop-color="#C4CDD5"/></linearGradient><linearGradient id="d" x1="70.0387" x2="72.0615" y1="40.0444" y2="72.9595" gradientUnits="userSpaceOnUse"><stop stop-color="#F4F6F8"/><stop offset="1" stop-color="#C4CDD5"/></linearGradient></defs></svg>