<svg xmlns="http://www.w3.org/2000/svg" width="120" height="120" fill="none" viewBox="0 0 120 120"><g opacity="0.48"><path fill="#919EAB" fill-rule="evenodd" d="m21.19 86.066 1.456 1.456 1.46-1.46.624.624-1.46 1.46 1.456 1.455-.625.626-1.457-1.456-1.46 1.46-.623-.624 1.46-1.46-1.457-1.456zm66.048-73.298 1.456 1.455 1.46-1.46.624.624-1.46 1.46 1.456 1.455-.626.626-1.456-1.456-1.46 1.46-.624-.624 1.46-1.459-1.456-1.456z" clip-rule="evenodd" opacity="0.48"/><path fill="#919EAB" d="M61.478 104.835a1.46 1.46 0 0 1 2.064 0l1.039 1.039a1.46 1.46 0 0 1 0 2.068l-1.04 1.04a1.46 1.46 0 0 1-2.063 0l-1.039-1.039a1.46 1.46 0 0 1-.318-1.595c.073-.177.181-.338.317-.473z" opacity="0.72"/><path fill="#919EAB" fill-rule="evenodd" d="m96.698 39.04-1.04 1.04-.438-.44.437.441a.22.22 0 0 0-.047.237q.016.04.047.071l.002.001 1.039 1.04a.22.22 0 0 0 .31 0l1.04-1.041a.22.22 0 0 0 0-.308v-.001l-1.04-1.04a.22.22 0 0 0-.31 0m-1.917.161 1.04-1.04a1.46 1.46 0 0 1 2.064 0v.001l1.039 1.038v.001a1.457 1.457 0 0 1 0 2.068l-1.04 1.04a1.46 1.46 0 0 1-2.063 0l-1.039-1.04a1.46 1.46 0 0 1 0-2.068" clip-rule="evenodd"/><path fill="#919EAB" fill-rule="evenodd" d="M104.552 66.317a.93.93 0 0 1 1.133 1.133l-.576 3.091c-.047.243-.2.592-.587.711-.387.12-.71-.084-.884-.259l-2.629-2.628c-.178-.176-.381-.5-.261-.888.12-.387.471-.54.716-.585h.001zm-.104 1.237-2.157.401 1.755 1.755z" clip-rule="evenodd" opacity="0.48"/><path fill="#637381" fill-rule="evenodd" d="M102.46 94.266a.93.93 0 0 1 1.132 1.132l-.576 3.092c-.046.242-.199.592-.586.71-.388.12-.71-.084-.885-.258l-2.628-2.628c-.178-.177-.381-.5-.261-.888s.47-.54.716-.585h.001zm-.104 1.236-2.157.402 1.755 1.755zM12.5 72.473a.92.92 0 1 0 0 1.84.92.92 0 0 0 0-1.84m-1.389-1.16a2.5 2.5 0 1 1 2.779 4.159 2.5 2.5 0 0 1-2.779-4.159m43.431-52.911a.919.919 0 1 0 0 1.838.919.919 0 0 0 0-1.838m-1.389-1.16a2.501 2.501 0 0 1 3.468 3.468 2.5 2.5 0 1 1-3.468-3.468" clip-rule="evenodd" opacity="0.8"/></g><g opacity="0.48"><g filter="url(#a)"><path fill="#DFE3E8" fill-rule="evenodd" d="M35.619 39.143v15.1c0 1.996.97 3.861 2.638 4.955C43.416 62.578 54.788 69.619 60 69.619s16.584-7.041 21.743-10.421c1.668-1.093 2.638-2.96 2.638-4.954V39.143A9.143 9.143 0 0 0 75.238 30H44.762a9.143 9.143 0 0 0-9.143 9.143m11.429 0a2.286 2.286 0 0 0 0 4.571h13.714a2.286 2.286 0 0 0 0-4.571zm0 10.667a2.286 2.286 0 0 0 0 4.571h22.857a2.286 2.286 0 0 0 0-4.571z" clip-rule="evenodd"/></g><g filter="url(#b)"><path fill="#919EAB" d="M35.619 42.956a203 203 0 0 0-4.026 3.067c-1.835 1.435-2.985 3.55-3.14 5.875-.211 3.162-.453 8.47-.453 16.197 0 7.308.433 12.452.837 15.664.333 2.648 2.106 4.748 4.72 5.287 4.191.866 12.194 1.906 26.443 1.906s22.252-1.04 26.443-1.906c2.614-.539 4.387-2.639 4.72-5.287.404-3.212.837-8.356.837-15.664 0-7.727-.242-13.035-.453-16.197-.155-2.324-1.305-4.44-3.14-5.875a203 203 0 0 0-4.026-3.067v11.288c0 1.995-.97 3.86-2.638 4.954C76.584 62.578 65.21 69.62 60 69.62S43.416 62.578 38.257 59.2c-1.669-1.094-2.638-2.96-2.638-4.955z"/></g><path fill="#637381" d="M44.762 41.429a2.286 2.286 0 0 1 2.285-2.286h13.715a2.286 2.286 0 0 1 0 4.572H47.047a2.286 2.286 0 0 1-2.285-2.286m0 10.666a2.286 2.286 0 0 1 2.285-2.285h22.858a2.286 2.286 0 0 1 0 4.571H47.047a2.286 2.286 0 0 1-2.285-2.286" opacity="0.8"/></g><defs><filter id="a" width="80.762" height="71.619" x="27.6189" y="22" color-interpolation-filters="sRGB" filterUnits="userSpaceOnUse"><feFlood flood-opacity="0" result="BackgroundImageFix"/><feColorMatrix in="SourceAlpha" result="hardAlpha" values="0 0 0 0 0 0 0 0 0 0 0 0 0 0 0 0 0 0 127 0"/><feOffset dx="8" dy="8"/><feGaussianBlur stdDeviation="8"/><feColorMatrix values="0 0 0 0 0.270588 0 0 0 0 0.309804 0 0 0 0 0.356863 0 0 0 0.16 0"/><feBlend in2="BackgroundImageFix" result="effect1_dropShadow_2575_2781069"/><feBlend in="SourceGraphic" in2="effect1_dropShadow_2575_2781069" result="shape"/><feColorMatrix in="SourceAlpha" result="hardAlpha" values="0 0 0 0 0 0 0 0 0 0 0 0 0 0 0 0 0 0 127 0"/><feOffset dx="-2" dy="-2"/><feGaussianBlur stdDeviation="2"/><feComposite in2="hardAlpha" k2="-1" k3="1" operator="arithmetic"/><feColorMatrix values="0 0 0 0 0.270588 0 0 0 0 0.309804 0 0 0 0 0.356863 0 0 0 0.48 0"/><feBlend in2="shape" result="effect2_innerShadow_2575_2781069"/></filter><filter id="b" width="96" height="79.9969" x="20" y="34.9556" color-interpolation-filters="sRGB" filterUnits="userSpaceOnUse"><feFlood flood-opacity="0" result="BackgroundImageFix"/><feColorMatrix in="SourceAlpha" result="hardAlpha" values="0 0 0 0 0 0 0 0 0 0 0 0 0 0 0 0 0 0 127 0"/><feOffset dx="8" dy="8"/><feGaussianBlur stdDeviation="8"/><feColorMatrix values="0 0 0 0 0.270588 0 0 0 0 0.309804 0 0 0 0 0.356863 0 0 0 0.16 0"/><feBlend in2="BackgroundImageFix" result="effect1_dropShadow_2575_2781069"/><feBlend in="SourceGraphic" in2="effect1_dropShadow_2575_2781069" result="shape"/><feColorMatrix in="SourceAlpha" result="hardAlpha" values="0 0 0 0 0 0 0 0 0 0 0 0 0 0 0 0 0 0 127 0"/><feOffset dx="-2" dy="-2"/><feGaussianBlur stdDeviation="2"/><feComposite in2="hardAlpha" k2="-1" k3="1" operator="arithmetic"/><feColorMatrix values="0 0 0 0 0.270588 0 0 0 0 0.309804 0 0 0 0 0.356863 0 0 0 0.48 0"/><feBlend in2="shape" result="effect2_innerShadow_2575_2781069"/></filter></defs></svg>