<svg xmlns="http://www.w3.org/2000/svg" width="24" height="24" fill="none" viewBox="0 0 24 24"><path fill="#637381" d="M3.536 2.025c.542.056.833.53.853 1.075.045 1.203.111 3.842.111 8.9s-.066 7.697-.11 8.9c-.02.545-.312 1.02-.854 1.075A5 5 0 0 1 3 22a5 5 0 0 1-.536-.025c-.542-.056-.833-.53-.853-1.075-.045-1.203-.111-3.842-.111-8.9s.066-7.697.11-8.9c.02-.544.312-1.02.854-1.075A5 5 0 0 1 3 2q.309.001.536.025"/><path fill="#637381" d="M16.465 4.747c-.032-.858-.556-1.516-1.41-1.606C14.323 3.064 13.202 3 11.5 3s-2.822.064-3.554.141c-.855.09-1.38.748-1.41 1.606C6.515 5.288 6.5 6.022 6.5 7s.015 1.712.035 2.253c.032.858.556 1.516 1.41 1.606.732.077 1.853.141 3.555.141s2.823-.064 3.555-.141c.854-.09 1.378-.748 1.41-1.606.02-.541.035-1.275.035-2.253s-.015-1.712-.035-2.253m5.989 10.178c-.05-.962-.71-1.658-1.669-1.74C19.659 13.092 17.736 13 14.5 13s-5.159.09-6.285.185c-.96.082-1.62.778-1.669 1.74-.027.52-.046 1.2-.046 2.075s.02 1.554.046 2.075c.05.962.709 1.659 1.669 1.74 1.126.094 3.049.185 6.285.185s5.159-.09 6.285-.186c.96-.08 1.62-.777 1.669-1.739.026-.52.046-1.2.046-2.075s-.02-1.554-.046-2.075" opacity="0.4"/></svg>