<svg xmlns="http://www.w3.org/2000/svg" width="24" height="24" fill="none" viewBox="0 0 24 24"><path fill="#637381" d="M20.964 2.025c-.542.056-.833.53-.853 1.075C20.066 4.303 20 6.942 20 12s.066 7.697.11 8.9c.02.545.312 1.02.854 1.075q.227.024.536.025.308-.001.536-.025c.542-.056.833-.53.853-1.075.045-1.203.111-3.842.111-8.9s-.066-7.697-.11-8.9c-.02-.544-.312-1.02-.854-1.075A5 5 0 0 0 21.5 2q-.308.001-.536.025"/><path fill="#637381" d="M8.035 4.747c.032-.858.556-1.516 1.41-1.606C10.178 3.064 11.299 3 13 3s2.823.064 3.555.141c.854.09 1.378.748 1.41 1.606.02.541.035 1.275.035 2.253s-.015 1.712-.035 2.253c-.032.858-.556 1.516-1.41 1.606-.732.077-1.853.141-3.555.141s-2.822-.064-3.554-.141c-.855-.09-1.38-.748-1.41-1.606A62 62 0 0 1 8 7c0-.978.015-1.712.035-2.253M2.046 14.925c.05-.962.71-1.658 1.669-1.74C4.84 13.092 6.764 13 10 13s5.159.09 6.285.185c.96.082 1.62.778 1.669 1.74.026.52.046 1.2.046 2.075s-.02 1.554-.046 2.075c-.05.962-.709 1.659-1.669 1.74C15.16 20.908 13.236 21 10 21s-5.159-.09-6.285-.186c-.96-.08-1.62-.777-1.669-1.739C2.02 18.555 2 17.875 2 17s.02-1.554.046-2.075" opacity="0.4"/></svg>