<svg xmlns="http://www.w3.org/2000/svg" width="24" height="24" fill="none" viewBox="0 0 24 24"><path fill="#637381" fill-rule="evenodd" d="M12 22c5.523 0 10-4.477 10-10S17.523 2 12 2 2 6.477 2 12s4.477 10 10 10m0-1.5a8.5 8.5 0 1 0 0-17 8.5 8.5 0 0 0 0 17" clip-rule="evenodd"/><path fill="#637381" fill-rule="evenodd" d="M12 22c5.523 0 10-4.477 10-10S17.523 2 12 2 2 6.477 2 12s4.477 10 10 10m0-1.5a8.5 8.5 0 1 0 0-17 8.5 8.5 0 0 0 0 17" clip-rule="evenodd"/><path fill="#637381" d="M11.13 20.621a8.68 8.68 0 0 1-7.07-5.246l-.044-.108 7.114 3.983zm0-2.9L3.5 13.45a8.8 8.8 0 0 1-.082-2.268l7.712 4.317zm0-3.75-7.466-4.18a8.6 8.6 0 0 1 .645-1.699l6.82 3.823zm0-3.584L5 6.95a8.7 8.7 0 0 1 1.234-1.38l4.895 2.68zm0-3.655L7.395 4.686A8.6 8.6 0 0 1 11.13 3.38z"/></svg>