<svg xmlns="http://www.w3.org/2000/svg" width="24" height="24" fill="none" viewBox="0 0 24 24"><path fill="#637381" d="M7.723 1.105c.318-.139.676-.107 1.013-.086.318.018.652.127.853.386.187.225.25.523.26.81.124 2.043.21 4.095.081 6.14-.034.793-.691 1.492-1.48 1.577-1.038.086-2.082.064-3.123.066-.864-.036-1.73-.036-2.593-.113-.33-.03-.67-.007-.99-.107a.99.99 0 0 1-.697-.799 3.7 3.7 0 0 1-.023-1.005.86.86 0 0 1 .455-.634c.277-.168.61-.179.926-.202 1.528-.098 3.06-.121 4.591-.127.015-1.665.038-3.33.17-4.991.018-.37.214-.748.557-.915m6.934.08c.28-.167.619-.173.935-.184.294-.003.62.015.851.22.266.214.374.561.39.891.117 1.63.135 3.266.143 4.899 1.586.009 3.174.027 4.757.139.313.016.64.069.895.265.204.15.333.396.35.648.024.321.016.647-.044.964a1.01 1.01 0 0 1-.768.773c-.383.088-.782.059-1.17.106a53 53 0 0 1-3.91.09c-.545-.013-1.091-.013-1.632-.075-.735-.116-1.34-.772-1.389-1.515-.141-2.11-.061-4.229.088-6.336.013-.353.196-.704.504-.885M2.114 14.154c1.963-.111 3.93-.213 5.896-.106.31.01.627.027.913.158.592.245.982.858 1.01 1.49.12 1.903.053 3.812-.065 5.713-.034.363.006.756-.2 1.077-.179.312-.538.47-.884.494a3.2 3.2 0 0 1-.919-.029c-.338-.09-.587-.4-.66-.734-.07-.312-.08-.634-.1-.952a87 87 0 0 1-.1-4.285c-.367-.023-.734-.002-1.1-.01-1.318-.023-2.636-.044-3.95-.149-.329-.024-.652-.193-.823-.482-.152-.266-.131-.585-.127-.881.018-.28.027-.581.188-.822.2-.305.563-.473.921-.482m13.866-.106c1.966-.107 3.936-.005 5.9.106.357.01.717.178.915.483.177.269.179.604.193.915.004.276.01.576-.148.816-.178.277-.5.431-.823.455-1.674.125-3.354.16-5.032.158-.018 1.62-.046 3.24-.155 4.856.006.361-.115.746-.416.968-.228.19-.539.188-.819.195-.247-.003-.5-.015-.737-.089a.96.96 0 0 1-.585-.519c-.115-.233-.128-.498-.147-.753-.118-1.994-.194-3.996-.066-5.991a1.67 1.67 0 0 1 1.038-1.456c.276-.123.584-.13.881-.144"/></svg>