<svg xmlns="http://www.w3.org/2000/svg" width="24" height="24" fill="none" viewBox="0 0 24 24"><path fill="#637381" d="M2.733 1.069c1.941-.142 3.888-.036 5.829.064.31.025.64.03.913.199.292.172.473.496.497.83.027.325.053.659-.02.98-.101.394-.491.65-.882.687-1.69.131-3.385.165-5.08.162-.015 1.71-.045 3.423-.174 5.129-.052.409-.361.806-.786.862a4 4 0 0 1-1.01-.028.95.95 0 0 1-.732-.535c-.122-.24-.138-.513-.154-.776-.119-1.98-.192-3.968-.07-5.95a1.67 1.67 0 0 1 .597-1.22c.294-.26.685-.384 1.072-.404m12.734.062c1.93-.1 3.867-.203 5.797-.062.41.02.826.162 1.122.455.361.315.533.796.552 1.267.109 1.871.044 3.748-.071 5.618-.033.337.003.696-.158 1.006a.97.97 0 0 1-.73.537c-.348.054-.704.07-1.053.025-.354-.065-.629-.372-.715-.712-.082-.33-.087-.671-.11-1.008a88 88 0 0 1-.099-4.267c-1.537-.019-3.076-.022-4.61-.128-.256-.02-.519-.013-.762-.103-.31-.11-.566-.391-.608-.723a3.7 3.7 0 0 1 .023-1.015c.055-.36.33-.665.671-.782.241-.082.499-.09.75-.108M1.695 14.172c.302-.164.658-.16.993-.168.266-.004.56.021.765.21.27.218.374.572.389.906.117 1.625.133 3.255.14 4.883 1.616.011 3.233.028 4.844.146.373.018.781.138 1.004.46.2.287.172.655.161.987-.013.333-.06.7-.321.937-.3.323-.773.308-1.177.332-1.787.124-3.58.166-5.371.099-.344-.027-.7-.015-1.023-.152-.515-.22-.918-.707-1.006-1.264-.035-.206-.038-.415-.05-.623-.096-1.952-.02-3.907.117-5.854.018-.361.207-.728.535-.899m18.871.022c.232-.193.551-.194.838-.19.338.01.703.024.99.225.3.21.441.583.45.94.125 2.06.214 4.13.083 6.193-.041.77-.675 1.466-1.445 1.556-.694.072-1.393.058-2.09.082-1.492-.023-2.985-.046-4.472-.18a1.01 1.01 0 0 1-.81-.6c-.098-.26-.101-.542-.112-.815.002-.273-.002-.572.169-.802.238-.332.664-.443 1.053-.46 1.589-.11 3.182-.132 4.774-.14.015-1.645.038-3.291.164-4.932.014-.33.138-.67.408-.877"/></svg>