<svg xmlns="http://www.w3.org/2000/svg" width="24" height="24" fill="none" viewBox="0 0 24 24"><path fill="#637381" fill-rule="evenodd" d="M6.557 2.1C3.941 2.213 2 3.884 2 6.5s1.942 4.288 4.557 4.4c1.368.058 3.15.1 5.443.1 2.294 0 4.075-.042 5.444-.1C20.058 10.788 22 9.117 22 6.5s-1.942-4.288-4.556-4.4C16.075 2.043 14.294 2 12 2s-4.075.042-5.443.1M20 6.5a2.5 2.5 0 1 1-5 0 2.5 2.5 0 0 1 5 0" clip-rule="evenodd"/><path fill="#637381" fill-rule="evenodd" d="M17.444 13.1c2.614.112 4.556 1.783 4.556 4.4s-1.942 4.288-4.556 4.4c-1.369.058-3.15.1-5.444.1s-4.075-.042-5.443-.1C3.941 21.788 2 20.117 2 17.5s1.942-4.288 4.557-4.4c1.368-.058 3.15-.1 5.443-.1 2.294 0 4.075.042 5.444.1M4 17.5a2.5 2.5 0 1 0 5 0 2.5 2.5 0 0 0-5 0" clip-rule="evenodd" opacity="0.4"/><path fill="#637381" d="M17.5 9a2.5 2.5 0 1 0 0-5 2.5 2.5 0 0 0 0 5" opacity="0.4"/><path fill="#637381" d="M6.5 20a2.5 2.5 0 1 1 0-5 2.5 2.5 0 0 1 0 5"/></svg>