<svg xmlns="http://www.w3.org/2000/svg" width="24" height="24" fill="none" viewBox="0 0 24 24"><path fill="#637381" d="M12 18.111A6.111 6.111 0 1 0 12 5.89a6.111 6.111 0 0 0 0 12.222"/><path fill="#637381" d="M10.167 2.833c0-1.051.673-1.825 1.724-1.833h.218c1.051.008 1.724.782 1.724 1.833 0 1.052-.673 1.826-1.724 1.833h-.218c-1.051-.007-1.724-.781-1.724-1.833m0 18.334c0 1.051.673 1.825 1.724 1.833h.218c1.051-.008 1.724-.782 1.724-1.833 0-1.052-.673-1.826-1.724-1.833h-.218c-1.051.007-1.724.781-1.724 1.833m7.019-16.945c.743-.744 1.766-.815 2.515-.077l.154.154c.738.75.667 1.772-.077 2.516-.743.743-1.766.814-2.515.076l-.154-.154c-.738-.749-.667-1.772.076-2.515M4.222 17.186c-.744.743-.815 1.766-.077 2.515l.154.154c.75.738 1.772.667 2.516-.077.743-.743.814-1.766.076-2.515l-.154-.154c-.749-.738-1.772-.667-2.515.076m-1.389-3.352c-1.051 0-1.825-.673-1.833-1.724v-.218c.008-1.051.782-1.724 1.833-1.724 1.052 0 1.826.673 1.833 1.724v.218c-.007 1.051-.781 1.724-1.833 1.724m18.334 0c1.051 0 1.825-.673 1.833-1.724v-.218c-.008-1.051-.782-1.724-1.833-1.724-1.052 0-1.826.673-1.833 1.724v.218c.007 1.051.781 1.724 1.833 1.724M4.222 6.815c-.744-.744-.815-1.767-.077-2.516l.154-.154c.75-.738 1.772-.667 2.516.077.743.743.814 1.766.076 2.515l-.154.154c-.749.738-1.772.667-2.515-.076m12.964 12.963c.743.744 1.766.815 2.515.077l.154-.154c.738-.75.667-1.772-.077-2.515-.743-.744-1.766-.815-2.515-.077l-.154.154c-.738.749-.667 1.772.076 2.515" opacity="0.4"/></svg>