<svg xmlns="http://www.w3.org/2000/svg" width="24" height="25" fill="none" viewBox="0 0 24 25"><path fill="#EA4335" d="M2.897 4.19c5.579-6.492 15.922-5.21 19.79 2.373h-9.294c-1.674.001-2.755-.037-3.926.58-1.376.724-2.415 2.067-2.777 3.644z"/><path fill="#4285F4" d="M8.008 12.01c0 2.2 1.789 3.99 3.988 3.99 2.2 0 3.988-1.79 3.988-3.99s-1.789-3.991-3.988-3.991c-2.2 0-3.988 1.79-3.988 3.99"/><path fill="#34A853" d="M13.544 17.233c-2.239.665-4.858-.073-6.293-2.55-1.096-1.89-3.99-6.932-5.305-9.224-4.607 7.06-.636 16.683 7.727 18.325z"/><path fill="#FBBC05" d="M15.7 8.019a5.464 5.464 0 0 1 1.008 6.72c-.951 1.64-3.988 6.765-5.46 9.247 8.617.531 14.899-7.914 12.062-15.967z"/></svg>