<svg xmlns="http://www.w3.org/2000/svg" width="24" height="25" fill="none" viewBox="0 0 24 25"><path fill="#20C05C" fill-rule="evenodd" d="M21.455 4.185c-.179-.958-.746-1.43-1.259-1.615-.553-.2-1.675-.408-3.084-.576-1.134-.133-2.467-.123-3.272-.098-.097-.664-.56-1.271-1.08-1.481-1.384-.56-3.523-.425-4.071-.27-.436.122-.92.373-1.189.76-.18.258-.296.59-.297 1.051 0 .217.005.676.01 1.138l.004.287.013 1.002v.042a.887.887 0 0 1-.884.887H4.103c-.479 0-.845.081-1.124.208-.28.128-.478.3-.629.503-.3.405-.351.903-.35 1.411 0 0 .005.416.105 1.22.083.623.755 4.972 1.394 6.294.247.515.412.73.898.956 1.084.466 3.56.985 4.72 1.133q.289.039.542.081c.85.138 1.416.23 1.777-.532.002-.002.087-.227.204-.556.377-1.145.43-2.16.43-2.894 0-.075.108-.078.108 0v.098c-.006.62-.022 2.283 1.283 2.749.545.194 1.676.366 2.825.502 1.04.12 1.794.53 1.794 3.207 0 1.628-.34 1.852-2.122 1.852h-.132c-1.346.001-1.862.001-1.862-1.114 0-.852.768-.842 1.418-.835l.178.002c.191 0 .175-.09.137-.3a2.6 2.6 0 0 1-.053-.501c0-.242.064-.441.112-.59.065-.204.1-.315-.093-.32-2.35-.065-3.733-.003-3.733 2.948 0 2.678 1.021 3.176 4.356 3.176 2.615 0 3.537-.087 4.617-3.45.213-.664.73-2.69 1.043-6.092.198-2.151-.186-8.644-.491-10.283m-4.558 7.177a5 5 0 0 0-.924.055c.082-.66.353-1.472 1.316-1.438 1.066.037 1.216 1.048 1.22 1.734a4.4 4.4 0 0 0-1.613-.351M3.999 4.658c-.552 0-1.012.094-1.391.267-.018.007-.14.068-.231.113a.05.05 0 0 1 .016-.026l4.36-4.34A.04.04 0 0 1 6.776.66L6.7.803c-.16.322-.252.706-.252 1.147v.007c0 .518.025 2.33.027 2.46v.008a.234.234 0 0 1-.233.233z" clip-rule="evenodd"/></svg>