<svg xmlns="http://www.w3.org/2000/svg" width="24" height="25" fill="none" viewBox="0 0 24 25"><path fill="#3E75C3" d="M12 .51C5.372.51 0 5.903 0 12.558c0 5.322 3.438 9.838 8.207 11.431.6.11.82-.261.82-.58 0-.287-.011-1.044-.017-2.05-3.338.729-4.043-1.615-4.043-1.615-.545-1.391-1.332-1.761-1.332-1.761-1.09-.748.083-.733.083-.733 1.204.085 1.837 1.241 1.837 1.241 1.071 1.842 2.809 1.31 3.493 1.001.109-.778.42-1.31.762-1.61-2.665-.305-5.466-1.338-5.466-5.954 0-1.316.467-2.39 1.235-3.233-.123-.305-.535-1.53.117-3.189 0 0 1.008-.323 3.3 1.235.958-.267 1.984-.4 3.005-.405a11.5 11.5 0 0 1 3.004.405c2.29-1.558 3.297-1.235 3.297-1.235.654 1.66.242 2.884.119 3.189.77.842 1.233 1.917 1.233 3.233 0 4.628-2.805 5.646-5.478 5.945.43.371.814 1.106.814 2.23 0 1.611-.015 2.91-.015 3.305 0 .323.216.698.825.58a12.05 12.05 0 0 0 8.2-11.43C24 5.903 18.627.51 12 .51"/></svg>