<svg xmlns="http://www.w3.org/2000/svg" width="24" height="25" fill="none" viewBox="0 0 24 25"><path fill="#0A49B2" d="M16.969 8.049a6 6 0 0 0-.289.007 6.27 6.27 0 0 0-3.989-1.413q-.35 0-.69.037a6.34 6.34 0 0 0-5.569 5.356 4.93 4.93 0 0 0-2.683 5.616A3.97 3.97 0 0 1 0 13.692a3.97 3.97 0 0 1 3.306-3.91 4.79 4.79 0 0 1 5.662-4.043 5.57 5.57 0 0 1 4.037-1.721c2.614 0 4.814 1.8 5.427 4.225a5.6 5.6 0 0 0-1.463-.194"/><path fill="#0A49B2" d="M7.77 13.054v-.083a4.93 4.93 0 0 1 4.921-4.922c1.334 0 2.591.533 3.515 1.476a4.22 4.22 0 0 1 4.933 3.507A3.52 3.52 0 0 1 24 16.486a3.52 3.52 0 0 1-3.516 3.516H8.531a3.52 3.52 0 0 1-3.515-3.516 3.52 3.52 0 0 1 2.754-3.432"/></svg>