<svg xmlns="http://www.w3.org/2000/svg" width="24" height="24" fill="none" viewBox="0 0 24 24"><path fill="#fff" d="M13.485 7.38 13.465 2H10.46l.02 5.38 1.502 2.06zM10.48 16.6V22h3.005v-5.4l-1.503-2.06z"/><path fill="#00F2E6" d="m13.494 16.622 3.165 4.367 2.424-1.763-3.165-4.367-2.424-.781zm-3.005-9.235L7.304 3.02 4.88 4.783 8.045 9.15l2.444.781z"/><path fill="#00B9F1" d="M8.05 9.143 2.92 7.48 2 10.325l5.128 1.682 2.424-.801zm6.37 3.646 1.502 2.063 5.128 1.662.922-2.844-5.128-1.663z"/><path fill="#D63AFF" d="m16.844 12.007 5.128-1.682-.922-2.845-5.128 1.663-1.502 2.063zm-9.716 0L2 13.67l.921 2.844 5.129-1.662 1.502-2.063z"/><path fill="#FB015B" d="M8.045 14.859 4.88 19.226l2.424 1.763 3.185-4.367v-2.544zm7.873-5.709 3.165-4.367-2.424-1.763-3.165 4.367v2.544z"/></svg>