<svg xmlns="http://www.w3.org/2000/svg" width="64" height="64" fill="none" viewBox="0 0 64 64"><g clip-path="url(#a)"><mask id="c" width="64" height="53" x="0" y="7" maskUnits="userSpaceOnUse" style="mask-type:alpha"><path fill="url(#b)" fill-opacity="0.16" d="M58.935 16.664c-8.178-6.286-16.109-1.163-24.955-2.974-8.911-1.825-12.461-7.9-22.61-5.096-8.99 2.484-14.445 12.444-9.503 20.782 1.408 2.377 3.808 4.17 4.788 6.828C8.237 40.493 5.83 43.785 6.3 48c1.951 17.513 28.697 10.73 38.538 5.28C60.27 44.737 70.71 25.72 58.934 16.665"/></mask><g mask="url(#c)"><path fill="#00A76F" d="M58.935 16.664c-8.178-6.286-16.109-1.163-24.955-2.974-8.911-1.825-12.461-7.9-22.61-5.096-8.99 2.484-14.445 12.444-9.503 20.782 1.408 2.377 3.808 4.17 4.788 6.828C8.237 40.493 5.83 43.785 6.3 48c1.951 17.513 28.697 10.73 38.538 5.28C60.27 44.737 70.71 25.72 58.934 16.665"/></g><path fill="#00A76F" d="M51.397 10.297c-.465 0-.929-.177-1.282-.53a1.815 1.815 0 0 1 0-2.563 1.814 1.814 0 0 1 2.563 0 1.815 1.815 0 0 1 0 2.563c-.353.353-.817.53-1.281.53m0-2.374a.563.563 0 1 0 .002 1.125.563.563 0 0 0-.002-1.125" opacity="0.08"/><path fill="#00A76F" d="M54.54 16.408c-.464 0-.928-.176-1.282-.53a1.8 1.8 0 0 1-.53-1.281c0-.484.188-.94.53-1.282a1.814 1.814 0 0 1 3.094 1.282 1.8 1.8 0 0 1-.53 1.281c-.354.354-.818.53-1.282.53m0-2.374a.56.56 0 0 0-.562.563.563.563 0 1 0 .563-.562" opacity="0.24"/><path fill="#00A76F" d="M13.172 29.595a1.8 1.8 0 0 1-1.282-.53 1.815 1.815 0 0 1 0-2.563 1.815 1.815 0 0 1 2.564 0 1.815 1.815 0 0 1 0 2.563 1.8 1.8 0 0 1-1.282.53m0-2.374a.563.563 0 1 0 .001 1.125.563.563 0 0 0-.001-1.125" opacity="0.08"/><path fill="#00A76F" d="M12.366 35.213a.62.62 0 0 1-.442-.183l-.745-.746-.746.746a.625.625 0 0 1-.884-.884l1.188-1.188a.625.625 0 0 1 .884 0l1.187 1.188a.625.625 0 0 1-.442 1.067" opacity="0.48"/><path fill="#00A76F" d="M53.353 53.313a.62.62 0 0 1-.443-.183l-.745-.746-.745.746a.625.625 0 0 1-.884-.884l1.187-1.188a.625.625 0 0 1 .884 0l1.188 1.188a.625.625 0 0 1-.443 1.067" opacity="0.24"/><path fill="#FFD666" d="M48 32c0 8.837-7.164 16-16 16s-16-7.163-16-16 7.163-16 16-16 16 7.163 16 16"/><path fill="#B76E00" d="M36.215 22.412c-.182-.703-.958-1.7-3.899-1.7-4.543 0-5.19.672-6.399-.49-1.02-.98-1.619 3.738-.259 5.236-.574 2.123-.115 4.248-.115 4.248h12.782s1.073-4.965-2.11-7.294"/><path fill="#FFE4D1" d="M26.834 29.93s-.552-1.01-1.654-1.01-1.882 4.845 1.654 4.038zm10.201 0s.551-1.01 1.653-1.01 1.883 4.845-1.653 4.038z"/><path fill="#FFEFE4" d="M31.935 23.437c-8.444 0-6.83 13.847 0 13.847 6.828 0 8.443-13.847 0-13.847"/><path fill="#B76E00" d="M28.893 21.979c-1.618.112-2.173.15-2.977-.622-.523-.502-.935.494-1.029 1.786-.13-1.748.358-3.565 1.029-2.92.804.772 1.36.734 2.977.621.816-.057 1.9-.132 3.422-.132 2.94 0 3.717.997 3.898 1.7 2.133 1.56 2.355 4.302 2.27 5.944-.087-1.587-.577-3.571-2.27-4.81-.181-.703-.958-1.7-3.898-1.7-1.522 0-2.607.076-3.422.133"/><path fill="#B76E00" d="M26.19 29.242c0-7.37 5.744-6.559 5.744-6.559s5.743-.81 5.743 6.558c0 0-.723-3.045-2.382-3.876-.355-.177-.606-.067-.997.104-.46.202-1.116.49-2.364.49s-1.903-.288-2.364-.49c-.391-.171-.643-.281-.997-.104-1.659.83-2.382 3.877-2.382 3.877"/><path fill="#FFAB00" d="M43.553 43.07a3.78 3.78 0 0 0-2.321-2.166L36.043 39.2a1.2 1.2 0 0 1-.826-1.13l-.019-2.096c-.867.78-1.947 1.265-3.209 1.276-1.262.01-2.35-.454-3.231-1.22l.018 2.023c.004.523-.33.989-.828 1.152l-5.186 1.701a3.78 3.78 0 0 0-2.32 2.157A15.95 15.95 0 0 0 32.002 48c4.54 0 8.639-1.892 11.551-4.93"/><path fill="#FFE4D1" d="M31.81 43.74c2.66 0 4.93-1.67 5.82-4.019l-1.588-.522a1.2 1.2 0 0 1-.826-1.13l-.019-2.096c-.867.78-1.947 1.265-3.21 1.276-1.262.01-2.35-.454-3.23-1.22l.017 2.023c.005.523-.33.989-.827 1.152l-1.914.628a6.22 6.22 0 0 0 5.777 3.907"/><path fill="#FFAB00" d="M32 17.25c8.627 0 15.658 6.828 15.987 15.375Q48 32.313 48 32c0-8.836-7.164-16-16-16s-16 7.164-16 16q0 .314.013.625C16.342 24.078 23.373 17.25 32 17.25"/></g><defs><linearGradient id="b" x1="43.8414" x2="70.1982" y1="68.4015" y2="12.921" gradientUnits="userSpaceOnUse"><stop/><stop offset="1" stop-opacity="0.01"/></linearGradient><clipPath id="a"><path fill="#fff" d="M0 0h64v64H0z"/></clipPath></defs></svg>