<svg xmlns="http://www.w3.org/2000/svg" width="64" height="64" fill="none" viewBox="0 0 64 64"><g clip-path="url(#a)"><mask id="c" width="64" height="53" x="0" y="7" maskUnits="userSpaceOnUse" style="mask-type:alpha"><path fill="url(#b)" fill-opacity="0.16" d="M58.935 16.664c-8.178-6.286-16.109-1.163-24.955-2.974-8.911-1.825-12.461-7.9-22.61-5.096-8.99 2.484-14.445 12.444-9.503 20.782 1.408 2.377 3.808 4.17 4.788 6.828C8.237 40.493 5.83 43.785 6.3 48c1.951 17.513 28.697 10.73 38.538 5.28C60.27 44.737 70.71 25.72 58.934 16.665"/></mask><g mask="url(#c)"><path fill="#00A76F" d="M58.935 16.664c-8.178-6.286-16.109-1.163-24.955-2.974-8.911-1.825-12.461-7.9-22.61-5.096-8.99 2.484-14.445 12.444-9.503 20.782 1.408 2.377 3.808 4.17 4.788 6.828C8.237 40.493 5.83 43.785 6.3 48c1.951 17.513 28.697 10.73 38.538 5.28C60.27 44.737 70.71 25.72 58.934 16.665"/></g><path fill="#00A76F" d="M51.397 10.297c-.465 0-.929-.177-1.282-.53a1.815 1.815 0 0 1 0-2.563 1.814 1.814 0 0 1 2.563 0 1.815 1.815 0 0 1 0 2.563c-.353.353-.817.53-1.281.53m0-2.374a.563.563 0 1 0 .002 1.125.563.563 0 0 0-.002-1.125" opacity="0.08"/><path fill="#00A76F" d="M54.54 16.408c-.464 0-.928-.176-1.282-.53a1.8 1.8 0 0 1-.53-1.281c0-.484.188-.94.53-1.282a1.814 1.814 0 0 1 3.094 1.282 1.8 1.8 0 0 1-.53 1.281c-.354.354-.818.53-1.282.53m0-2.374a.56.56 0 0 0-.562.563.563.563 0 1 0 .563-.562" opacity="0.24"/><path fill="#00A76F" d="M13.172 29.595a1.8 1.8 0 0 1-1.282-.53 1.815 1.815 0 0 1 0-2.563 1.815 1.815 0 0 1 2.564 0 1.815 1.815 0 0 1 0 2.563 1.8 1.8 0 0 1-1.282.53m0-2.374a.563.563 0 1 0 .001 1.125.563.563 0 0 0-.001-1.125" opacity="0.08"/><path fill="#00A76F" d="M12.366 35.213a.62.62 0 0 1-.442-.183l-.745-.746-.746.746a.625.625 0 0 1-.884-.884l1.188-1.188a.625.625 0 0 1 .884 0l1.187 1.188a.625.625 0 0 1-.442 1.067" opacity="0.48"/><path fill="#00A76F" d="M53.353 53.313a.62.62 0 0 1-.443-.183l-.745-.746-.745.746a.625.625 0 0 1-.884-.884l1.187-1.188a.625.625 0 0 1 .884 0l1.188 1.188a.625.625 0 0 1-.443 1.067" opacity="0.24"/><path fill="#FFAB00" d="M48 34.708 43.313 29.6a1.82 1.82 0 0 0-1.34-.59h-5.82v13.982h2.226a3.184 3.184 0 1 1 6.368 0h1.433a1.82 1.82 0 0 0 1.82-1.82z"/><circle cx="41.5629" cy="42.993" r="3.18402" fill="#B76E00"/><path fill="#FFD666" fill-rule="evenodd" d="M36.153 34.708v8.285h-9.69a3.184 3.184 0 1 0-6.37 0H17.82a1.82 1.82 0 0 1-1.82-1.82V25.981a1.82 1.82 0 0 1 1.82-1.82h1.974a5.961 5.961 0 0 0 11.915 0h2.625a1.82 1.82 0 0 1 1.82 1.82z" clip-rule="evenodd"/><path fill="#61F3F3" fill-rule="evenodd" d="M31.712 23.961q0 .1-.003.2a5.961 5.961 0 0 1-11.919-.2 5.961 5.961 0 0 1 11.922 0" clip-rule="evenodd"/><path fill="#B76E00" fill-rule="evenodd" d="M23.278 39.809a3.184 3.184 0 1 1 0 6.368 3.184 3.184 0 0 1 0-6.368" clip-rule="evenodd"/><path fill="#006C9C" fill-rule="evenodd" d="M27.74 26.346a.52.52 0 0 1-.356-.141l-1.99-1.863a.52.52 0 0 1-.164-.38v-3.867a.522.522 0 0 1 1.043 0v3.64l1.824 1.709a.522.522 0 0 1-.356.902" clip-rule="evenodd"/></g><defs><linearGradient id="b" x1="43.8414" x2="70.1982" y1="68.4015" y2="12.921" gradientUnits="userSpaceOnUse"><stop/><stop offset="1" stop-opacity="0.01"/></linearGradient><clipPath id="a"><path fill="#fff" d="M0 0h64v64H0z"/></clipPath></defs></svg>