<svg xmlns="http://www.w3.org/2000/svg" width="64" height="64" fill="none" viewBox="0 0 64 64"><g clip-path="url(#a)"><mask id="c" width="64" height="53" x="0" y="7" maskUnits="userSpaceOnUse" style="mask-type:alpha"><path fill="url(#b)" fill-opacity="0.16" d="M58.935 16.664c-8.178-6.286-16.109-1.163-24.955-2.974-8.911-1.825-12.461-7.9-22.61-5.096-8.99 2.484-14.445 12.444-9.503 20.782 1.408 2.377 3.808 4.17 4.788 6.828C8.237 40.493 5.83 43.785 6.3 48c1.951 17.513 28.697 10.73 38.538 5.28C60.27 44.737 70.71 25.72 58.934 16.665"/></mask><g mask="url(#c)"><path fill="#00A76F" d="M58.935 16.664c-8.178-6.286-16.109-1.163-24.955-2.974-8.911-1.825-12.461-7.9-22.61-5.096-8.99 2.484-14.445 12.444-9.503 20.782 1.408 2.377 3.808 4.17 4.788 6.828C8.237 40.493 5.83 43.785 6.3 48c1.951 17.513 28.697 10.73 38.538 5.28C60.27 44.737 70.71 25.72 58.934 16.665"/></g><path fill="#00A76F" d="M51.397 10.297c-.465 0-.929-.177-1.282-.53a1.815 1.815 0 0 1 0-2.563 1.814 1.814 0 0 1 2.563 0 1.815 1.815 0 0 1 0 2.563c-.353.353-.817.53-1.281.53m0-2.374a.563.563 0 1 0 .002 1.125.563.563 0 0 0-.002-1.125" opacity="0.08"/><path fill="#00A76F" d="M54.54 16.408c-.464 0-.928-.176-1.282-.53a1.8 1.8 0 0 1-.53-1.281c0-.484.188-.94.53-1.282a1.814 1.814 0 0 1 3.094 1.282 1.8 1.8 0 0 1-.53 1.281c-.354.354-.818.53-1.282.53m0-2.374a.56.56 0 0 0-.562.563.563.563 0 1 0 .563-.562" opacity="0.24"/><path fill="#00A76F" d="M13.172 29.595a1.8 1.8 0 0 1-1.282-.53 1.815 1.815 0 0 1 0-2.563 1.815 1.815 0 0 1 2.564 0 1.815 1.815 0 0 1 0 2.563 1.8 1.8 0 0 1-1.282.53m0-2.374a.563.563 0 1 0 .001 1.125.563.563 0 0 0-.001-1.125" opacity="0.08"/><path fill="#00A76F" d="M12.366 35.213a.62.62 0 0 1-.442-.183l-.745-.746-.746.746a.625.625 0 0 1-.884-.884l1.188-1.188a.625.625 0 0 1 .884 0l1.187 1.188a.625.625 0 0 1-.442 1.067" opacity="0.48"/><path fill="#00A76F" d="M53.353 53.313a.62.62 0 0 1-.443-.183l-.745-.746-.745.746a.625.625 0 0 1-.884-.884l1.187-1.188a.625.625 0 0 1 .884 0l1.188 1.188a.625.625 0 0 1-.443 1.067" opacity="0.24"/><path fill="#61F3F3" d="m44.563 31.98 1.58-.64a2.97 2.97 0 0 0 1.659-3.822l-3.699-9.613a2.976 2.976 0 0 0-3.912-1.679l-18.477 7.66a2.976 2.976 0 0 0-1.645 3.79l.744 1.983 1.249 3.422h18.735z"/><path fill="#006C9C" d="m24.9 29.66-1.169-2.92 4.673-2.336 1.169 2.92zm13.795-2.838 5.257-2.338.448 1.007-5.257 2.338zm-3.511-1.166 7.593-3.504.461 1-7.593 3.504z"/><path fill="#000" d="M46.143 31.34c.048-.02.09-.05.137-.072a2.883 2.883 0 0 0-2.865-2.595H20.44l.37.988 1.252 3.42h18.735l3.766-1.102z" opacity="0.12"/><path fill="#FFD666" d="M18.893 29.775h23.42a2.893 2.893 0 0 1 2.893 2.893v12.399a2.893 2.893 0 0 1-2.893 2.893h-23.42A2.893 2.893 0 0 1 16 45.067V32.668a2.893 2.893 0 0 1 2.893-2.893"/><path fill="#B76E00" d="M36.94 46.307a3.306 3.306 0 1 1 0-6.613 3.306 3.306 0 0 1 0 6.613m0-5.51a2.204 2.204 0 1 0 0 4.407 2.204 2.204 0 0 0 0-4.408"/><path fill="#B76E00" d="M40.247 46.307a3.306 3.306 0 1 1 0-6.613 3.306 3.306 0 0 1 0 6.613m0-5.51a2.204 2.204 0 1 0 0 4.407 2.204 2.204 0 0 0 0-4.408M16 33.081h29.206v4.409H16z"/></g><defs><linearGradient id="b" x1="43.8414" x2="70.1982" y1="68.4015" y2="12.921" gradientUnits="userSpaceOnUse"><stop/><stop offset="1" stop-opacity="0.01"/></linearGradient><clipPath id="a"><path fill="#fff" d="M0 0h64v64H0z"/></clipPath></defs></svg>