<svg xmlns="http://www.w3.org/2000/svg" width="64" height="64" fill="none" viewBox="0 0 64 64"><g clip-path="url(#a)"><mask id="c" width="64" height="53" x="0" y="7" maskUnits="userSpaceOnUse" style="mask-type:alpha"><path fill="url(#b)" fill-opacity="0.16" d="M58.935 16.664c-8.178-6.286-16.109-1.163-24.955-2.974-8.911-1.825-12.461-7.9-22.61-5.096-8.99 2.484-14.445 12.444-9.503 20.782 1.408 2.377 3.808 4.17 4.788 6.828C8.237 40.493 5.83 43.785 6.3 48c1.951 17.513 28.697 10.73 38.538 5.28C60.27 44.737 70.71 25.72 58.934 16.665"/></mask><g mask="url(#c)"><path fill="#00A76F" d="M58.935 16.664c-8.178-6.286-16.109-1.163-24.955-2.974-8.911-1.825-12.461-7.9-22.61-5.096-8.99 2.484-14.445 12.444-9.503 20.782 1.408 2.377 3.808 4.17 4.788 6.828C8.237 40.493 5.83 43.785 6.3 48c1.951 17.513 28.697 10.73 38.538 5.28C60.27 44.737 70.71 25.72 58.934 16.665"/></g><path fill="#00A76F" d="M51.397 10.297c-.465 0-.929-.177-1.282-.53a1.815 1.815 0 0 1 0-2.563 1.814 1.814 0 0 1 2.563 0 1.815 1.815 0 0 1 0 2.563c-.353.353-.817.53-1.281.53m0-2.374a.563.563 0 1 0 .002 1.125.563.563 0 0 0-.002-1.125" opacity="0.08"/><path fill="#00A76F" d="M54.54 16.408c-.464 0-.928-.176-1.282-.53a1.8 1.8 0 0 1-.53-1.281c0-.484.188-.94.53-1.282a1.814 1.814 0 0 1 3.094 1.282 1.8 1.8 0 0 1-.53 1.281c-.354.354-.818.53-1.282.53m0-2.374a.56.56 0 0 0-.562.563.563.563 0 1 0 .563-.562" opacity="0.24"/><path fill="#00A76F" d="M13.172 29.595a1.8 1.8 0 0 1-1.282-.53 1.815 1.815 0 0 1 0-2.563 1.815 1.815 0 0 1 2.564 0 1.815 1.815 0 0 1 0 2.563 1.8 1.8 0 0 1-1.282.53m0-2.374a.563.563 0 1 0 .001 1.125.563.563 0 0 0-.001-1.125" opacity="0.08"/><path fill="#00A76F" d="M12.366 35.213a.62.62 0 0 1-.442-.183l-.745-.746-.746.746a.625.625 0 0 1-.884-.884l1.188-1.188a.625.625 0 0 1 .884 0l1.187 1.188a.625.625 0 0 1-.442 1.067" opacity="0.48"/><path fill="#00A76F" d="M53.353 53.313a.62.62 0 0 1-.443-.183l-.745-.746-.745.746a.625.625 0 0 1-.884-.884l1.187-1.188a.625.625 0 0 1 .884 0l1.188 1.188a.625.625 0 0 1-.443 1.067" opacity="0.24"/><path fill="#FFD666" d="M48 25.363v13.272a2.19 2.19 0 0 1-1.218 1.97l-14.136 7.163c-.308.153-.645.23-.98.23h-.015a2.2 2.2 0 0 1-1.005-.248l-.005-.004-13.46-7.143A2.2 2.2 0 0 1 16 38.651V25.347a2.2 2.2 0 0 1 1.181-1.951l13.465-7.147a2.2 2.2 0 0 1 2-.018l.006.002 14.13 7.16A2.19 2.19 0 0 1 48 25.363"/><path fill="#FFAB00" d="M48 25.363v13.272a2.19 2.19 0 0 1-1.218 1.97l-14.136 7.163c-.308.153-.645.23-.98.23h-.015V32.261l16.084-7.948c.171.315.265.674.265 1.05"/><path fill="#FFF5CC" d="m47.736 24.313-7.163 3.54-1.762.87-7.159 3.538-15.386-7.965c.205-.377.52-.693.916-.9l5.773-3.064 2-1.062 5.692-3.02a2.2 2.2 0 0 1 2-.02l.006.003 14.13 7.16c.415.207.743.53.953.92"/><path fill="#FFD666" d="M40.612 28.119v4.93a.938.938 0 0 1-1.874 0v-4.365l-7.087-3.75-8.697-4.602 2.001-1.062 6.696 3.543 8.462 4.478.004.002.053.032.029.017v.001q.11.075.193.173l.006.008.038.05.018.025.024.039q.013.02.024.042l.012.024.028.06.003.009a.8.8 0 0 1 .067.346"/><path fill="#B76E00" d="M40.61 28.119v4.93a.938.938 0 0 1-1.873 0v-4.29l1.834-.907a.8.8 0 0 1 .04.267"/></g><defs><linearGradient id="b" x1="43.8414" x2="70.1982" y1="68.4015" y2="12.921" gradientUnits="userSpaceOnUse"><stop/><stop offset="1" stop-opacity="0.01"/></linearGradient><clipPath id="a"><path fill="#fff" d="M0 0h64v64H0z"/></clipPath></defs></svg>