<svg xmlns="http://www.w3.org/2000/svg" width="64" height="64" fill="none" viewBox="0 0 64 64"><g clip-path="url(#a)"><mask id="c" width="64" height="53" x="0" y="7" maskUnits="userSpaceOnUse" style="mask-type:alpha"><path fill="url(#b)" fill-opacity="0.16" d="M58.935 16.664c-8.178-6.286-16.109-1.163-24.955-2.974-8.911-1.825-12.461-7.9-22.61-5.096-8.99 2.484-14.445 12.444-9.503 20.782 1.408 2.377 3.808 4.17 4.788 6.828C8.237 40.493 5.83 43.785 6.3 48c1.951 17.513 28.697 10.73 38.538 5.28C60.27 44.737 70.71 25.72 58.934 16.665"/></mask><g mask="url(#c)"><path fill="#00A76F" d="M58.935 16.664c-8.178-6.286-16.109-1.163-24.955-2.974-8.911-1.825-12.461-7.9-22.61-5.096-8.99 2.484-14.445 12.444-9.503 20.782 1.408 2.377 3.808 4.17 4.788 6.828C8.237 40.493 5.83 43.785 6.3 48c1.951 17.513 28.697 10.73 38.538 5.28C60.27 44.737 70.71 25.72 58.934 16.665"/></g><path fill="#00A76F" d="M51.397 10.297c-.465 0-.929-.177-1.282-.53a1.815 1.815 0 0 1 0-2.563 1.814 1.814 0 0 1 2.563 0 1.815 1.815 0 0 1 0 2.563c-.353.353-.817.53-1.281.53m0-2.374a.563.563 0 1 0 .002 1.125.563.563 0 0 0-.002-1.125" opacity="0.08"/><path fill="#00A76F" d="M54.54 16.408c-.464 0-.928-.176-1.282-.53a1.8 1.8 0 0 1-.53-1.281c0-.484.188-.94.53-1.282a1.814 1.814 0 0 1 3.094 1.282 1.8 1.8 0 0 1-.53 1.281c-.354.354-.818.53-1.282.53m0-2.374a.56.56 0 0 0-.562.563.563.563 0 1 0 .563-.562" opacity="0.24"/><path fill="#00A76F" d="M13.172 29.595a1.8 1.8 0 0 1-1.282-.53 1.815 1.815 0 0 1 0-2.563 1.815 1.815 0 0 1 2.564 0 1.815 1.815 0 0 1 0 2.563 1.8 1.8 0 0 1-1.282.53m0-2.374a.563.563 0 1 0 .001 1.125.563.563 0 0 0-.001-1.125" opacity="0.08"/><path fill="#00A76F" d="M12.366 35.213a.62.62 0 0 1-.442-.183l-.745-.746-.746.746a.625.625 0 0 1-.884-.884l1.188-1.188a.625.625 0 0 1 .884 0l1.187 1.188a.625.625 0 0 1-.442 1.067" opacity="0.48"/><path fill="#00A76F" d="M53.353 53.313a.62.62 0 0 1-.443-.183l-.745-.746-.745.746a.625.625 0 0 1-.884-.884l1.187-1.188a.625.625 0 0 1 .884 0l1.188 1.188a.625.625 0 0 1-.443 1.067" opacity="0.24"/><path fill="#FFD666" d="M34.029 42.55a9.63 9.63 0 0 0 7.156-11.587 9.63 9.63 0 0 0-11.587-7.156 9.63 9.63 0 0 0-7.157 11.587 9.63 9.63 0 0 0 11.588 7.157"/><path fill="#FFAB00" d="M31.814 23.555v19.264c5.31 0 9.632-4.32 9.632-9.632s-4.321-9.632-9.632-9.632"/><path fill="#00B8D9" d="M42.287 22.713a14.7 14.7 0 0 0-8.36-4.19l.923-.923a.938.938 0 0 0-1.326-1.326L31.15 18.65a.937.937 0 0 0 0 1.325l2.374 2.375a.935.935 0 0 0 1.326 0 .937.937 0 0 0 0-1.326l-.529-.529c5.938 1.171 10.43 6.417 10.43 12.693 0 7.134-5.804 12.938-12.938 12.938s-12.938-5.804-12.938-12.938c0-2.722.835-5.326 2.416-7.53A12.9 12.9 0 0 1 27.461 21a.938.938 0 0 0-.63-1.766 14.77 14.77 0 0 0-7.064 5.331A14.7 14.7 0 0 0 17 33.187c0 3.957 1.54 7.677 4.339 10.474A14.72 14.72 0 0 0 31.813 48a14.7 14.7 0 0 0 10.474-4.339 14.72 14.72 0 0 0 4.339-10.474c0-3.957-1.541-7.676-4.339-10.474"/><path fill="#B76E00" d="M32.96 32.257c-.742-.262-1.562-.578-2.014-.933-.114-.09-.162-.314-.118-.548.023-.122.13-.532.543-.656.725-.218 1.22.07 1.398.203a.937.937 0 1 0 1.123-1.502 3.4 3.4 0 0 0-1.191-.552v-.252a.937.937 0 1 0-1.875 0v.31c-.945.286-1.65 1.09-1.84 2.102-.177.935.131 1.843.803 2.37.664.521 1.615.897 2.545 1.226.733.259.755.82.703 1.132-.088.52-.525 1.082-1.28 1.087-.787.005-1.011-.03-1.606-.419a.937.937 0 1 0-1.026 1.57c.646.422 1.13.607 1.701.68v.282a.938.938 0 0 0 1.875 0v-.377a3.1 3.1 0 0 0 1.193-.684 3.22 3.22 0 0 0 .992-1.828c.24-1.429-.534-2.719-1.927-3.211"/><path fill="#00B8D9" d="m33.927 18.524.924-.924a.937.937 0 1 0-1.326-1.326L31.15 18.65a.937.937 0 0 0 0 1.325l2.374 2.375a.935.935 0 0 0 1.326 0 .937.937 0 0 0 0-1.326l-.53-.529c5.938 1.171 10.43 6.417 10.43 12.693 0 7.134-5.803 12.938-12.937 12.938V48c3.956 0 7.676-1.54 10.474-4.339a14.72 14.72 0 0 0 4.339-10.474c0-3.957-1.541-7.676-4.34-10.474a14.7 14.7 0 0 0-8.36-4.19"/><path fill="#B76E00" d="M32.958 32.257a16 16 0 0 1-1.144-.445v2.024q.258.097.52.189c.733.259.754.82.702 1.132-.085.507-.504 1.052-1.222 1.085v3.05a.937.937 0 0 0 .886-.935v-.377a3.1 3.1 0 0 0 1.194-.684 3.22 3.22 0 0 0 .99-1.828c.241-1.428-.533-2.719-1.926-3.211m-1.144-5.175v2.962c.483-.022.815.175.954.279a.937.937 0 1 0 1.123-1.502 3.4 3.4 0 0 0-1.19-.552v-.252c0-.5-.394-.908-.887-.935"/></g><defs><linearGradient id="b" x1="43.8414" x2="70.1982" y1="68.4015" y2="12.921" gradientUnits="userSpaceOnUse"><stop/><stop offset="1" stop-opacity="0.01"/></linearGradient><clipPath id="a"><path fill="#fff" d="M0 0h64v64H0z"/></clipPath></defs></svg>