<svg xmlns="http://www.w3.org/2000/svg" width="200" height="200" fill="none" viewBox="0 0 200 200"><path fill="#919EAB" d="M24 48a8 8 0 0 1 8-8h136a8 8 0 0 1 8 8v16a8 8 0 0 1-8 8H32a8 8 0 0 1-8-8zm0 44a8 8 0 0 1 8-8h136a8 8 0 0 1 8 8v16a8 8 0 0 1-8 8H32a8 8 0 0 1-8-8zm0 44a8 8 0 0 1 8-8h136a8 8 0 0 1 8 8v16a8 8 0 0 1-8 8H32a8 8 0 0 1-8-8z" opacity="0.24"/><path fill="#919EAB" d="m161.994 52.348-5.008 4.898-5.009-4.898a1.185 1.185 0 0 0-1.635.014 1.123 1.123 0 0 0-.015 1.6l5.834 5.704a1.185 1.185 0 0 0 1.649 0l5.834-5.704c.303-.287.425-.711.318-1.11a1.15 1.15 0 0 0-.833-.815 1.19 1.19 0 0 0-1.135.311m0 44-5.008 4.898-5.009-4.898a1.185 1.185 0 0 0-1.635.014 1.123 1.123 0 0 0-.015 1.6l5.834 5.704a1.185 1.185 0 0 0 1.649 0l5.834-5.704c.303-.287.425-.711.318-1.11a1.15 1.15 0 0 0-.833-.815 1.19 1.19 0 0 0-1.135.311m0 44-5.008 4.898-5.009-4.898a1.185 1.185 0 0 0-1.635.014 1.124 1.124 0 0 0-.015 1.6l5.834 5.704a1.185 1.185 0 0 0 1.649 0l5.834-5.704c.303-.287.425-.711.318-1.11a1.16 1.16 0 0 0-.833-.815 1.19 1.19 0 0 0-1.135.311" opacity="0.48"/><rect width="40" height="10" x="36" y="51" fill="#919EAB" rx="5"/><rect width="64" height="10" x="36" y="95" fill="#919EAB" opacity="0.48" rx="5"/><rect width="80" height="10" x="36" y="139" fill="#919EAB" opacity="0.24" rx="5"/></svg>