<svg xmlns="http://www.w3.org/2000/svg" width="200" height="200" fill="none" viewBox="0 0 200 200"><path fill="#919EAB" d="M100 156c30.928 0 56-25.072 56-56s-25.072-56-56-56-56 25.072-56 56 25.072 56 56 56" opacity="0.24"/><path fill="#919EAB" d="M100 100.426c5.985 0 10.837-4.573 10.837-10.213S105.985 80 100 80c-5.986 0-10.838 4.572-10.838 10.213s4.852 10.213 10.838 10.213m-7.456 3.178a25.04 25.04 0 0 1 14.911 0c4.767 1.488 8.719 4.797 10.96 9.178l1.224 2.392c.842 1.645.162 3.648-1.519 4.473a3.5 3.5 0 0 1-1.525.353H83.404c-1.88 0-3.404-1.492-3.404-3.333 0-.519.124-1.03.36-1.493l1.224-2.392c2.242-4.381 6.193-7.69 10.96-9.178"/></svg>