<svg xmlns="http://www.w3.org/2000/svg" width="200" height="200" fill="none" viewBox="0 0 200 200"><path fill="#919EAB" d="M67.655 75.39H53.49c-4.516 0-8.176 3.673-8.176 8.204v32.812c0 4.531 3.66 8.203 8.176 8.203h14.166a4.09 4.09 0 0 0 3.402-1.826l13.628-20.508a4.11 4.11 0 0 0 0-4.55L71.057 77.217a4.09 4.09 0 0 0-3.402-1.826"/><path fill="#919EAB" d="M138.622 75.39H85.66a4.09 4.09 0 0 0-3.605 2.167 4.11 4.11 0 0 0 .203 4.21l10.604 15.958a4.11 4.11 0 0 1 0 4.55l-10.604 15.958a4.11 4.11 0 0 0-.203 4.21 4.09 4.09 0 0 0 3.605 2.166h52.962a4.09 4.09 0 0 0 3.402-1.826l10.604-15.958a12.34 12.34 0 0 0 0-13.65l-10.604-15.958a4.09 4.09 0 0 0-3.402-1.826" opacity="0.24"/></svg>