<svg xmlns="http://www.w3.org/2000/svg" width="200" height="200" fill="none" viewBox="0 0 200 200"><path fill="#919EAB" fill-rule="evenodd" d="M161.888 90.531c-1.815-11.073-7.459-19.328-16.33-23.757-5.443-2.617-11.088-3.825-17.136-3.825-8.266 0-15.926 2.416-22.781 4.63l-.605.186c-4.978 1.532-9.212 2.834-12.7 2.834-3.025 0-5.242-1.006-6.855-3.02-1.3-1.67-.546-4.194.369-7.259l.236-.794.043-.152c1.204-4.205 2.738-9.565-.648-13.941-2.016-2.617-5.443-4.027-9.475-4.027s-8.266 1.41-11.693 3.624C47.58 56.506 37.5 75.633 37.5 96.17c0 34.629 28.224 62.815 62.9 62.815 28.022 0 52.819-18.724 60.48-45.702.605-2.819 2.621-12.483 1.008-22.75m-33.668 15.503c-7.862 0-14.112-6.242-14.112-14.093 0-7.852 6.25-14.094 14.112-14.094 7.863 0 14.112 6.242 14.112 14.094s-6.249 14.093-14.112 14.093m-36.288 26.173c0 4.43 3.63 8.053 8.064 8.053 4.436 0 8.064-3.623 8.064-8.053 0-4.429-3.628-8.053-8.064-8.053-4.435 0-8.064 3.624-8.064 8.053m-21.03-4.074c-4.03-.437-7.194-3.87-7.194-8.006 0-3.875 2.778-7.135 6.444-7.889a8 8 0 0 1 1.62-.164c4.435 0 8.064 3.624 8.064 8.053 0 3.876-2.778 7.135-6.444 7.889a8 8 0 0 1-1.62.164q-.442 0-.87-.047M55.644 91.941c0-4.43 3.628-8.053 8.064-8.053 4.435 0 8.064 3.623 8.064 8.053s-3.63 8.053-8.064 8.053c-4.436 0-8.065-3.624-8.065-8.053" clip-rule="evenodd" opacity="0.24"/><path fill="#919EAB" fill-rule="evenodd" d="M91.932 132.207c0 4.43 3.63 8.053 8.064 8.053 4.436 0 8.064-3.623 8.064-8.053 0-4.429-3.628-8.053-8.064-8.053-4.435 0-8.064 3.624-8.064 8.053m-21.03-4.074c-4.03-.437-7.194-3.87-7.194-8.006 0-3.875 2.778-7.135 6.444-7.889a8 8 0 0 1 1.62-.164c4.435 0 8.064 3.624 8.064 8.053 0 3.876-2.778 7.135-6.444 7.889a8 8 0 0 1-2.49.117M55.644 91.941c0-4.43 3.628-8.053 8.064-8.053 4.435 0 8.064 3.623 8.064 8.053s-3.63 8.053-8.064 8.053c-4.436 0-8.065-3.624-8.065-8.053" clip-rule="evenodd" opacity="0.48"/><path fill="#919EAB" fill-rule="evenodd" d="M128.22 106.034c-7.862 0-14.112-6.242-14.112-14.093 0-7.852 6.25-14.094 14.112-14.094 7.863 0 14.113 6.242 14.113 14.094s-6.25 14.093-14.113 14.093" clip-rule="evenodd"/></svg>