<svg xmlns="http://www.w3.org/2000/svg" width="200" height="200" fill="none" viewBox="0 0 200 200"><path fill="#919EAB" d="M28 60c0-6.627 5.373-12 12-12h120c6.627 0 12 5.373 12 12v12H28z" opacity="0.48"/><path fill="#919EAB" d="M28 72v68c0 6.627 5.373 12 12 12h120c6.627 0 12-5.373 12-12V72z" opacity="0.24"/><path fill="#919EAB" d="M40 95a6 6 0 0 1 6-6h24a6 6 0 0 1 6 6v8a6 6 0 0 1-6 6H46a6 6 0 0 1-6-6zm42 0a6 6 0 0 1 6-6h66a6 6 0 0 1 6 6v8a6 6 0 0 1-6 6H88a6 6 0 0 1-6-6z" opacity="0.48"/><path fill="#919EAB" d="M40 121a6 6 0 0 1 6-6h24a6 6 0 0 1 6 6v8a6 6 0 0 1-6 6H46a6 6 0 0 1-6-6zm42 0a6 6 0 0 1 6-6h66a6 6 0 0 1 6 6v8a6 6 0 0 1-6 6H88a6 6 0 0 1-6-6z" opacity="0.24"/></svg>