<svg xmlns="http://www.w3.org/2000/svg" width="201" height="200" fill="none" viewBox="0 0 201 200"><g filter="url(#a)"><path fill="#fff" d="m145.141 155.648-49.118-26.031a3.94 3.94 0 0 0-4.051.234l-37.559 26.032a3.905 3.905 0 0 0-1.498 4.383A3.9 3.9 0 0 0 56.63 163h86.676a3.9 3.9 0 0 0 3.786-2.969 3.89 3.89 0 0 0-1.951-4.383"/></g><g filter="url(#b)"><path fill="#00A76F" d="M134.4 87.617a3.91 3.91 0 0 0-3.73-2.742H58.526a3.91 3.91 0 0 0-3.809 3.063l-13.12 59.085a3.92 3.92 0 0 0 1.631 4.086c.656.446 1.42.664 2.178.664a3.86 3.86 0 0 0 2.224-.695l85.256-59.086a3.91 3.91 0 0 0 1.514-4.375"/></g><path fill="#fff" d="M150.027 96.172a3.9 3.9 0 0 0-2.389-2.79 3.9 3.9 0 0 0-3.645.423l-37.566 26.031a3.89 3.89 0 0 0-1.67 3.438 3.89 3.89 0 0 0 2.068 3.218l49.11 26.032a3.9 3.9 0 0 0 1.827.46c.835 0 1.67-.265 2.365-.804a3.91 3.91 0 0 0 1.452-3.953z"/><path fill="#007867" d="M150.027 96.172a3.9 3.9 0 0 0-2.389-2.79 3.9 3.9 0 0 0-3.645.423l-37.566 26.031a3.89 3.89 0 0 0-1.67 3.438 3.89 3.89 0 0 0 2.068 3.218l49.11 26.032a3.9 3.9 0 0 0 1.827.46c.835 0 1.67-.265 2.365-.804a3.91 3.91 0 0 0 1.452-3.953z" opacity="0.24"/><g filter="url(#c)"><path fill="#FFAB00" d="M66.332 38C81.396 38 93.65 50.266 93.65 65.344c0 14.031-21.917 38.883-24.415 41.672a3.92 3.92 0 0 1-2.903 1.296 3.92 3.92 0 0 1-2.904-1.296c-2.497-2.789-24.414-27.641-24.414-41.672C39.014 50.266 51.268 38 66.332 38m0 15.625c-6.466 0-11.708 5.247-11.708 11.719s5.242 11.719 11.708 11.719 11.708-5.247 11.708-11.72c0-6.471-5.242-11.718-11.708-11.718"/></g><defs><filter id="a" width="126.476" height="65.835" x="44.7334" y="121.165" color-interpolation-filters="sRGB" filterUnits="userSpaceOnUse"><feFlood flood-opacity="0" result="BackgroundImageFix"/><feColorMatrix in="SourceAlpha" result="hardAlpha" values="0 0 0 0 0 0 0 0 0 0 0 0 0 0 0 0 0 0 127 0"/><feOffset dx="8" dy="8"/><feGaussianBlur stdDeviation="8"/><feColorMatrix values="0 0 0 0 0.770709 0 0 0 0 0.792653 0 0 0 0 0.818587 0 0 0 0.16 0"/><feBlend in2="BackgroundImageFix" result="effect1_dropShadow_1587_120562"/><feBlend in="SourceGraphic" in2="effect1_dropShadow_1587_120562" result="shape"/><feColorMatrix in="SourceAlpha" result="hardAlpha" values="0 0 0 0 0 0 0 0 0 0 0 0 0 0 0 0 0 0 127 0"/><feOffset dx="-2" dy="-2"/><feGaussianBlur stdDeviation="2"/><feComposite in2="hardAlpha" k2="-1" k3="1" operator="arithmetic"/><feColorMatrix values="0 0 0 0 0.717499 0 0 0 0 0.740813 0 0 0 0 0.768367 0 0 0 0.48 0"/><feBlend in2="shape" result="effect2_innerShadow_1587_120562"/></filter><filter id="b" width="125.068" height="98.8984" x="33.5059" y="76.875" color-interpolation-filters="sRGB" filterUnits="userSpaceOnUse"><feFlood flood-opacity="0" result="BackgroundImageFix"/><feColorMatrix in="SourceAlpha" result="hardAlpha" values="0 0 0 0 0 0 0 0 0 0 0 0 0 0 0 0 0 0 127 0"/><feOffset dx="8" dy="8"/><feGaussianBlur stdDeviation="8"/><feColorMatrix values="0 0 0 0 0 0 0 0 0 0.470588 0 0 0 0 0.403922 0 0 0 0.16 0"/><feBlend in2="BackgroundImageFix" result="effect1_dropShadow_1587_120562"/><feBlend in="SourceGraphic" in2="effect1_dropShadow_1587_120562" result="shape"/><feColorMatrix in="SourceAlpha" result="hardAlpha" values="0 0 0 0 0 0 0 0 0 0 0 0 0 0 0 0 0 0 127 0"/><feOffset dx="-2" dy="-2"/><feGaussianBlur stdDeviation="2"/><feComposite in2="hardAlpha" k2="-1" k3="1" operator="arithmetic"/><feColorMatrix values="0 0 0 0 0 0 0 0 0 0.470588 0 0 0 0 0.403922 0 0 0 0.48 0"/><feBlend in2="shape" result="effect2_innerShadow_1587_120562"/></filter><filter id="c" width="86.6362" height="102.312" x="31.0137" y="30" color-interpolation-filters="sRGB" filterUnits="userSpaceOnUse"><feFlood flood-opacity="0" result="BackgroundImageFix"/><feColorMatrix in="SourceAlpha" result="hardAlpha" values="0 0 0 0 0 0 0 0 0 0 0 0 0 0 0 0 0 0 127 0"/><feOffset dx="8" dy="8"/><feGaussianBlur stdDeviation="8"/><feColorMatrix values="0 0 0 0 0.717647 0 0 0 0 0.431373 0 0 0 0 0 0 0 0 0.16 0"/><feBlend in2="BackgroundImageFix" result="effect1_dropShadow_1587_120562"/><feBlend in="SourceGraphic" in2="effect1_dropShadow_1587_120562" result="shape"/><feColorMatrix in="SourceAlpha" result="hardAlpha" values="0 0 0 0 0 0 0 0 0 0 0 0 0 0 0 0 0 0 127 0"/><feOffset dx="-2" dy="-2"/><feGaussianBlur stdDeviation="2"/><feComposite in2="hardAlpha" k2="-1" k3="1" operator="arithmetic"/><feColorMatrix values="0 0 0 0 0.717647 0 0 0 0 0.431373 0 0 0 0 0 0 0 0 0.48 0"/><feBlend in2="shape" result="effect2_innerShadow_1587_120562"/></filter></defs></svg>