<svg xmlns="http://www.w3.org/2000/svg" width="200" height="200" fill="none" viewBox="0 0 200 200"><g filter="url(#a)"><path fill="#FFAB00" d="M95.391 38.002q-2.916.113-4.568.291A61 61 0 0 0 74.7 42.319a59.6 59.6 0 0 0-19.287 12.485 57.5 57.5 0 0 0-12.887 18.683A56 56 0 0 0 38 95.525v2.14c0 1.095.887 1.982 1.982 1.982h55.486a1.98 1.98 0 0 0 1.981-1.982V39.982a1.98 1.98 0 0 0-2.058-1.98"/></g><g filter="url(#b)"><path fill="#fff" d="M160.352 100.561q-.128-3.12-.333-4.873a59.55 59.55 0 0 0-17.007-35.158 59.5 59.5 0 0 0-19.287-12.905 59.4 59.4 0 0 0-16.269-4.176q-1.603-.177-4.422-.287a1.98 1.98 0 0 0-2.058 1.902l-.001.077v54.51a2.97 2.97 0 0 0 2.972 2.973h54.426a1.983 1.983 0 0 0 1.979-2.063"/></g><g filter="url(#c)"><path fill="#00A76F" d="M41.581 104.673q.067 1.935.165 3.083a59.6 59.6 0 0 0 9.798 27.941 59.46 59.46 0 0 0 26.68 21.925 59.37 59.37 0 0 0 34.349 3.388 59.4 59.4 0 0 0 26.156-12.402q.523-.43 1.207-1.039a3.96 3.96 0 0 0 .17-5.761l-37.97-38.021a3.96 3.96 0 0 0-2.805-1.163H43.563a1.98 1.98 0 0 0-1.982 2.049"/></g><path fill="#fff" d="M146.92 143.427q.383-.427.677-.773a64.5 64.5 0 0 0 15.229-37.081q.018-.25.035-.541a3.96 3.96 0 0 0-3.957-4.194h-56.323c-.777 0-1.408.631-1.408 1.408v.587c0 .526.209 1.031.581 1.403l39.414 39.349a3.963 3.963 0 0 0 5.752-.158"/><path fill="#007867" d="M146.92 143.427q.383-.427.677-.773a64.5 64.5 0 0 0 15.229-37.081q.018-.25.035-.541a3.96 3.96 0 0 0-3.957-4.194h-56.323c-.777 0-1.408.631-1.408 1.408v.587c0 .526.209 1.031.581 1.403l39.414 39.349a3.963 3.963 0 0 0 5.752-.158" opacity="0.12"/><defs><filter id="a" width="91.4495" height="93.6472" x="30" y="30" color-interpolation-filters="sRGB" filterUnits="userSpaceOnUse"><feFlood flood-opacity="0" result="BackgroundImageFix"/><feColorMatrix in="SourceAlpha" result="hardAlpha" values="0 0 0 0 0 0 0 0 0 0 0 0 0 0 0 0 0 0 127 0"/><feOffset dx="8" dy="8"/><feGaussianBlur stdDeviation="8"/><feColorMatrix values="0 0 0 0 0.717647 0 0 0 0 0.431373 0 0 0 0 0 0 0 0 0.16 0"/><feBlend in2="BackgroundImageFix" result="effect1_dropShadow_1587_120561"/><feBlend in="SourceGraphic" in2="effect1_dropShadow_1587_120561" result="shape"/><feColorMatrix in="SourceAlpha" result="hardAlpha" values="0 0 0 0 0 0 0 0 0 0 0 0 0 0 0 0 0 0 127 0"/><feOffset dx="-2" dy="-2"/><feGaussianBlur stdDeviation="2"/><feComposite in2="hardAlpha" k2="-1" k3="1" operator="arithmetic"/><feColorMatrix values="0 0 0 0 0.717647 0 0 0 0 0.431373 0 0 0 0 0 0 0 0 0.48 0"/><feBlend in2="shape" result="effect2_innerShadow_1587_120561"/></filter><filter id="b" width="91.3794" height="91.4634" x="92.9746" y="35.1602" color-interpolation-filters="sRGB" filterUnits="userSpaceOnUse"><feFlood flood-opacity="0" result="BackgroundImageFix"/><feColorMatrix in="SourceAlpha" result="hardAlpha" values="0 0 0 0 0 0 0 0 0 0 0 0 0 0 0 0 0 0 127 0"/><feOffset dx="8" dy="8"/><feGaussianBlur stdDeviation="8"/><feColorMatrix values="0 0 0 0 0.770709 0 0 0 0 0.792653 0 0 0 0 0.818587 0 0 0 0.16 0"/><feBlend in2="BackgroundImageFix" result="effect1_dropShadow_1587_120561"/><feBlend in="SourceGraphic" in2="effect1_dropShadow_1587_120561" result="shape"/><feColorMatrix in="SourceAlpha" result="hardAlpha" values="0 0 0 0 0 0 0 0 0 0 0 0 0 0 0 0 0 0 127 0"/><feOffset dx="-2" dy="-2"/><feGaussianBlur stdDeviation="2"/><feComposite in2="hardAlpha" k2="-1" k3="1" operator="arithmetic"/><feColorMatrix values="0 0 0 0 0.717499 0 0 0 0 0.740813 0 0 0 0 0.768367 0 0 0 0.48 0"/><feBlend in2="shape" result="effect2_innerShadow_1587_120561"/></filter><filter id="c" width="131.686" height="91.5298" x="33.5801" y="94.624" color-interpolation-filters="sRGB" filterUnits="userSpaceOnUse"><feFlood flood-opacity="0" result="BackgroundImageFix"/><feColorMatrix in="SourceAlpha" result="hardAlpha" values="0 0 0 0 0 0 0 0 0 0 0 0 0 0 0 0 0 0 127 0"/><feOffset dx="8" dy="8"/><feGaussianBlur stdDeviation="8"/><feColorMatrix values="0 0 0 0 0 0 0 0 0 0.470588 0 0 0 0 0.403922 0 0 0 0.16 0"/><feBlend in2="BackgroundImageFix" result="effect1_dropShadow_1587_120561"/><feBlend in="SourceGraphic" in2="effect1_dropShadow_1587_120561" result="shape"/><feColorMatrix in="SourceAlpha" result="hardAlpha" values="0 0 0 0 0 0 0 0 0 0 0 0 0 0 0 0 0 0 127 0"/><feOffset dx="-2" dy="-2"/><feGaussianBlur stdDeviation="2"/><feComposite in2="hardAlpha" k2="-1" k3="1" operator="arithmetic"/><feColorMatrix values="0 0 0 0 0 0 0 0 0 0.470588 0 0 0 0 0.403922 0 0 0 0.48 0"/><feBlend in2="shape" result="effect2_innerShadow_1587_120561"/></filter></defs></svg>