<svg xmlns="http://www.w3.org/2000/svg" width="201" height="200" fill="none" viewBox="0 0 201 200"><g filter="url(#a)"><rect width="152" height="112" x="24.0137" y="44" fill="#fff" rx="12"/></g><g filter="url(#b)"><path fill="#00A76F" d="M144.524 132H55.517c-4.137 0-7.503-3.361-7.503-7.498V75.498c0-4.137 3.366-7.498 7.503-7.498h89.001c4.137 0 7.503 3.361 7.503 7.498v49.004c.006 4.137-3.361 7.498-7.497 7.498m-71.503-14.996v-13.801c0-1.89 2.38-2.726 3.561-1.249l4.878 6.095a2 2 0 0 0 3.123 0l4.877-6.095c1.181-1.477 3.562-.641 3.562 1.249v11.801a2 2 0 0 0 2 2h6a2 2 0 0 0 2-2V84.996a2 2 0 0 0-2-2h-7.039a2 2 0 0 0-1.562.75l-7.838 9.8a2 2 0 0 1-3.124 0l-7.838-9.8a2 2 0 0 0-1.562-.75h-7.04a2 2 0 0 0-2 2v30.003a2 2 0 0 0 2 2h7.996q.005 0 .005.005m64.172-13.703c1.112-1.297.19-3.301-1.518-3.301h-3.653a2 2 0 0 1-2-2V84.996a2 2 0 0 0-2-2h-6.006a2 2 0 0 0-2 2V98a2 2 0 0 1-2 2h-3.651c-1.709 0-2.631 2.004-1.519 3.302l10.657 12.43a2 2 0 0 0 3.037 0z"/></g><defs><filter id="a" width="184" height="144" x="16.0137" y="36" color-interpolation-filters="sRGB" filterUnits="userSpaceOnUse"><feFlood flood-opacity="0" result="BackgroundImageFix"/><feColorMatrix in="SourceAlpha" result="hardAlpha" values="0 0 0 0 0 0 0 0 0 0 0 0 0 0 0 0 0 0 127 0"/><feOffset dx="8" dy="8"/><feGaussianBlur stdDeviation="8"/><feColorMatrix values="0 0 0 0 0.770709 0 0 0 0 0.792653 0 0 0 0 0.818587 0 0 0 0.16 0"/><feBlend in2="BackgroundImageFix" result="effect1_dropShadow_2208_147554"/><feBlend in="SourceGraphic" in2="effect1_dropShadow_2208_147554" result="shape"/><feColorMatrix in="SourceAlpha" result="hardAlpha" values="0 0 0 0 0 0 0 0 0 0 0 0 0 0 0 0 0 0 127 0"/><feOffset dx="-2" dy="-2"/><feGaussianBlur stdDeviation="2"/><feComposite in2="hardAlpha" k2="-1" k3="1" operator="arithmetic"/><feColorMatrix values="0 0 0 0 0.717499 0 0 0 0 0.740813 0 0 0 0 0.768367 0 0 0 0.48 0"/><feBlend in2="shape" result="effect2_innerShadow_2208_147554"/></filter><filter id="b" width="120.008" height="80" x="44.0137" y="64" color-interpolation-filters="sRGB" filterUnits="userSpaceOnUse"><feFlood flood-opacity="0" result="BackgroundImageFix"/><feColorMatrix in="SourceAlpha" result="hardAlpha" values="0 0 0 0 0 0 0 0 0 0 0 0 0 0 0 0 0 0 127 0"/><feOffset dx="4" dy="4"/><feGaussianBlur stdDeviation="4"/><feColorMatrix values="0 0 0 0 0 0 0 0 0 0.470588 0 0 0 0 0.403922 0 0 0 0.16 0"/><feBlend in2="BackgroundImageFix" result="effect1_dropShadow_2208_147554"/><feBlend in="SourceGraphic" in2="effect1_dropShadow_2208_147554" result="shape"/><feColorMatrix in="SourceAlpha" result="hardAlpha" values="0 0 0 0 0 0 0 0 0 0 0 0 0 0 0 0 0 0 127 0"/><feOffset dx="-1" dy="-1"/><feGaussianBlur stdDeviation="1"/><feComposite in2="hardAlpha" k2="-1" k3="1" operator="arithmetic"/><feColorMatrix values="0 0 0 0 0 0 0 0 0 0.470588 0 0 0 0 0.403922 0 0 0 0.48 0"/><feBlend in2="shape" result="effect2_innerShadow_2208_147554"/></filter></defs></svg>