<svg xmlns="http://www.w3.org/2000/svg" width="200" height="200" fill="none" viewBox="0 0 200 200"><path fill="#fff" d="M85.377 62.449A34.6 34.6 0 0 1 99.6 60.093c-7.686 3.113-14.737 8.505-19.21 15.92-3.883 6.347-5.748 13.902-6.095 21.412-1.172 14.773 6.06 29.679 17.588 37.867 2.662 1.859 5.556 3.369 8.616 4.321-7.404.487-14.934-1.406-21.31-5.441-7.708-4.813-13.702-12.639-16.53-21.652-3.496-10.957-2.207-23.511 3.535-33.355 4.385-7.646 11.247-13.668 19.182-16.717"/><path fill="#fff" d="M55.076 66.474c6.41-4.445 14.14-6.783 21.804-6.409-7.133 3.132-13.838 7.88-18.303 14.667-5.406 8.023-7.305 18.147-6.978 27.861.648 13.144 7.646 25.682 18.02 32.86 2.521 1.782 5.322 3.028 8.154 4.129-7.816.526-15.767-1.672-22.355-6.154-7.34-4.934-12.981-12.644-15.62-21.422-2.342-7.68-2.4-16.123-.15-23.836 2.54-8.847 8.114-16.658 15.428-21.696"/><path fill="#007867" d="M55.076 66.474c6.41-4.445 14.14-6.783 21.804-6.409-7.133 3.132-13.838 7.88-18.303 14.667-5.406 8.023-7.305 18.147-6.978 27.861.648 13.144 7.646 25.682 18.02 32.86 2.521 1.782 5.322 3.028 8.154 4.129-7.816.526-15.767-1.672-22.355-6.154-7.34-4.934-12.981-12.644-15.62-21.422-2.342-7.68-2.4-16.123-.15-23.836 2.54-8.847 8.114-16.658 15.428-21.696" opacity="0.16"/><path fill="#007867" d="M85.377 62.449A34.6 34.6 0 0 1 99.6 60.093c-7.686 3.113-14.737 8.505-19.21 15.92-3.883 6.347-5.748 13.902-6.095 21.412-1.172 14.773 6.06 29.679 17.588 37.867 2.662 1.859 5.556 3.369 8.616 4.321-7.404.487-14.934-1.406-21.31-5.441-7.708-4.813-13.702-12.639-16.53-21.652-3.496-10.957-2.207-23.511 3.535-33.355 4.385-7.646 11.247-13.668 19.182-16.717" opacity="0.4"/><g filter="url(#a)"><path fill="#00A76F" d="M120.258 60.112c8.561-.653 17.313 1.565 24.508 6.26 9.697 6.215 16.466 16.818 17.884 28.265 1.443 10.57-1.631 21.656-8.327 29.958-5.81 7.354-14.295 12.539-23.503 14.304a39.7 39.7 0 0 1-20.171-1.312 39.7 39.7 0 0 1-16.587-10.731c-6.417-6.877-10.259-16.1-10.575-25.509-.361-8.685 2.242-17.458 7.298-24.53 6.705-9.573 17.805-15.9 29.473-16.705"/></g><defs><filter id="a" width="111.545" height="111.632" x="75.4541" y="52" color-interpolation-filters="sRGB" filterUnits="userSpaceOnUse"><feFlood flood-opacity="0" result="BackgroundImageFix"/><feColorMatrix in="SourceAlpha" result="hardAlpha" values="0 0 0 0 0 0 0 0 0 0 0 0 0 0 0 0 0 0 127 0"/><feOffset dx="8" dy="8"/><feGaussianBlur stdDeviation="8"/><feColorMatrix values="0 0 0 0 0 0 0 0 0 0.470588 0 0 0 0 0.403922 0 0 0 0.16 0"/><feBlend in2="BackgroundImageFix" result="effect1_dropShadow_1587_120569"/><feBlend in="SourceGraphic" in2="effect1_dropShadow_1587_120569" result="shape"/><feColorMatrix in="SourceAlpha" result="hardAlpha" values="0 0 0 0 0 0 0 0 0 0 0 0 0 0 0 0 0 0 127 0"/><feOffset dx="-2" dy="-2"/><feGaussianBlur stdDeviation="2"/><feComposite in2="hardAlpha" k2="-1" k3="1" operator="arithmetic"/><feColorMatrix values="0 0 0 0 0 0 0 0 0 0.470588 0 0 0 0 0.403922 0 0 0 0.48 0"/><feBlend in2="shape" result="effect2_innerShadow_1587_120569"/></filter></defs></svg>