<svg xmlns="http://www.w3.org/2000/svg" width="200" height="200" fill="none" viewBox="0 0 200 200"><g fill="#fff" filter="url(#a)"><path d="M152.919 84.322c5.565.007 10.074 4.513 10.081 10.073v44.323c-.007 5.56-4.516 10.066-10.081 10.073h-2.016v8.729a2.017 2.017 0 0 1-3.129 1.677l-15.621-10.406h-27.621c-5.565-.007-10.074-4.513-10.08-10.073V94.396c.006-5.561 4.515-10.067 10.08-10.074z"/><path d="M96.468 40c5.564.007 10.074 4.513 10.08 10.073v30.22h-2.016c-7.79.01-14.103 6.318-14.113 14.102v10.074H68.847l-15.615 10.405a2.018 2.018 0 0 1-3.135-1.676v-8.729H48.08c-5.565-.007-10.074-4.513-10.081-10.074V50.073c.007-5.56 4.516-10.066 10.08-10.073z"/></g><g filter="url(#b)"><path fill="#00A76F" d="m132.625 100.333 10.706 30.326h-6.903l-2.194-7.188h-11.016l-2.192 7.188h-6.905l10.667-30.326zm-3.887 4.69q-.685 2.646-3.909 13.077h7.879q-3.042-9.773-3.428-11.054a27 27 0 0 1-.542-2.023"/></g><g filter="url(#c)"><path fill="#FFAB00" d="M74.347 55.83c-.15.8-.222 1.615-.216 2.43v2.358h9.183a40 40 0 0 0 5.01-.254v5.625a47 47 0 0 0-4.792-.216h-.834a29 29 0 0 1-2.621 7.11 29.5 29.5 0 0 1-4.174 5.986A33 33 0 0 0 89.08 84.02a19.2 19.2 0 0 0-3.189 5.726 41.4 41.4 0 0 1-14.157-7.072 42.9 42.9 0 0 1-14.557 7.11 18.9 18.9 0 0 0-3.048-5.442 37.1 37.1 0 0 0 13.468-5.477 32.6 32.6 0 0 1-4.575-6.347 31.3 31.3 0 0 1-2.796-6.749H59.5a50 50 0 0 0-4.827.216v-5.62c1.65.188 3.311.273 4.972.253h8.64v-2.321a13 13 0 0 0-.217-2.468zm2.288 9.937-10.528.002a22.2 22.2 0 0 0 2.431 5.478 21.7 21.7 0 0 0 3.05 4.062 19.7 19.7 0 0 0 2.87-4.03 20.7 20.7 0 0 0 2.177-5.512"/></g><defs><filter id="a" width="157" height="151.531" x="30" y="32" color-interpolation-filters="sRGB" filterUnits="userSpaceOnUse"><feFlood flood-opacity="0" result="BackgroundImageFix"/><feColorMatrix in="SourceAlpha" result="hardAlpha" values="0 0 0 0 0 0 0 0 0 0 0 0 0 0 0 0 0 0 127 0"/><feOffset dx="8" dy="8"/><feGaussianBlur stdDeviation="8"/><feColorMatrix values="0 0 0 0 0.770709 0 0 0 0 0.792653 0 0 0 0 0.818587 0 0 0 0.16 0"/><feBlend in2="BackgroundImageFix" result="effect1_dropShadow_1587_120559"/><feBlend in="SourceGraphic" in2="effect1_dropShadow_1587_120559" result="shape"/><feColorMatrix in="SourceAlpha" result="hardAlpha" values="0 0 0 0 0 0 0 0 0 0 0 0 0 0 0 0 0 0 127 0"/><feOffset dx="-2" dy="-2"/><feGaussianBlur stdDeviation="2"/><feComposite in2="hardAlpha" k2="-1" k3="1" operator="arithmetic"/><feColorMatrix values="0 0 0 0 0.717499 0 0 0 0 0.740813 0 0 0 0 0.768367 0 0 0 0.48 0"/><feBlend in2="shape" result="effect2_innerShadow_1587_120559"/></filter><filter id="b" width="45.2097" height="46.3264" x="110.121" y="96.333" color-interpolation-filters="sRGB" filterUnits="userSpaceOnUse"><feFlood flood-opacity="0" result="BackgroundImageFix"/><feColorMatrix in="SourceAlpha" result="hardAlpha" values="0 0 0 0 0 0 0 0 0 0 0 0 0 0 0 0 0 0 127 0"/><feOffset dx="4" dy="4"/><feGaussianBlur stdDeviation="4"/><feColorMatrix values="0 0 0 0 0 0 0 0 0 0.470588 0 0 0 0 0.403922 0 0 0 0.16 0"/><feBlend in2="BackgroundImageFix" result="effect1_dropShadow_1587_120559"/><feBlend in="SourceGraphic" in2="effect1_dropShadow_1587_120559" result="shape"/><feColorMatrix in="SourceAlpha" result="hardAlpha" values="0 0 0 0 0 0 0 0 0 0 0 0 0 0 0 0 0 0 127 0"/><feOffset dx="-1" dy="-1"/><feGaussianBlur stdDeviation="1"/><feComposite in2="hardAlpha" k2="-1" k3="1" operator="arithmetic"/><feColorMatrix values="0 0 0 0 0 0 0 0 0 0.470588 0 0 0 0 0.403922 0 0 0 0.48 0"/><feBlend in2="shape" result="effect2_innerShadow_1587_120559"/></filter><filter id="c" width="50.9517" height="49.9548" x="50.1289" y="51.8291" color-interpolation-filters="sRGB" filterUnits="userSpaceOnUse"><feFlood flood-opacity="0" result="BackgroundImageFix"/><feColorMatrix in="SourceAlpha" result="hardAlpha" values="0 0 0 0 0 0 0 0 0 0 0 0 0 0 0 0 0 0 127 0"/><feOffset dx="4" dy="4"/><feGaussianBlur stdDeviation="4"/><feColorMatrix values="0 0 0 0 0.717647 0 0 0 0 0.431373 0 0 0 0 0 0 0 0 0.16 0"/><feBlend in2="BackgroundImageFix" result="effect1_dropShadow_1587_120559"/><feBlend in="SourceGraphic" in2="effect1_dropShadow_1587_120559" result="shape"/><feColorMatrix in="SourceAlpha" result="hardAlpha" values="0 0 0 0 0 0 0 0 0 0 0 0 0 0 0 0 0 0 127 0"/><feOffset dx="-1" dy="-1"/><feGaussianBlur stdDeviation="1"/><feComposite in2="hardAlpha" k2="-1" k3="1" operator="arithmetic"/><feColorMatrix values="0 0 0 0 0.717647 0 0 0 0 0.431373 0 0 0 0 0 0 0 0 0.48 0"/><feBlend in2="shape" result="effect2_innerShadow_1587_120559"/></filter></defs></svg>