<svg xmlns="http://www.w3.org/2000/svg" width="200" height="200" fill="none" viewBox="0 0 200 200"><g filter="url(#a)"><path fill="#fff" d="M66.004 163.337c11.405 0 20.65-3.768 20.65-8.415 0-4.648-9.245-8.416-20.65-8.416s-20.65 3.768-20.65 8.416c0 4.647 9.245 8.415 20.65 8.415"/></g><g filter="url(#b)"><path fill="#00A76F" d="M66.003 76.123C49.433 76.123 36 89.555 36 106.126c0 25.233 30.003 48.45 30.003 48.45s30.003-23.217 30.003-48.45c0-16.57-13.433-30.003-30.003-30.003m0 41.969c-6.609 0-11.966-5.357-11.966-11.966s5.357-11.967 11.966-11.967 11.967 5.358 11.967 11.967-5.358 11.966-11.967 11.966"/></g><g filter="url(#c)"><path fill="#fff" d="M139.156 104.029c8.766 0 15.872-2.895 15.872-6.468s-7.106-6.467-15.872-6.467-15.871 2.896-15.871 6.468 7.106 6.467 15.871 6.467"/></g><g filter="url(#d)"><path fill="#FFAB00" d="M139.158 37c-12.736 0-23.059 10.324-23.059 23.06 0 19.393 23.059 37.237 23.059 37.237s23.059-17.844 23.059-37.238c0-12.735-10.324-23.059-23.059-23.059m0 32.257a9.197 9.197 0 0 1-9.197-9.198 9.197 9.197 0 1 1 9.197 9.197"/></g><path fill="#007867" d="M114.401 99.47a1.909 1.909 0 1 0 0-3.817h-.871c-.635 0-1.272.042-1.896.125a1.91 1.91 0 0 0 .504 3.784q.692-.09 1.392-.091zm-6.309 53.445h-.009l-2.521.011a1.906 1.906 0 0 0-1.904 1.913 1.906 1.906 0 0 0 1.912 1.904h.009l2.521-.011a1.91 1.91 0 0 0 1.338-3.262 1.9 1.9 0 0 0-1.346-.555m8.574-28.723c.251 0 .499-.05.73-.146a1.903 1.903 0 0 0 1.033-2.493 1.9 1.9 0 0 0-.413-.62 1.92 1.92 0 0 0-1.35-.558h-2.521a1.904 1.904 0 0 0-1.908 1.908 1.9 1.9 0 0 0 .559 1.35 1.9 1.9 0 0 0 1.349.559zm-14.297-19.922a1.9 1.9 0 0 0 1.984.149c.27-.138.503-.339.68-.586q.625-.869 1.411-1.595a1.905 1.905 0 0 0 .099-2.687 1.91 1.91 0 0 0-2.687-.118 14.4 14.4 0 0 0-1.924 2.174 1.91 1.91 0 0 0 .437 2.663m15.806 48.598h-.009l-2.521.012a1.9 1.9 0 0 0-1.348.562 1.9 1.9 0 0 0-.412.62 1.91 1.91 0 0 0 1.038 2.491c.232.096.48.144.731.144h.009l2.52-.012a1.908 1.908 0 0 0-.008-3.817m-20.167.092H98l-2.52.011a1.91 1.91 0 0 0-1.874 1.913 1.91 1.91 0 0 0 1.882 1.905h.009l2.52-.012a1.91 1.91 0 0 0-.008-3.817m8.935-30.667a1.905 1.905 0 0 0 1.835-1.378 1.91 1.91 0 0 0-.815-2.145q-.905-.572-1.676-1.312a1.906 1.906 0 0 0-3.231 1.412 1.92 1.92 0 0 0 .585 1.338 14.2 14.2 0 0 0 2.286 1.79c.303.193.656.295 1.016.295m-3.672-10.359a10.5 10.5 0 0 1-.193-2.011v-.106a1.907 1.907 0 0 0-1.886-1.931h-.023a1.91 1.91 0 0 0-1.908 1.886v.151c0 .922.088 1.844.263 2.742a1.909 1.909 0 1 0 3.747-.731m23.478 12.258a1.911 1.911 0 0 0 1.35-3.259 1.9 1.9 0 0 0-1.35-.558h-2.52a1.91 1.91 0 0 0-1.764 1.178 1.9 1.9 0 0 0 0 1.46 1.9 1.9 0 0 0 1.033 1.033c.232.096.48.146.731.146zm29.459 3.475a1.907 1.907 0 0 0 1.833-2.443 1.9 1.9 0 0 0-.649-.964 18 18 0 0 0-2.337-1.566 1.906 1.906 0 0 0-2.6.726 1.9 1.9 0 0 0-.175 1.45 1.9 1.9 0 0 0 .902 1.149q.97.548 1.844 1.237a1.9 1.9 0 0 0 1.182.411m-8.053 24.939c-.625.087-1.265.132-1.903.135l-.357.002a1.906 1.906 0 0 0-1.861 1.913 1.907 1.907 0 0 0 1.87 1.904h.009l.356-.002q1.21-.005 2.409-.17a1.91 1.91 0 0 0 1.629-2.152 1.91 1.91 0 0 0-2.152-1.63m7.877-3.803q-.807.769-1.723 1.404a1.906 1.906 0 0 0 .203 3.261 1.91 1.91 0 0 0 1.972-.123q1.158-.805 2.181-1.778a1.91 1.91 0 0 0-2.633-2.764m6.412-9.203a1.91 1.91 0 0 0-2.228 1.522 14 14 0 0 1-.58 2.142 1.9 1.9 0 0 0 .074 1.459 1.909 1.909 0 0 0 3.522-.177c.315-.885.561-1.794.735-2.718a1.9 1.9 0 0 0-.3-1.429 1.9 1.9 0 0 0-1.223-.799m-2.39-9.698a1.91 1.91 0 0 0-.923 2.537q.47 1.008.778 2.078a1.908 1.908 0 0 0 3.669-1.052q-.39-1.359-.988-2.64a1.907 1.907 0 0 0-2.536-.923m-23.221-5.71a1.91 1.91 0 0 0 .73-3.672 1.9 1.9 0 0 0-.73-.145h-2.521a1.91 1.91 0 0 0-1.763 1.178 1.9 1.9 0 0 0 .413 2.08 1.9 1.9 0 0 0 1.35.559zm-8.575 28.63h-.009l-2.521.012a1.906 1.906 0 0 0-1.904 1.913 1.906 1.906 0 0 0 1.913 1.904h.009l2.52-.011a1.908 1.908 0 0 0-.008-3.818m17.929-28.63q.324 0 .644.014a1.91 1.91 0 0 0 .892-3.636 1.9 1.9 0 0 0-.723-.177 18 18 0 0 0-.812-.018h-1.793a1.905 1.905 0 0 0-1.908 1.909 1.91 1.91 0 0 0 1.908 1.908zm-7.846 28.585h-.009l-2.521.011a1.91 1.91 0 0 0-1.873 1.913 1.91 1.91 0 0 0 1.882 1.905h.009l2.52-.012a1.9 1.9 0 0 0 1.329-.572 1.913 1.913 0 0 0-.006-2.678 1.9 1.9 0 0 0-1.331-.567" opacity="0.24"/><defs><filter id="a" width="57.3008" height="32.8303" x="41.3535" y="142.506" color-interpolation-filters="sRGB" filterUnits="userSpaceOnUse"><feFlood flood-opacity="0" result="BackgroundImageFix"/><feColorMatrix in="SourceAlpha" result="hardAlpha" values="0 0 0 0 0 0 0 0 0 0 0 0 0 0 0 0 0 0 127 0"/><feOffset dx="4" dy="4"/><feGaussianBlur stdDeviation="4"/><feColorMatrix values="0 0 0 0 0.568627 0 0 0 0 0.619608 0 0 0 0 0.670588 0 0 0 0.16 0"/><feBlend in2="BackgroundImageFix" result="effect1_dropShadow_3103_43411"/><feBlend in="SourceGraphic" in2="effect1_dropShadow_3103_43411" result="shape"/><feColorMatrix in="SourceAlpha" result="hardAlpha" values="0 0 0 0 0 0 0 0 0 0 0 0 0 0 0 0 0 0 127 0"/><feOffset dx="-1" dy="-1"/><feGaussianBlur stdDeviation="1"/><feComposite in2="hardAlpha" k2="-1" k3="1" operator="arithmetic"/><feColorMatrix values="0 0 0 0 0.568627 0 0 0 0 0.619608 0 0 0 0 0.670588 0 0 0 0.48 0"/><feBlend in2="shape" result="effect2_innerShadow_3103_43411"/></filter><filter id="b" width="92.0059" height="110.453" x="28" y="68.1228" color-interpolation-filters="sRGB" filterUnits="userSpaceOnUse"><feFlood flood-opacity="0" result="BackgroundImageFix"/><feColorMatrix in="SourceAlpha" result="hardAlpha" values="0 0 0 0 0 0 0 0 0 0 0 0 0 0 0 0 0 0 127 0"/><feOffset dx="8" dy="8"/><feGaussianBlur stdDeviation="8"/><feColorMatrix values="0 0 0 0 0 0 0 0 0 0.470588 0 0 0 0 0.403922 0 0 0 0.16 0"/><feBlend in2="BackgroundImageFix" result="effect1_dropShadow_3103_43411"/><feBlend in="SourceGraphic" in2="effect1_dropShadow_3103_43411" result="shape"/><feColorMatrix in="SourceAlpha" result="hardAlpha" values="0 0 0 0 0 0 0 0 0 0 0 0 0 0 0 0 0 0 127 0"/><feOffset dx="-2" dy="-2"/><feGaussianBlur stdDeviation="2"/><feComposite in2="hardAlpha" k2="-1" k3="1" operator="arithmetic"/><feColorMatrix values="0 0 0 0 0 0 0 0 0 0.470588 0 0 0 0 0.403922 0 0 0 0.48 0"/><feBlend in2="shape" result="effect2_innerShadow_3103_43411"/></filter><filter id="c" width="47.7427" height="28.9355" x="119.285" y="87.0938" color-interpolation-filters="sRGB" filterUnits="userSpaceOnUse"><feFlood flood-opacity="0" result="BackgroundImageFix"/><feColorMatrix in="SourceAlpha" result="hardAlpha" values="0 0 0 0 0 0 0 0 0 0 0 0 0 0 0 0 0 0 127 0"/><feOffset dx="4" dy="4"/><feGaussianBlur stdDeviation="4"/><feColorMatrix values="0 0 0 0 0.568627 0 0 0 0 0.619608 0 0 0 0 0.670588 0 0 0 0.16 0"/><feBlend in2="BackgroundImageFix" result="effect1_dropShadow_3103_43411"/><feBlend in="SourceGraphic" in2="effect1_dropShadow_3103_43411" result="shape"/><feColorMatrix in="SourceAlpha" result="hardAlpha" values="0 0 0 0 0 0 0 0 0 0 0 0 0 0 0 0 0 0 127 0"/><feOffset dx="-1" dy="-1"/><feGaussianBlur stdDeviation="1"/><feComposite in2="hardAlpha" k2="-1" k3="1" operator="arithmetic"/><feColorMatrix values="0 0 0 0 0.568627 0 0 0 0 0.619608 0 0 0 0 0.670588 0 0 0 0.48 0"/><feBlend in2="shape" result="effect2_innerShadow_3103_43411"/></filter><filter id="d" width="78.1187" height="92.2969" x="108.099" y="29" color-interpolation-filters="sRGB" filterUnits="userSpaceOnUse"><feFlood flood-opacity="0" result="BackgroundImageFix"/><feColorMatrix in="SourceAlpha" result="hardAlpha" values="0 0 0 0 0 0 0 0 0 0 0 0 0 0 0 0 0 0 127 0"/><feOffset dx="8" dy="8"/><feGaussianBlur stdDeviation="8"/><feColorMatrix values="0 0 0 0 0.717647 0 0 0 0 0.431373 0 0 0 0 0 0 0 0 0.16 0"/><feBlend in2="BackgroundImageFix" result="effect1_dropShadow_3103_43411"/><feBlend in="SourceGraphic" in2="effect1_dropShadow_3103_43411" result="shape"/><feColorMatrix in="SourceAlpha" result="hardAlpha" values="0 0 0 0 0 0 0 0 0 0 0 0 0 0 0 0 0 0 127 0"/><feOffset dx="-2" dy="-2"/><feGaussianBlur stdDeviation="2"/><feComposite in2="hardAlpha" k2="-1" k3="1" operator="arithmetic"/><feColorMatrix values="0 0 0 0 0.717647 0 0 0 0 0.431373 0 0 0 0 0 0 0 0 0.48 0"/><feBlend in2="shape" result="effect2_innerShadow_3103_43411"/></filter></defs></svg>