<svg xmlns="http://www.w3.org/2000/svg" width="200" height="200" fill="none" viewBox="0 0 200 200"><g filter="url(#a)"><path fill="#fff" d="M122.371 125.501c-4.145.2-2.786 4.515 1.364 4.515h13.386c14.27 0 25.879-11.604 25.879-25.866 0-11.378-7.387-21.064-17.619-24.517-4.171-1.407-8.024-3.954-10.941-7.251-4.81-5.438-11.791-8.74-19.292-8.74-1.15 0-2.252-.518-2.947-1.436C105.965 53.97 96.214 49 85.851 49c-15.407 0-28.397 10.543-32.126 24.79-1.127 4.303-3.728 8.183-7.05 11.141C41.277 89.737 38 96.686 38 104.15c0 14.262 11.61 25.866 25.879 25.866h21.973c.342 0 .484-.393.248-.642a12.48 12.48 0 0 0-8.47-3.877q-.782-.038-1.51-.078c-5.976-.326-8.464-6.009-4.56-10.547 2.287-2.661 5.241-5.926 9.02-9.844 6.564-6.803 11.467-10.656 14.71-12.804 2.947-1.951 6.555-1.951 9.503 0 3.243 2.147 8.146 6 14.709 12.804 3.777 3.916 6.73 7.181 9.018 9.841 3.904 4.54 1.416 10.224-4.562 10.55q-.763.042-1.587.082"/></g><g filter="url(#b)"><path fill="#FFAB00" fill-rule="evenodd" d="M122.371 125.501c-6.173.299-11.256 5.05-11.736 11.212l-1.062 13.641c-.281 3.601-2.019 6.821-5.605 7.249a33 33 0 0 1-3.968.213 34 34 0 0 1-3.967-.212c-3.587-.429-5.325-3.649-5.606-7.25l-1.062-13.645c-.48-6.161-5.562-10.912-11.734-11.211q-.784-.039-1.51-.078c-5.978-.326-8.465-6.009-4.562-10.548 2.288-2.661 5.242-5.926 9.02-9.843 6.565-6.803 11.468-10.657 14.71-12.804 2.948-1.951 6.556-1.952 9.503 0 3.244 2.147 8.147 6 14.71 12.804 3.777 3.916 6.73 7.18 9.018 9.841 3.903 4.539 1.416 10.224-4.563 10.55q-.761.042-1.586.081" clip-rule="evenodd"/></g><defs><filter id="a" width="157" height="113.016" x="30" y="41" color-interpolation-filters="sRGB" filterUnits="userSpaceOnUse"><feFlood flood-opacity="0" result="BackgroundImageFix"/><feColorMatrix in="SourceAlpha" result="hardAlpha" values="0 0 0 0 0 0 0 0 0 0 0 0 0 0 0 0 0 0 127 0"/><feOffset dx="8" dy="8"/><feGaussianBlur stdDeviation="8"/><feColorMatrix values="0 0 0 0 0.770709 0 0 0 0 0.792653 0 0 0 0 0.818587 0 0 0 0.16 0"/><feBlend in2="BackgroundImageFix" result="effect1_dropShadow_1587_120560"/><feBlend in="SourceGraphic" in2="effect1_dropShadow_1587_120560" result="shape"/><feColorMatrix in="SourceAlpha" result="hardAlpha" values="0 0 0 0 0 0 0 0 0 0 0 0 0 0 0 0 0 0 127 0"/><feOffset dx="-2" dy="-2"/><feGaussianBlur stdDeviation="2"/><feComposite in2="hardAlpha" k2="-1" k3="1" operator="arithmetic"/><feColorMatrix values="0 0 0 0 0.717499 0 0 0 0 0.740813 0 0 0 0 0.768367 0 0 0 0.48 0"/><feBlend in2="shape" result="effect2_innerShadow_1587_120560"/></filter><filter id="b" width="92.7219" height="99.0549" x="61.6785" y="82.7612" color-interpolation-filters="sRGB" filterUnits="userSpaceOnUse"><feFlood flood-opacity="0" result="BackgroundImageFix"/><feColorMatrix in="SourceAlpha" result="hardAlpha" values="0 0 0 0 0 0 0 0 0 0 0 0 0 0 0 0 0 0 127 0"/><feOffset dx="8" dy="8"/><feGaussianBlur stdDeviation="8"/><feColorMatrix values="0 0 0 0 0.717647 0 0 0 0 0.431373 0 0 0 0 0 0 0 0 0.16 0"/><feBlend in2="BackgroundImageFix" result="effect1_dropShadow_1587_120560"/><feBlend in="SourceGraphic" in2="effect1_dropShadow_1587_120560" result="shape"/><feColorMatrix in="SourceAlpha" result="hardAlpha" values="0 0 0 0 0 0 0 0 0 0 0 0 0 0 0 0 0 0 127 0"/><feOffset dx="-2" dy="-2"/><feGaussianBlur stdDeviation="2"/><feComposite in2="hardAlpha" k2="-1" k3="1" operator="arithmetic"/><feColorMatrix values="0 0 0 0 0.717647 0 0 0 0 0.431373 0 0 0 0 0 0 0 0 0.48 0"/><feBlend in2="shape" result="effect2_innerShadow_1587_120560"/></filter></defs></svg>