<svg xmlns="http://www.w3.org/2000/svg" width="201" height="200" fill="none" viewBox="0 0 201 200"><g filter="url(#a)"><path fill="#FFAB00" fill-rule="evenodd" d="M186.014 44c0 6.627-5.373 12-12 12-6.628 0-12-5.373-12-12s5.372-12 12-12c6.627 0 12 5.373 12 12m-9.617.137 3.288 3.289a1.589 1.589 0 0 1-2.246 2.246l-3.289-3.29-3.288 3.29a1.585 1.585 0 0 1-2.246 0 1.587 1.587 0 0 1 0-2.247l3.288-3.288-3.288-3.29a1.588 1.588 0 0 1 2.246-2.246l3.288 3.29 3.289-3.289a1.588 1.588 0 1 1 2.246 2.246z" clip-rule="evenodd"/></g><g filter="url(#b)"><rect width="128" height="96" x="36.0137" y="72" fill="#fff" rx="12"/></g><path fill="#007867" d="m152.014 100-35.282 16.277c-5.553 2.562-11.778 2.88-17.532.896l-9.892-3.412c-5.05-1.742-10.576-.617-14.686 2.99L36.014 150l75.243 4z" opacity="0.16"/><g filter="url(#c)"><path fill="#00A76F" d="M48.514 168c-7.806-.056-12.5-5.816-12.5-12.912v-5.104l40.325-13.972a10.55 10.55 0 0 1 9.535 1.348l8.333 5.892c3.186 2.253 7.562 1.835 10.255-.978l40.146-39.04c3.013-3.148 7.688-4.105 11.714-2.396l7.692 3.263v50.987c0 7.096-4.195 12.856-12 12.912z"/></g><path fill="#fff" d="M176.287 111c-1.256 0-2.273 1.042-2.273 2.326v13.348c0 .563.2 1.107.562 1.532a2.24 2.24 0 0 0 3.208.218l7.453-6.673q.114-.102.214-.219a2.364 2.364 0 0 0-.214-3.283l-7.453-6.673a2.24 2.24 0 0 0-1.497-.576M23.74 111c-.55 0-1.082.205-1.497.576l-7.453 6.673a2.365 2.365 0 0 0 0 3.502l7.453 6.673a2.24 2.24 0 0 0 3.208-.218 2.36 2.36 0 0 0 .563-1.532v-13.348c0-1.284-1.018-2.326-2.274-2.326"/><g filter="url(#d)"><path fill="#FFAB00" d="M23.74 111c-.55 0-1.082.205-1.497.576l-7.453 6.673a2.365 2.365 0 0 0 0 3.502l7.453 6.673a2.24 2.24 0 0 0 3.208-.218 2.36 2.36 0 0 0 .563-1.532v-13.348c0-1.284-1.018-2.326-2.274-2.326"/></g><g filter="url(#e)" opacity="0.48"><path fill="#FFAB00" d="M176.287 111c-1.256 0-2.273 1.042-2.273 2.326v13.348c0 .563.2 1.107.562 1.532a2.24 2.24 0 0 0 3.208.218l7.453-6.673q.114-.102.214-.219a2.364 2.364 0 0 0-.214-3.283l-7.453-6.673a2.24 2.24 0 0 0-1.497-.576"/></g><defs><filter id="a" width="40" height="40" x="158.014" y="28" color-interpolation-filters="sRGB" filterUnits="userSpaceOnUse"><feFlood flood-opacity="0" result="BackgroundImageFix"/><feColorMatrix in="SourceAlpha" result="hardAlpha" values="0 0 0 0 0 0 0 0 0 0 0 0 0 0 0 0 0 0 127 0"/><feOffset dx="4" dy="4"/><feGaussianBlur stdDeviation="4"/><feColorMatrix values="0 0 0 0 0.717647 0 0 0 0 0.431373 0 0 0 0 0 0 0 0 0.16 0"/><feBlend in2="BackgroundImageFix" result="effect1_dropShadow_1587_120564"/><feBlend in="SourceGraphic" in2="effect1_dropShadow_1587_120564" result="shape"/><feColorMatrix in="SourceAlpha" result="hardAlpha" values="0 0 0 0 0 0 0 0 0 0 0 0 0 0 0 0 0 0 127 0"/><feOffset dx="-1" dy="-1"/><feGaussianBlur stdDeviation="1"/><feComposite in2="hardAlpha" k2="-1" k3="1" operator="arithmetic"/><feColorMatrix values="0 0 0 0 0.717647 0 0 0 0 0.431373 0 0 0 0 0 0 0 0 0.48 0"/><feBlend in2="shape" result="effect2_innerShadow_1587_120564"/></filter><filter id="b" width="160" height="128" x="28.0137" y="64" color-interpolation-filters="sRGB" filterUnits="userSpaceOnUse"><feFlood flood-opacity="0" result="BackgroundImageFix"/><feColorMatrix in="SourceAlpha" result="hardAlpha" values="0 0 0 0 0 0 0 0 0 0 0 0 0 0 0 0 0 0 127 0"/><feOffset dx="8" dy="8"/><feGaussianBlur stdDeviation="8"/><feColorMatrix values="0 0 0 0 0.770709 0 0 0 0 0.792653 0 0 0 0 0.818587 0 0 0 0.16 0"/><feBlend in2="BackgroundImageFix" result="effect1_dropShadow_1587_120564"/><feBlend in="SourceGraphic" in2="effect1_dropShadow_1587_120564" result="shape"/><feColorMatrix in="SourceAlpha" result="hardAlpha" values="0 0 0 0 0 0 0 0 0 0 0 0 0 0 0 0 0 0 127 0"/><feOffset dx="-2" dy="-2"/><feGaussianBlur stdDeviation="2"/><feComposite in2="hardAlpha" k2="-1" k3="1" operator="arithmetic"/><feColorMatrix values="0 0 0 0 0.717499 0 0 0 0 0.740813 0 0 0 0 0.768367 0 0 0 0.48 0"/><feBlend in2="shape" result="effect2_innerShadow_1587_120564"/></filter><filter id="c" width="160" height="100" x="28.0137" y="92" color-interpolation-filters="sRGB" filterUnits="userSpaceOnUse"><feFlood flood-opacity="0" result="BackgroundImageFix"/><feColorMatrix in="SourceAlpha" result="hardAlpha" values="0 0 0 0 0 0 0 0 0 0 0 0 0 0 0 0 0 0 127 0"/><feOffset dx="8" dy="8"/><feGaussianBlur stdDeviation="8"/><feColorMatrix values="0 0 0 0 0 0 0 0 0 0.470588 0 0 0 0 0.403922 0 0 0 0.16 0"/><feBlend in2="BackgroundImageFix" result="effect1_dropShadow_1587_120564"/><feBlend in="SourceGraphic" in2="effect1_dropShadow_1587_120564" result="shape"/><feColorMatrix in="SourceAlpha" result="hardAlpha" values="0 0 0 0 0 0 0 0 0 0 0 0 0 0 0 0 0 0 127 0"/><feOffset dx="-2" dy="-2"/><feGaussianBlur stdDeviation="2"/><feComposite in2="hardAlpha" k2="-1" k3="1" operator="arithmetic"/><feColorMatrix values="0 0 0 0 0 0 0 0 0 0.470588 0 0 0 0 0.403922 0 0 0 0.48 0"/><feBlend in2="shape" result="effect2_innerShadow_1587_120564"/></filter><filter id="d" width="28" height="34" x="10.0137" y="107" color-interpolation-filters="sRGB" filterUnits="userSpaceOnUse"><feFlood flood-opacity="0" result="BackgroundImageFix"/><feColorMatrix in="SourceAlpha" result="hardAlpha" values="0 0 0 0 0 0 0 0 0 0 0 0 0 0 0 0 0 0 127 0"/><feOffset dx="4" dy="4"/><feGaussianBlur stdDeviation="4"/><feColorMatrix values="0 0 0 0 0.717647 0 0 0 0 0.431373 0 0 0 0 0 0 0 0 0.16 0"/><feBlend in2="BackgroundImageFix" result="effect1_dropShadow_1587_120564"/><feBlend in="SourceGraphic" in2="effect1_dropShadow_1587_120564" result="shape"/><feColorMatrix in="SourceAlpha" result="hardAlpha" values="0 0 0 0 0 0 0 0 0 0 0 0 0 0 0 0 0 0 127 0"/><feOffset dx="-1" dy="-1"/><feGaussianBlur stdDeviation="1"/><feComposite in2="hardAlpha" k2="-1" k3="1" operator="arithmetic"/><feColorMatrix values="0 0 0 0 0.717647 0 0 0 0 0.431373 0 0 0 0 0 0 0 0 0.48 0"/><feBlend in2="shape" result="effect2_innerShadow_1587_120564"/></filter><filter id="e" width="28" height="34" x="170.014" y="107" color-interpolation-filters="sRGB" filterUnits="userSpaceOnUse"><feFlood flood-opacity="0" result="BackgroundImageFix"/><feColorMatrix in="SourceAlpha" result="hardAlpha" values="0 0 0 0 0 0 0 0 0 0 0 0 0 0 0 0 0 0 127 0"/><feOffset dx="4" dy="4"/><feGaussianBlur stdDeviation="4"/><feColorMatrix values="0 0 0 0 0.717647 0 0 0 0 0.431373 0 0 0 0 0 0 0 0 0.16 0"/><feBlend in2="BackgroundImageFix" result="effect1_dropShadow_1587_120564"/><feBlend in="SourceGraphic" in2="effect1_dropShadow_1587_120564" result="shape"/><feColorMatrix in="SourceAlpha" result="hardAlpha" values="0 0 0 0 0 0 0 0 0 0 0 0 0 0 0 0 0 0 127 0"/><feOffset dx="-1" dy="-1"/><feGaussianBlur stdDeviation="1"/><feComposite in2="hardAlpha" k2="-1" k3="1" operator="arithmetic"/><feColorMatrix values="0 0 0 0 0.717647 0 0 0 0 0.431373 0 0 0 0 0 0 0 0 0.48 0"/><feBlend in2="shape" result="effect2_innerShadow_1587_120564"/></filter></defs></svg>