<svg xmlns="http://www.w3.org/2000/svg" width="200" height="200" fill="none" viewBox="0 0 200 200"><path fill="#919EAB" d="M103.491 45.31A9.31 9.31 0 0 1 112.8 36h41.891A9.31 9.31 0 0 1 164 45.31V87.2a9.31 9.31 0 0 1-9.309 9.31H112.8a9.31 9.31 0 0 1-9.309-9.31z"/><path fill="#919EAB" d="M36 45.31A9.31 9.31 0 0 1 45.31 36H87.2a9.31 9.31 0 0 1 9.31 9.31V87.2a9.31 9.31 0 0 1-9.31 9.31H45.31A9.31 9.31 0 0 1 36 87.2zm0 67.49a9.31 9.31 0 0 1 9.31-9.309H87.2a9.31 9.31 0 0 1 9.31 9.309v41.891A9.31 9.31 0 0 1 87.2 164H45.31a9.31 9.31 0 0 1-9.31-9.309zm67.491 0a9.31 9.31 0 0 1 9.309-9.309h41.891A9.31 9.31 0 0 1 164 112.8v41.891a9.31 9.31 0 0 1-9.309 9.309H112.8a9.31 9.31 0 0 1-9.309-9.309z" opacity="0.24"/></svg>