<svg xmlns="http://www.w3.org/2000/svg" width="200" height="200" fill="none" viewBox="0 0 200 200"><path fill="#919EAB" d="M100 164c35.346 0 64-28.654 64-64s-28.654-64-64-64-64 28.654-64 64 28.654 64 64 64" opacity="0.24"/><path fill="#919EAB" d="m97.751 119.585-9.416 4.95a4.037 4.037 0 0 1-5.858-4.255l1.798-10.486a5 5 0 0 0-1.438-4.426l-7.618-7.425a4.037 4.037 0 0 1 2.238-6.887l10.528-1.53a5 5 0 0 0 3.764-2.735l4.709-9.54a4.038 4.038 0 0 1 7.24 0l4.708 9.54a5 5 0 0 0 3.765 2.736l10.528 1.53a4.037 4.037 0 0 1 2.238 6.885l-7.619 7.426a5 5 0 0 0-1.438 4.426l1.799 10.486a4.037 4.037 0 0 1-5.858 4.255l-9.416-4.95a5 5 0 0 0-4.654 0"/></svg>