<svg xmlns="http://www.w3.org/2000/svg" width="200" height="200" fill="none" viewBox="0 0 200 200"><path fill="#919EAB" d="M67 70a8 8 0 0 1 8-8h52a8 8 0 0 1 0 16H75a8 8 0 0 1-8-8m-21 9a9 9 0 1 0 0-18 9 9 0 0 0 0 18"/><path fill="#919EAB" d="M67 100a8 8 0 0 1 8-8h80a8 8 0 0 1 0 16H75a8 8 0 0 1-8-8m-21 9a9 9 0 1 0-9-9 9 9 0 0 0 9 9" opacity="0.48"/><path fill="#919EAB" d="M67 130a8 8 0 0 1 8-8h32a8 8 0 0 1 0 16H75a8 8 0 0 1-8-8m-21 9a9 9 0 0 0 9-9 9 9 0 0 0-9-9 9 9 0 0 0-9 9 9 9 0 0 0 9 9" opacity="0.24"/></svg>