<svg xmlns="http://www.w3.org/2000/svg" width="200" height="200" fill="none" viewBox="0 0 200 200"><path fill="#919EAB" d="M68 42a4 4 0 0 0-8 0v12h8zm72 0a4 4 0 0 0-8 0v12h8z"/><path fill="#919EAB" d="M28 70c0-6.627 5.373-12 12-12h120c6.627 0 12 5.373 12 12v80c0 6.627-5.373 12-12 12H40c-6.627 0-12-5.373-12-12z" opacity="0.24"/><path fill="#919EAB" d="M52 119a6 6 0 0 1 6-6h16a6 6 0 0 1 6 6v8a6 6 0 0 1-6 6H58a6 6 0 0 1-6-6zm34 0a6 6 0 0 1 6-6h16a6 6 0 0 1 6 6v8a6 6 0 0 1-6 6H92a6 6 0 0 1-6-6z" opacity="0.24"/><path fill="#919EAB" d="M52 93a6 6 0 0 1 6-6h16a6 6 0 0 1 6 6v8a6 6 0 0 1-6 6H58a6 6 0 0 1-6-6zm34 0a6 6 0 0 1 6-6h16a6 6 0 0 1 6 6v8a6 6 0 0 1-6 6H92a6 6 0 0 1-6-6zm34 0a6 6 0 0 1 6-6h16a6 6 0 0 1 6 6v8a6 6 0 0 1-6 6h-16a6 6 0 0 1-6-6zM68 68a4 4 0 1 1-8 0 4 4 0 0 1 8 0m72 0a4 4 0 1 1-8 0 4 4 0 0 1 8 0" opacity="0.48"/></svg>