<svg xmlns="http://www.w3.org/2000/svg" width="200" height="200" fill="none" viewBox="0 0 200 200"><path fill="#919EAB" d="m30.754 110.222-5.837 3.086a2.17 2.17 0 0 1-2.94-.919A2.2 2.2 0 0 1 21.76 111l1.116-6.546a1.06 1.06 0 0 0-.303-.935l-4.727-4.635a2.2 2.2 0 0 1-.04-3.097 2.17 2.17 0 0 1 1.247-.638l6.527-.954a1.06 1.06 0 0 0 .799-.582l2.92-5.952a2.171 2.171 0 0 1 3.904 0l2.92 5.952c.154.313.453.531.799.582l6.527.954a2.19 2.19 0 0 1 1.842 2.482 2.2 2.2 0 0 1-.635 1.253l-4.727 4.635a1.06 1.06 0 0 0-.303.935L40.741 111a2.19 2.19 0 0 1-1.778 2.528 2.16 2.16 0 0 1-1.38-.22l-5.837-3.086a1.06 1.06 0 0 0-.992 0m34.375 0-5.837 3.086a2.17 2.17 0 0 1-2.94-.919 2.2 2.2 0 0 1-.218-1.389l1.116-6.546a1.06 1.06 0 0 0-.303-.935l-4.727-4.635a2.2 2.2 0 0 1-.04-3.097 2.17 2.17 0 0 1 1.246-.638l6.528-.954a1.06 1.06 0 0 0 .798-.582l2.92-5.952a2.171 2.171 0 0 1 3.905 0l2.92 5.952c.154.313.453.531.799.582l6.527.954a2.19 2.19 0 0 1 1.842 2.482 2.2 2.2 0 0 1-.635 1.253l-4.727 4.635a1.06 1.06 0 0 0-.303.935L75.116 111a2.19 2.19 0 0 1-1.778 2.528 2.16 2.16 0 0 1-1.38-.22l-5.837-3.086a1.06 1.06 0 0 0-.992 0m34.375 0-5.837 3.086a2.17 2.17 0 0 1-2.94-.919A2.2 2.2 0 0 1 90.51 111l1.116-6.546a1.06 1.06 0 0 0-.303-.935l-4.727-4.635a2.2 2.2 0 0 1-.04-3.097 2.17 2.17 0 0 1 1.246-.638l6.528-.954a1.06 1.06 0 0 0 .799-.582l2.92-5.952a2.17 2.17 0 0 1 3.904 0l2.92 5.952c.154.313.453.531.799.582l6.527.954a2.19 2.19 0 0 1 1.842 2.482 2.2 2.2 0 0 1-.635 1.253l-4.727 4.635a1.06 1.06 0 0 0-.303.935l1.116 6.546a2.19 2.19 0 0 1-1.778 2.528 2.16 2.16 0 0 1-1.381-.22l-5.836-3.086a1.06 1.06 0 0 0-.992 0"/><path fill="#919EAB" d="m133.879 110.222-5.837 3.086a2.17 2.17 0 0 1-2.94-.919 2.2 2.2 0 0 1-.218-1.389l1.116-6.546a1.06 1.06 0 0 0-.303-.935l-4.727-4.635a2.2 2.2 0 0 1-.039-3.097 2.17 2.17 0 0 1 1.245-.638l6.528-.954a1.06 1.06 0 0 0 .798-.582l2.921-5.952a2.17 2.17 0 0 1 3.904 0l2.92 5.952c.154.313.453.531.799.582l6.527.954a2.19 2.19 0 0 1 1.842 2.482 2.2 2.2 0 0 1-.635 1.253l-4.727 4.635a1.06 1.06 0 0 0-.303.935l1.116 6.546a2.19 2.19 0 0 1-1.778 2.528 2.16 2.16 0 0 1-1.381-.22l-5.836-3.086a1.06 1.06 0 0 0-.992 0m34.375 0-5.837 3.086a2.17 2.17 0 0 1-2.94-.919 2.2 2.2 0 0 1-.218-1.389l1.116-6.546a1.06 1.06 0 0 0-.303-.935l-4.727-4.635a2.2 2.2 0 0 1-.039-3.097 2.17 2.17 0 0 1 1.245-.638l6.528-.954a1.06 1.06 0 0 0 .798-.582l2.921-5.952a2.17 2.17 0 0 1 3.904 0l2.92 5.952c.154.313.453.531.799.582l6.527.954a2.19 2.19 0 0 1 1.842 2.482 2.2 2.2 0 0 1-.635 1.253l-4.727 4.635a1.06 1.06 0 0 0-.303.935l1.116 6.546a2.19 2.19 0 0 1-1.778 2.528 2.16 2.16 0 0 1-1.381-.22l-5.836-3.086a1.06 1.06 0 0 0-.992 0" opacity="0.24"/></svg>