<svg xmlns="http://www.w3.org/2000/svg" width="200" height="200" fill="none" viewBox="0 0 200 200"><path fill="#919EAB" fill-rule="evenodd" d="M64 100c0 11.046-8.954 20-20 20s-20-8.954-20-20 8.954-20 20-20 20 8.954 20 20m-14 6.33q0 1.67-1.948 1.67h-7.768q-1.948 0-1.948-1.67 0-.813.47-1.219.47-.405 1.478-.406h1.813v-8.147l-1.791 1.061q-.38.226-.784.226-.626 0-1.074-.553a1.9 1.9 0 0 1-.448-1.23q0-.925.784-1.4l3.582-2.098Q43.35 92 44.224 92q.895 0 1.444.542.548.541.548 1.466v10.697h1.836q1.007 0 1.478.406.47.406.47 1.219" clip-rule="evenodd" opacity="0.48"/><path fill="#919EAB" fill-rule="evenodd" d="M176 100c0 13.807-11.193 25-25 25s-25-11.193-25-25 11.193-25 25-25 25 11.193 25 25m-16.507 11.395q-.73.605-2.223.605h-12.386q-1.221 0-1.934-.723-.712-.722-.712-1.832 0-1.445 1.153-2.621l7.194-7.429q2.24-2.32 2.24-4.269 0-1.143-.662-1.748t-1.883-.605q-.984 0-1.816.286-.831.285-1.917.823l-.679.337a16 16 0 0 0-.526.285q-.39.219-.695.32-.306.1-.645.1-.848 0-1.425-.756T142 92.37q0-.74.221-1.21.22-.47.831-.874a13.3 13.3 0 0 1 3.58-1.681 13.4 13.4 0 0 1 3.919-.605q2.511 0 4.412.823 1.9.825 2.935 2.354t1.035 3.512q0 2.05-.832 3.748-.83 1.698-2.833 3.781l-4.819 4.874h6.821q1.493 0 2.223.589.729.588.729 1.832 0 1.277-.729 1.882" clip-rule="evenodd"/><path fill="#919EAB" d="M63.084 106h64a24.8 24.8 0 0 1-.731-6c0-2.068.253-4.078.731-6h-64c.6 1.894.924 3.91.924 6s-.324 4.106-.924 6" opacity="0.24"/><path fill="#919EAB" fill-rule="evenodd" d="M50 106.33q0 1.67-1.948 1.67h-7.768q-1.948 0-1.948-1.67 0-.813.47-1.219.47-.405 1.478-.406h1.813v-8.147l-1.791 1.061q-.38.226-.784.226-.626 0-1.074-.553a1.9 1.9 0 0 1-.448-1.23q0-.925.784-1.4l3.582-2.098Q43.35 92 44.224 92q.895 0 1.444.542.548.541.548 1.466v10.697h1.836q1.007 0 1.478.406.47.406.47 1.219" clip-rule="evenodd"/></svg>