<svg xmlns="http://www.w3.org/2000/svg" width="200" height="200" fill="none" viewBox="0 0 200 200"><path fill="#919EAB" d="M46 44c0-6.627 5.373-12 12-12h84c6.627 0 12 5.373 12 12v112c0 6.627-5.373 12-12 12H58c-6.627 0-12-5.373-12-12z" opacity="0.24"/><path fill="#919EAB" d="M62 115a5 5 0 0 1 5-5h66a5 5 0 0 1 0 10H67a5 5 0 0 1-5-5m0 18a5 5 0 0 1 5-5h66a5 5 0 0 1 0 10H67a5 5 0 0 1-5-5" opacity="0.24"/><path fill="#919EAB" d="M62 61a5 5 0 0 1 5-5h30a5 5 0 0 1 0 10H67a5 5 0 0 1-5-5m0 36a5 5 0 0 1 5-5h30a5 5 0 0 1 0 10H67a5 5 0 0 1-5-5m0-18a5 5 0 0 1 5-5h30a5 5 0 0 1 0 10H67a5 5 0 0 1-5-5" opacity="0.48"/><path fill="#919EAB" d="M134.491 79.255a.879.879 0 0 1 1.488.64c0 5.892-4.804 10.64-10.725 10.64h-4.534v3.502c0 .909-.981 1.448-1.759.976l-11.403-6.936a1.133 1.133 0 0 1 0-1.953l11.369-6.936c.778-.472 1.759.1 1.759.976v3.535h4.297c3.011 0 5.921-1.144 8.12-3.165zm-10.32-14.917c0-.909.981-1.448 1.759-.976l11.369 6.936a1.133 1.133 0 0 1 0 1.953l-11.335 6.903c-.778.471-1.759-.101-1.759-.977v-3.502h-4.331a12.04 12.04 0 0 0-8.12 3.166l-1.387 1.28c-.542.504-1.455.1-1.455-.64l.001-.177c.095-5.81 4.862-10.464 10.724-10.464h4.534z"/></svg>