<svg xmlns="http://www.w3.org/2000/svg" width="200" height="200" fill="none" viewBox="0 0 200 200"><path fill="#919EAB" d="M115.886 129.6H75.825c-1.424 0-2.71.851-3.268 2.161l-7.546 17.707a3.55 3.55 0 0 1-3.267 2.161h-15.22c-2.57 0-4.289-2.649-3.245-5.001L85.742 50.94a3.55 3.55 0 0 1 3.246-2.112h13.866c1.404 0 2.676.828 3.246 2.112l42.463 95.688c1.044 2.352-.676 5.001-3.246 5.001h-15.233a3.55 3.55 0 0 1-3.259-2.142l-7.68-17.745a3.55 3.55 0 0 0-3.259-2.142m-35.367-17.623h30.657L95.921 74.675z"/><path fill="#919EAB" d="M163.623 47.001a1.86 1.86 0 0 1 1.858 1.86v102.794a1.86 1.86 0 0 1-1.858 1.861h-11.748a1.86 1.86 0 0 1-1.858-1.861 1.86 1.86 0 0 1 1.858-1.862h9.889v-21.876h-5.851a1.86 1.86 0 0 1-1.858-1.861 1.86 1.86 0 0 1 1.858-1.862h5.851v-22.121h-9.912a1.86 1.86 0 0 1-1.859-1.861l.003-.052-.003-.052a1.86 1.86 0 0 1 1.859-1.86h9.912v-21.73h-5.851a1.86 1.86 0 0 1-1.858-1.862 1.86 1.86 0 0 1 1.858-1.86h5.851V50.722h-9.889a1.86 1.86 0 0 1-1.858-1.861A1.86 1.86 0 0 1 151.875 47zm-45.998 102.681a1.86 1.86 0 0 1 .083 3.72l-.083.002h-1.735a1.86 1.86 0 0 1-1.858-1.861c0-1.028.831-1.861 1.858-1.861zm-7.932 0a1.86 1.86 0 0 1 .083 3.72l-.083.002h-1.734a1.861 1.861 0 0 1 0-3.722zm-7.93 0a1.86 1.86 0 0 1 1.858 1.861c0 1-.787 1.816-1.776 1.859l-.082.002h-1.735a1.86 1.86 0 0 1-1.859-1.861 1.86 1.86 0 0 1 1.859-1.861zm-7.931 0a1.86 1.86 0 0 1 .083 3.72l-.083.002h-1.735a1.86 1.86 0 0 1-1.859-1.861 1.86 1.86 0 0 1 1.86-1.861zm-7.932 0a1.86 1.86 0 0 1 .083 3.72l-.083.002h-1.735a1.86 1.86 0 0 1 0-3.722zm-7.93 0a1.86 1.86 0 0 1 1.858 1.861c0 1-.788 1.816-1.776 1.859l-.083.002h-1.734a1.86 1.86 0 0 1-1.86-1.861 1.86 1.86 0 0 1 1.86-1.861zm-7.931 0a1.86 1.86 0 0 1 1.858 1.861c0 1-.788 1.816-1.776 1.859l-.082.002h-1.735a1.86 1.86 0 0 1-1.859-1.861 1.86 1.86 0 0 1 1.859-1.861zm7.467-39.661a1.86 1.86 0 0 1 1.859 1.861 1.86 1.86 0 0 1-1.86 1.861H75.77a1.86 1.86 0 0 1-1.858-1.861 1.86 1.86 0 0 1 1.858-1.861zm-7.932 0a1.86 1.86 0 0 1 0 3.722H67.84a1.86 1.86 0 0 1 0-3.722zm-7.93 0a1.86 1.86 0 0 1 1.858 1.861 1.86 1.86 0 0 1-1.859 1.861H59.91a1.86 1.86 0 0 1-1.859-1.861 1.86 1.86 0 0 1 1.859-1.861zm-7.931 0a1.86 1.86 0 0 1 1.858 1.861 1.86 1.86 0 0 1-1.858 1.861h-1.736a1.86 1.86 0 0 1-1.859-1.861 1.86 1.86 0 0 1 1.859-1.861zm-7.932 0a1.86 1.86 0 0 1 0 3.722h-1.735a1.86 1.86 0 0 1-1.858-1.861 1.86 1.86 0 0 1 1.858-1.861zm99.956-63.146a1.86 1.86 0 0 1 1.858 1.86 1.86 1.86 0 0 1-1.858 1.862h-1.735a1.86 1.86 0 0 1 0-3.722zm-7.931 0a1.86 1.86 0 0 1 0 3.722h-1.736a1.86 1.86 0 0 1 0-3.722zm-7.932 0a1.86 1.86 0 0 1 0 3.722h-1.735a1.86 1.86 0 0 1-1.858-1.861 1.86 1.86 0 0 1 1.858-1.861zm-7.931 0a1.86 1.86 0 0 1 0 3.722h-1.734a1.86 1.86 0 0 1 0-3.722zm-7.93 0a1.86 1.86 0 0 1 1.858 1.86 1.86 1.86 0 0 1-1.858 1.862h-1.736a1.86 1.86 0 0 1 0-3.722zm-7.932 0a1.86 1.86 0 0 1 0 3.722h-1.735a1.86 1.86 0 0 1 0-3.722zm-7.93 0a1.86 1.86 0 0 1 0 3.722h-1.736a1.86 1.86 0 0 1-1.858-1.861 1.86 1.86 0 0 1 1.858-1.861zm-7.932 0a1.86 1.86 0 0 1 0 3.722h-1.735a1.86 1.86 0 0 1 0-3.722z" opacity="0.24"/></svg>