<svg xmlns="http://www.w3.org/2000/svg" width="200" height="200" fill="none" viewBox="0 0 200 200"><rect width="152" height="32" x="24" y="40" fill="#919EAB" opacity="0.24" rx="8"/><path fill="#919EAB" d="M48.833 54.833h-4.666v-4.666a1.167 1.167 0 0 0-2.334 0v4.666h-4.666a1.167 1.167 0 0 0 0 2.334h4.666v4.666a1.167 1.167 0 0 0 2.334 0v-4.666h4.666a1.167 1.167 0 0 0 0-2.334" opacity="0.48"/><rect width="80" height="10" x="62" y="51" fill="#919EAB" rx="5"/><rect width="140" height="32" x="36" y="84" fill="#919EAB" opacity="0.24" rx="8"/><path fill="#919EAB" d="M60.833 101.5H49.167c-.645 0-1.167-.56-1.167-1.25S48.522 99 49.167 99h11.666c.645 0 1.167.56 1.167 1.25s-.522 1.25-1.167 1.25" opacity="0.48"/><rect width="68" height="10" x="74" y="95" fill="#919EAB" opacity="0.48" rx="5"/><rect width="140" height="32" x="36" y="128" fill="#919EAB" opacity="0.24" rx="8"/><path fill="#919EAB" d="M60.833 145.5H49.167c-.645 0-1.167-.56-1.167-1.25s.522-1.25 1.167-1.25h11.666c.645 0 1.167.56 1.167 1.25s-.522 1.25-1.167 1.25" opacity="0.48"/><rect width="68" height="10" x="74" y="139" fill="#919EAB" opacity="0.24" rx="5"/></svg>