<svg xmlns="http://www.w3.org/2000/svg" width="200" height="200" fill="none" viewBox="0 0 200 200"><rect width="152" height="56" x="24" y="72" fill="#919EAB" opacity="0.24" rx="28"/><path fill="#919EAB" fill-rule="evenodd" d="M108 76a8 8 0 0 0-8 8v32a8 8 0 0 0 8 8h40c13.255 0 24-10.745 24-24s-10.745-24-24-24zm22.596 34.928 4.86-2.57c.34-.18.748-.18 1.088 0l4.86 2.57a1.85 1.85 0 0 0 1.178.188 1.87 1.87 0 0 0 1.517-2.158l-.93-5.452c-.064-.376.06-.76.333-1.027l3.937-3.86a1.87 1.87 0 0 0 .541-1.07 1.866 1.866 0 0 0-1.571-2.117l-5.435-.795a1.16 1.16 0 0 1-.876-.638l-2.432-4.957a1.853 1.853 0 0 0-3.332 0L131.902 94a1.16 1.16 0 0 1-.876.638l-5.435.795c-.405.059-.778.25-1.064.545a1.876 1.876 0 0 0 .034 2.642l3.937 3.86c.272.267.396.651.332 1.027l-.929 5.452c-.069.405-.004.822.186 1.185a1.853 1.853 0 0 0 2.509.785" clip-rule="evenodd"/><path fill="#919EAB" d="m65.09 88.413 10.629 10.464a.94.94 0 0 1 .003 1.336.96.96 0 0 1-.677.279H74.5a.72.72 0 0 0-.72.72v9.37c0 .783-.641 1.418-1.433 1.418h-2.27a1.43 1.43 0 0 1-1.397-1.104l-1.917-8.351a1.43 1.43 0 0 0-1.397-1.104h-2.56a1.43 1.43 0 0 0-1.397 1.104l-1.916 8.351A1.43 1.43 0 0 1 58.095 112h-2.27a1.425 1.425 0 0 1-1.433-1.418v-9.37a.72.72 0 0 0-.72-.72h-.717a.95.95 0 0 1-.955-.945.94.94 0 0 1 .287-.675l10.789-10.466a1.443 1.443 0 0 1 2.013.007"/></svg>