<svg xmlns="http://www.w3.org/2000/svg" width="24" height="24" fill="none" viewBox="0 0 24 24"><path fill="url(#a)" fill-rule="evenodd" d="M15.955 7.272a7.895 7.895 0 0 1 8.044 7.764 8 8 0 0 1-.185 1.87A14.4 14.4 0 0 0 23.456 20v2.013c0 .308-.25.558-.558.558h-2.013a14.4 14.4 0 0 0-3.094.358c-.6.133-1.227.197-1.87.184a7.895 7.895 0 0 1-7.764-8.043 7.92 7.92 0 0 1 7.798-7.798" clip-rule="evenodd"/><path fill="url(#b)" fill-rule="evenodd" d="M9.801.043A9.62 9.62 0 0 0 .001 9.5a9.7 9.7 0 0 0 .225 2.279c.274 1.239.436 2.5.436 3.769V18c0 .376.305.68.68.68h2.453c1.269 0 2.53.163 3.769.436.732.162 1.495.24 2.278.225a9.62 9.62 0 0 0 9.46-9.8 9.65 9.65 0 0 0-9.5-9.5" clip-rule="evenodd"/><g fill="#006C9C" fill-rule="evenodd" clip-rule="evenodd" opacity="0.48"><path d="M6.197 9.175a1.495 1.495 0 1 0-2.111 2.111l3.225 3.225A1.495 1.495 0 1 0 9.422 12.4z"/><path d="M10.425 9.175a1.495 1.495 0 1 0-2.111 2.111l3.224 3.225A1.495 1.495 0 1 0 13.65 12.4z"/><path d="M14.652 9.175a1.495 1.495 0 1 0-2.111 2.111l3.224 3.225a1.495 1.495 0 1 0 2.111-2.111z"/></g><path fill="#fff" d="M6.604 10.198a1.495 1.495 0 1 1-2.99 0 1.495 1.495 0 0 1 2.99 0m4.227 0a1.495 1.495 0 1 1-2.99 0 1.495 1.495 0 0 1 2.99 0m4.229 0a1.495 1.495 0 1 1-2.99 0 1.495 1.495 0 0 1 2.99 0"/><defs><linearGradient id="a" x1="8.15601" x2="24" y1="7.27087" y2="23.1149" gradientUnits="userSpaceOnUse"><stop stop-color="#77ED8B"/><stop offset="1" stop-color="#22C55E"/></linearGradient><linearGradient id="b" x1="0" x2="19.3023" y1="0.0413818" y2="19.3437" gradientUnits="userSpaceOnUse"><stop stop-color="#00B8D9"/><stop offset="1" stop-color="#006C9C"/></linearGradient></defs></svg>