<svg xmlns="http://www.w3.org/2000/svg" width="24" height="24" fill="none" viewBox="0 0 24 24"><path fill="url(#a)" d="m23.985 13.566-3.511-3.825A1.36 1.36 0 0 0 19.47 9.3h-4.36v10.472h1.668a2.385 2.385 0 1 1 4.77 0h1.073a1.363 1.363 0 0 0 1.363-1.363z"/><path fill="#FFAB00" fill-rule="evenodd" d="M15.111 13.567v6.205H7.852a2.385 2.385 0 0 0-4.77 0H1.379A1.363 1.363 0 0 1 .016 18.41V7.03a1.363 1.363 0 0 1 1.363-1.363h1.478a4.465 4.465 0 0 0 8.925 0h1.966c.753 0 1.363.61 1.363 1.363z" clip-rule="evenodd"/><path fill="#61F3F3" fill-rule="evenodd" d="m11.785 5.517-.003.15a4.465 4.465 0 0 1-8.928-.15 4.465 4.465 0 1 1 8.93 0" clip-rule="evenodd"/><g fill="#B76E00"><path d="M21.548 19.772a2.385 2.385 0 1 1-4.77 0 2.385 2.385 0 0 1 4.77 0"/><path fill-rule="evenodd" d="M5.467 17.388a2.385 2.385 0 1 1 0 4.77 2.385 2.385 0 0 1 0-4.77" clip-rule="evenodd"/></g><path fill="#006C9C" fill-rule="evenodd" d="M8.81 7.303a.4.4 0 0 1-.267-.105l-1.49-1.396a.4.4 0 0 1-.124-.285V2.621a.39.39 0 1 1 .781 0v2.727l1.367 1.28a.39.39 0 0 1-.267.675" clip-rule="evenodd"/><defs><linearGradient id="a" x1="15.1113" x2="25.4416" y1="9.29993" y2="18.0528" gradientUnits="userSpaceOnUse"><stop stop-color="#FFD666"/><stop offset="1" stop-color="#FFAB00"/></linearGradient></defs></svg>