<svg xmlns="http://www.w3.org/2000/svg" width="24" height="24" fill="none" viewBox="0 0 24 24"><path fill="#FFE9D5" d="m0 9 11.556 7.355a.745.745 0 0 0 .888 0L24 9 12.45.15a.75.75 0 0 0-.9 0z"/><path fill="#61F3F3" d="M19.5 0h-15C3.674 0 3 .674 3 1.5V18c0 .414.336.75.75.75h16.5A.75.75 0 0 0 21 18V1.5c0-.826-.672-1.5-1.5-1.5"/><path fill="#006C9C" d="M6.75 4.5h10.5a.75.75 0 0 0 0-1.5H6.75a.75.75 0 0 0 0 1.5M17.25 6H6.75a.75.75 0 0 0 0 1.5h10.5a.75.75 0 0 0 0-1.5m-4.5 3h-6a.75.75 0 0 0 0 1.5h6a.75.75 0 0 0 0-1.5"/><path fill="url(#a)" d="M12.444 16.355a.745.745 0 0 1-.888 0L0 9v13.5A1.5 1.5 0 0 0 1.5 24h21a1.5 1.5 0 0 0 1.5-1.5V9z"/><path fill="#FF5630" d="M22.5 24h-21C.659 24 0 23.341 0 22.5a.75.75 0 0 1 .306-.605l11.25-7.5a.745.745 0 0 1 .888 0l11.25 7.5A.75.75 0 0 1 24 22.5c0 .841-.659 1.5-1.5 1.5"/><defs><linearGradient id="a" x1="0" x2="13.4831" y1="9" y2="30.573" gradientUnits="userSpaceOnUse"><stop stop-color="#FFAC82"/><stop offset="1" stop-color="#FF5630"/></linearGradient></defs></svg>