<svg xmlns="http://www.w3.org/2000/svg" width="24" height="24" fill="none" viewBox="0 0 24 24"><path fill="url(#a)" fill-rule="evenodd" d="M15.048 20.02a4.8 4.8 0 1 1 4.152 2.391 4.77 4.77 0 0 1-4.152-2.391" clip-rule="evenodd"/><path fill="#FFD666" fill-rule="evenodd" d="M19.2 5.578v7.233a4.8 4.8 0 0 0-4.152 7.21L9.6 23.164V11.12l9.599-5.542M9.6.035l3.81 2.2-9.6 5.542-3.809-2.2z" clip-rule="evenodd"/><g fill="#FFAB00" fill-rule="evenodd" clip-rule="evenodd"><path d="M9.6 11.12 6.257 9.19l9.6-5.543 3.342 1.93z"/><path d="M9.6 11.12v12.045L0 17.623V5.578h.001L3.81 7.776v7.987l1.163-.48 1.267 1.44V9.2l.017-.01z"/></g><g fill-rule="evenodd" clip-rule="evenodd"><path fill="url(#b)" d="m15.857 3.647-9.6 5.542-2.446-1.412 9.599-5.542z"/><path fill="url(#c)" d="m6.257 9.19-.017.01v7.524l-1.268-1.44-1.162.48V7.777z"/></g><path fill="#FFD666" fill-rule="evenodd" d="M1.241 17.719a.35.35 0 0 1-.35-.35v-1.296a.35.35 0 0 1 .7 0v1.296a.35.35 0 0 1-.35.35m1.421.831a.35.35 0 0 1-.35-.35v-1.167a.35.35 0 1 1 .7 0V18.2a.35.35 0 0 1-.35.35m1.422.82a.35.35 0 0 1-.35-.35v-1.027a.35.35 0 1 1 .7 0v1.028a.35.35 0 0 1-.35.35m1.421.82a.35.35 0 0 1-.35-.35v-.888a.35.35 0 1 1 .7 0v.888a.35.35 0 0 1-.35.35m1.421.839a.35.35 0 0 1-.35-.35v-.767a.35.35 0 1 1 .7 0v.768a.35.35 0 0 1-.35.35" clip-rule="evenodd"/><path fill="#007867" d="M18.11 19.32a.35.35 0 0 1-.266-.123l-1.16-1.359a.35.35 0 1 1 .532-.454l.938 1.099 3.076-2.502a.35.35 0 1 1 .441.543l-3.34 2.717a.35.35 0 0 1-.22.079"/><path fill="#B76E00" fill-rule="evenodd" d="M11.589 18.047a.35.35 0 0 1-.175-.653l1.594-.92a.35.35 0 0 1 .35.606l-1.594.92a.35.35 0 0 1-.175.047m.954-6.715a.35.35 0 0 0-.563.074l-.845 1.572a.35.35 0 0 0 .308.516.36.36 0 0 0 .314-.184l.193-.348v3.01a.35.35 0 1 0 .7 0v-3.52l.284.308a.347.347 0 0 0 .601-.23.35.35 0 0 0-.096-.25z" clip-rule="evenodd"/><defs><linearGradient id="a" x1="14.3997" x2="23.9998" y1="12.8109" y2="22.4115" gradientUnits="userSpaceOnUse"><stop stop-color="#77ED8B"/><stop offset="1" stop-color="#22C55E"/></linearGradient><linearGradient id="b" x1="3.80957" x2="18.0556" y1="2.23462" y2="14.0791" gradientUnits="userSpaceOnUse"><stop stop-color="#FFAB00"/><stop offset="1" stop-color="#B76E00"/></linearGradient><linearGradient id="c" x1="3.80957" x2="18.0556" y1="2.23462" y2="14.0791" gradientUnits="userSpaceOnUse"><stop stop-color="#FFAB00"/><stop offset="1" stop-color="#B76E00"/></linearGradient></defs></svg>