<svg xmlns="http://www.w3.org/2000/svg" width="24" height="24" fill="none" viewBox="0 0 24 24"><path fill="#0ACF83" d="M8.333 23A3.67 3.67 0 0 0 12 19.333v-3.666H8.333a3.67 3.67 0 0 0-3.666 3.666A3.67 3.67 0 0 0 8.333 23"/><path fill="#A259FF" d="M4.667 12a3.67 3.67 0 0 1 3.666-3.667H12v7.334H8.333A3.67 3.67 0 0 1 4.667 12"/><path fill="#F24E1E" d="M4.667 4.667A3.67 3.67 0 0 1 8.333 1H12v7.333H8.333a3.67 3.67 0 0 1-3.666-3.666"/><path fill="#FF7262" d="M12 1h3.667a3.67 3.67 0 0 1 3.666 3.667 3.67 3.67 0 0 1-3.666 3.666H12z"/><path fill="#1ABCFE" d="M19.333 12a3.67 3.67 0 0 1-3.666 3.667A3.67 3.67 0 0 1 12 12a3.67 3.67 0 0 1 3.667-3.667A3.67 3.67 0 0 1 19.333 12"/></svg>