<svg xmlns="http://www.w3.org/2000/svg" width="24" height="24" fill="none" viewBox="0 0 24 24"><path fill="#FFAB00" d="M7.09 3.825h3.255V15.16q0 2.383-1.307 3.823t-3.366 1.44q-2.214 0-3.443-1.339T1 15.363h3.266q0 2.317 1.406 2.317 1.418 0 1.418-2.677zm12.622 12.078q0-1.002-.51-1.507-.497-.517-1.827-1.069-2.424-.933-3.487-2.181-1.063-1.26-1.063-2.969 0-2.07 1.44-3.318Q15.713 3.6 17.94 3.6q1.484 0 2.646.641a4.3 4.3 0 0 1 1.783 1.788q.63 1.159.631 2.632h-3.244q0-1.147-.487-1.744-.477-.606-1.384-.607-.853 0-1.329.517-.476.507-.476 1.372 0 .675.532 1.226.53.54 1.882 1.125 2.358.866 3.42 2.125 1.075 1.26 1.075 3.205 0 2.137-1.34 3.34t-3.643 1.204q-1.56 0-2.845-.653a4.9 4.9 0 0 1-2.015-1.867q-.72-1.214-.72-2.867h3.267q0 1.416.542 2.058.543.64 1.771.64 1.706 0 1.706-1.832"/></svg>