<svg xmlns="http://www.w3.org/2000/svg" width="24" height="24" fill="none" viewBox="0 0 24 24"><path fill="#212B36" d="M11.28.996c-.048.004-.198.02-.334.03-3.124.282-6.051 1.968-7.905 4.559a10.9 10.9 0 0 0-1.942 4.805c-.088.605-.099.783-.099 1.602s.01.998.099 1.602c.598 4.13 3.538 7.601 7.525 8.887.714.23 1.466.387 2.322.482.334.036 1.774.036 2.108 0 1.477-.164 2.729-.53 3.963-1.16.19-.096.226-.122.2-.143-.017-.013-.823-1.095-1.791-2.402l-1.76-2.376-2.204-3.262a313 313 0 0 0-2.219-3.26c-.009-.002-.017 1.447-.021 3.217-.007 3.099-.01 3.223-.048 3.296a.4.4 0 0 1-.189.196c-.069.035-.13.04-.454.04H8.16l-.099-.061a.4.4 0 0 1-.144-.157l-.045-.097.004-4.311.007-4.314.066-.084a.6.6 0 0 1 .16-.13c.088-.044.122-.048.494-.048.439 0 .512.017.626.142.032.034 1.226 1.832 2.654 3.997s3.38 5.122 4.34 6.573l1.741 2.639.089-.058c.78-.508 1.606-1.23 2.26-1.983a10.95 10.95 0 0 0 2.59-5.623c.087-.604.098-.782.098-1.602 0-.819-.01-.997-.099-1.602-.598-4.13-3.538-7.6-7.525-8.886a11.6 11.6 0 0 0-2.29-.48A28 28 0 0 0 11.28.996m4.503 6.653c.103.052.187.15.217.254.017.056.021 1.251.017 3.945l-.006 3.866-.682-1.045-.684-1.045v-2.81c0-1.817.009-2.838.022-2.888a.44.44 0 0 1 .213-.27c.088-.046.12-.05.458-.05.318 0 .374.004.445.043"/></svg>