<svg xmlns="http://www.w3.org/2000/svg" width="24" height="24" fill="none" viewBox="0 0 24 24"><path fill="#006C9C" d="M11.703 6.58H7.884V20.2H4.755V6.58H1V3.825h10.703zm8.147 9.323q0-1.002-.488-1.507-.478-.517-1.75-1.069-2.324-.933-3.342-2.181-1.018-1.26-1.018-2.969 0-2.07 1.379-3.318Q16.02 3.6 18.152 3.6q1.422 0 2.536.641a4.2 4.2 0 0 1 1.707 1.788q.606 1.159.605 2.632h-3.108q0-1.147-.467-1.744-.456-.606-1.326-.607-.816 0-1.273.517-.456.507-.456 1.372 0 .675.51 1.226.508.54 1.803 1.125 2.26.866 3.278 2.125 1.028 1.26 1.028 3.205 0 2.137-1.283 3.34-1.285 1.203-3.49 1.204-1.496 0-2.726-.653a4.76 4.76 0 0 1-1.93-1.867q-.69-1.214-.69-2.867h3.129q0 1.416.52 2.058.52.64 1.697.64 1.634 0 1.634-1.832"/></svg>