<svg xmlns="http://www.w3.org/2000/svg" width="24" height="24" fill="none" viewBox="0 0 24 24"><path fill="url(#a)" d="m22.413 4.61-9.857 17.624a.536.536 0 0 1-.933.004L1.572 4.611a.536.536 0 0 1 .56-.793l9.866 1.764a.5.5 0 0 0 .19 0L21.85 3.82a.536.536 0 0 1 .564.788"/><path fill="url(#b)" d="m16.698 1.505-7.294 1.43a.27.27 0 0 0-.216.246L8.74 10.76a.268.268 0 0 0 .327.277l2.031-.468a.268.268 0 0 1 .323.314l-.604 2.954a.268.268 0 0 0 .34.31l1.255-.38a.268.268 0 0 1 .34.31l-.959 4.64c-.06.29.326.45.487.2l.108-.166L18.331 6.89a.268.268 0 0 0-.29-.383l-2.09.403a.268.268 0 0 1-.308-.337l1.364-4.73a.268.268 0 0 0-.309-.337"/><defs><linearGradient id="a" x1="1.32622" x2="13.5926" y1="3.18844" y2="19.8472" gradientUnits="userSpaceOnUse"><stop stop-color="#41D1FF"/><stop offset="1" stop-color="#BD34FE"/></linearGradient><linearGradient id="b" x1="11.4313" x2="13.6502" y1="1.89315" y2="17.1148" gradientUnits="userSpaceOnUse"><stop stop-color="#FFEA83"/><stop offset="0.0833" stop-color="#FFDD35"/><stop offset="1" stop-color="#FFA800"/></linearGradient></defs></svg>